<?xml version="1.0" encoding="UTF-8" standalone="no"?>
<!DOCTYPE svg PUBLIC "-//W3C//DTD SVG 1.1//EN"
 "http://www.w3.org/Graphics/SVG/1.1/DTD/svg11.dtd">
<!-- Generated by graphviz version 2.43.0 (0)
 -->
<!-- Title: list Pages: 1 -->
<svg width="450pt" height="1047pt"
 viewBox="0.00 0.00 449.74 1046.51" xmlns="http://www.w3.org/2000/svg" xmlns:xlink="http://www.w3.org/1999/xlink">
<g id="graph0" class="graph" transform="scale(1 1) rotate(0) translate(4 1042.51)">
<title>list</title>
<polygon fill="white" stroke="transparent" points="-4,4 -4,-1042.51 445.74,-1042.51 445.74,4 -4,4"/>
<!-- node_0x5604b40d8fe0 -->
<g id="node1" class="node">
<title>node_0x5604b40d8fe0</title>
<polygon fill="#ffcccc" stroke="black" points="102.7,-988.18 136.87,-961.64 171.04,-988.18 171.01,-1031.13 102.73,-1031.13 102.7,-988.18"/>
<text text-anchor="middle" x="136.87" y="-1005.25" font-family="Times,serif" font-size="16.00">[1]</text>
<text text-anchor="middle" x="136.87" y="-987.25" font-family="Times,serif" font-size="16.00">{</text>
</g>
<!-- node_0x5604b40d91a0 -->
<g id="node2" class="node">
<title>node_0x5604b40d91a0</title>
<polygon fill="#ffcccc" stroke="black" points="102.7,-875.27 136.87,-848.72 171.04,-875.27 171.01,-918.21 102.73,-918.21 102.7,-875.27"/>
<text text-anchor="middle" x="136.87" y="-892.34" font-family="Times,serif" font-size="16.00">[3]</text>
<text text-anchor="middle" x="136.87" y="-874.34" font-family="Times,serif" font-size="16.00">;</text>
</g>
<!-- node_0x5604b40d8fe0&#45;&gt;node_0x5604b40d91a0 -->
<g id="edge1" class="edge">
<title>node_0x5604b40d8fe0&#45;&gt;node_0x5604b40d91a0</title>
<path fill="none" stroke="black" d="M136.87,-961.5C136.87,-950.83 136.87,-939.17 136.87,-928.35"/>
<polygon fill="black" stroke="black" points="140.37,-928.3 136.87,-918.3 133.37,-928.3 140.37,-928.3"/>
</g>
<!-- node_0x5604b40d9120 -->
<g id="node3" class="node">
<title>node_0x5604b40d9120</title>
<polygon fill="#ccccff" stroke="black" points="0.53,-763.89 73.87,-740.79 147.21,-763.89 147.14,-801.26 0.6,-801.26 0.53,-763.89"/>
<text text-anchor="middle" x="73.87" y="-778.02" font-family="Times,serif" font-size="14.00">[2]</text>
<text text-anchor="middle" x="73.87" y="-763.02" font-family="Times,serif" font-size="14.00">VAR_DEF</text>
</g>
<!-- node_0x5604b40d91a0&#45;&gt;node_0x5604b40d9120 -->
<g id="edge2" class="edge">
<title>node_0x5604b40d91a0&#45;&gt;node_0x5604b40d9120</title>
<path fill="none" stroke="black" d="M122.1,-860.13C113.71,-845.36 103.09,-826.66 93.95,-810.57"/>
<polygon fill="black" stroke="black" points="96.75,-808.41 88.77,-801.45 90.66,-811.87 96.75,-808.41"/>
</g>
<!-- node_0x5604b40d95e0 -->
<g id="node6" class="node">
<title>node_0x5604b40d95e0</title>
<polygon fill="#ffcccc" stroke="black" points="165.7,-762.35 199.87,-735.81 234.04,-762.35 234.01,-805.3 165.73,-805.3 165.7,-762.35"/>
<text text-anchor="middle" x="199.87" y="-779.42" font-family="Times,serif" font-size="16.00">[4]</text>
<text text-anchor="middle" x="199.87" y="-761.42" font-family="Times,serif" font-size="16.00">;</text>
</g>
<!-- node_0x5604b40d91a0&#45;&gt;node_0x5604b40d95e0 -->
<g id="edge5" class="edge">
<title>node_0x5604b40d91a0&#45;&gt;node_0x5604b40d95e0</title>
<path fill="none" stroke="black" d="M151.64,-860.13C159.42,-846.43 169.13,-829.35 177.78,-814.11"/>
<polygon fill="black" stroke="black" points="180.84,-815.81 182.74,-805.38 174.76,-812.35 180.84,-815.81"/>
</g>
<!-- node_0x5604b40d90e0 -->
<g id="node4" class="node">
<title>node_0x5604b40d90e0</title>
<ellipse fill="#ccffff" stroke="black" cx="26.87" cy="-666.55" rx="26.74" ry="26.74"/>
<text text-anchor="middle" x="26.87" y="-670.35" font-family="Times,serif" font-size="14.00">[1]</text>
<text text-anchor="middle" x="26.87" y="-655.35" font-family="Times,serif" font-size="14.00">a</text>
</g>
<!-- node_0x5604b40d9120&#45;&gt;node_0x5604b40d90e0 -->
<g id="edge3" class="edge">
<title>node_0x5604b40d9120&#45;&gt;node_0x5604b40d90e0</title>
<path fill="none" stroke="black" d="M61.15,-744.63C55.14,-731.12 47.93,-714.91 41.68,-700.85"/>
<polygon fill="black" stroke="black" points="44.79,-699.24 37.53,-691.52 38.4,-702.08 44.79,-699.24"/>
</g>
<!-- node_0x5604b40d9160 -->
<g id="node5" class="node">
<title>node_0x5604b40d9160</title>
<ellipse fill="#ffffcc" stroke="black" cx="98.87" cy="-666.55" rx="26.74" ry="26.74"/>
<text text-anchor="middle" x="98.87" y="-670.35" font-family="Times,serif" font-size="14.00">[1]</text>
<text text-anchor="middle" x="98.87" y="-655.35" font-family="Times,serif" font-size="14.00">48</text>
</g>
<!-- node_0x5604b40d9120&#45;&gt;node_0x5604b40d9160 -->
<g id="edge4" class="edge">
<title>node_0x5604b40d9120&#45;&gt;node_0x5604b40d9160</title>
<path fill="none" stroke="black" d="M81.03,-742.94C83.99,-730.43 87.45,-715.84 90.52,-702.85"/>
<polygon fill="black" stroke="black" points="93.99,-703.38 92.89,-692.84 87.18,-701.76 93.99,-703.38"/>
</g>
<!-- node_0x5604b40d9420 -->
<g id="node7" class="node">
<title>node_0x5604b40d9420</title>
<polygon fill="#ccccff" stroke="black" points="168.44,-656.22 199.87,-633.12 231.3,-656.22 231.27,-693.59 168.47,-693.59 168.44,-656.22"/>
<text text-anchor="middle" x="199.87" y="-670.35" font-family="Times,serif" font-size="14.00">[3]</text>
<text text-anchor="middle" x="199.87" y="-655.35" font-family="Times,serif" font-size="14.00">IF</text>
</g>
<!-- node_0x5604b40d95e0&#45;&gt;node_0x5604b40d9420 -->
<g id="edge6" class="edge">
<title>node_0x5604b40d95e0&#45;&gt;node_0x5604b40d9420</title>
<path fill="none" stroke="black" d="M199.87,-735.67C199.87,-725.37 199.87,-714.21 199.87,-703.98"/>
<polygon fill="black" stroke="black" points="203.37,-703.71 199.87,-693.71 196.37,-703.71 203.37,-703.71"/>
</g>
<!-- node_0x5604b40d9220 -->
<g id="node8" class="node">
<title>node_0x5604b40d9220</title>
<ellipse fill="#ccffff" stroke="black" cx="105.87" cy="-564.12" rx="26.74" ry="26.74"/>
<text text-anchor="middle" x="105.87" y="-567.92" font-family="Times,serif" font-size="14.00">[1]</text>
<text text-anchor="middle" x="105.87" y="-552.92" font-family="Times,serif" font-size="14.00">a</text>
</g>
<!-- node_0x5604b40d9420&#45;&gt;node_0x5604b40d9220 -->
<g id="edge7" class="edge">
<title>node_0x5604b40d9420&#45;&gt;node_0x5604b40d9220</title>
<path fill="none" stroke="black" d="M181.75,-646.19C167.31,-630.77 146.94,-609.01 130.95,-591.91"/>
<polygon fill="black" stroke="black" points="133.33,-589.34 123.94,-584.43 128.22,-594.12 133.33,-589.34"/>
</g>
<!-- node_0x5604b40d93e0 -->
<g id="node9" class="node">
<title>node_0x5604b40d93e0</title>
<polygon fill="#ccccff" stroke="black" points="150.44,-553.79 294.87,-530.7 439.3,-553.79 439.17,-591.17 150.57,-591.17 150.44,-553.79"/>
<text text-anchor="middle" x="294.87" y="-567.92" font-family="Times,serif" font-size="14.00">[2]</text>
<text text-anchor="middle" x="294.87" y="-552.92" font-family="Times,serif" font-size="14.00">COND_DEPENDENT</text>
</g>
<!-- node_0x5604b40d9420&#45;&gt;node_0x5604b40d93e0 -->
<g id="edge8" class="edge">
<title>node_0x5604b40d9420&#45;&gt;node_0x5604b40d93e0</title>
<path fill="none" stroke="black" d="M218.19,-646.19C230.88,-632.77 248.12,-614.54 263.04,-598.78"/>
<polygon fill="black" stroke="black" points="265.81,-600.93 270.14,-591.26 260.73,-596.12 265.81,-600.93"/>
</g>
<!-- node_0x5604b40d9460 -->
<g id="node10" class="node">
<title>node_0x5604b40d9460</title>
<polygon fill="#ffcccc" stroke="black" points="217.7,-444.58 251.87,-418.04 286.04,-444.58 286.01,-487.53 217.73,-487.53 217.7,-444.58"/>
<text text-anchor="middle" x="251.87" y="-461.65" font-family="Times,serif" font-size="16.00">[1]</text>
<text text-anchor="middle" x="251.87" y="-443.65" font-family="Times,serif" font-size="16.00">{</text>
</g>
<!-- node_0x5604b40d93e0&#45;&gt;node_0x5604b40d9460 -->
<g id="edge9" class="edge">
<title>node_0x5604b40d93e0&#45;&gt;node_0x5604b40d9460</title>
<path fill="none" stroke="black" d="M282.43,-532.56C277.94,-521.51 272.79,-508.87 268.03,-497.16"/>
<polygon fill="black" stroke="black" points="271.14,-495.53 264.13,-487.58 264.66,-498.17 271.14,-495.53"/>
</g>
<!-- node_0x5604b40d9260 -->
<g id="node16" class="node">
<title>node_0x5604b40d9260</title>
<polygon fill="#ffcccc" stroke="black" points="303.7,-444.58 337.87,-418.04 372.04,-444.58 372.01,-487.53 303.73,-487.53 303.7,-444.58"/>
<text text-anchor="middle" x="337.87" y="-461.65" font-family="Times,serif" font-size="16.00">[1]</text>
<text text-anchor="middle" x="337.87" y="-443.65" font-family="Times,serif" font-size="16.00">{</text>
</g>
<!-- node_0x5604b40d93e0&#45;&gt;node_0x5604b40d9260 -->
<g id="edge15" class="edge">
<title>node_0x5604b40d93e0&#45;&gt;node_0x5604b40d9260</title>
<path fill="none" stroke="black" d="M307.31,-532.56C311.8,-521.51 316.95,-508.87 321.71,-497.16"/>
<polygon fill="black" stroke="black" points="325.08,-498.17 325.61,-487.58 318.6,-495.53 325.08,-498.17"/>
</g>
<!-- node_0x5604b40d95a0 -->
<g id="node11" class="node">
<title>node_0x5604b40d95a0</title>
<polygon fill="#ffcccc" stroke="black" points="217.7,-331.67 251.87,-305.12 286.04,-331.67 286.01,-374.62 217.73,-374.62 217.7,-331.67"/>
<text text-anchor="middle" x="251.87" y="-348.74" font-family="Times,serif" font-size="16.00">[4]</text>
<text text-anchor="middle" x="251.87" y="-330.74" font-family="Times,serif" font-size="16.00">;</text>
</g>
<!-- node_0x5604b40d9460&#45;&gt;node_0x5604b40d95a0 -->
<g id="edge10" class="edge">
<title>node_0x5604b40d9460&#45;&gt;node_0x5604b40d95a0</title>
<path fill="none" stroke="black" d="M251.87,-417.9C251.87,-407.23 251.87,-395.58 251.87,-384.76"/>
<polygon fill="black" stroke="black" points="255.37,-384.7 251.87,-374.7 248.37,-384.7 255.37,-384.7"/>
</g>
<!-- node_0x5604b40d9560 -->
<g id="node12" class="node">
<title>node_0x5604b40d9560</title>
<polygon fill="#ccccff" stroke="black" points="186.23,-225.54 235.87,-202.44 285.51,-225.54 285.46,-262.91 186.28,-262.91 186.23,-225.54"/>
<text text-anchor="middle" x="235.87" y="-239.67" font-family="Times,serif" font-size="14.00">[3]</text>
<text text-anchor="middle" x="235.87" y="-224.67" font-family="Times,serif" font-size="14.00">EXPR</text>
</g>
<!-- node_0x5604b40d95a0&#45;&gt;node_0x5604b40d9560 -->
<g id="edge11" class="edge">
<title>node_0x5604b40d95a0&#45;&gt;node_0x5604b40d9560</title>
<path fill="none" stroke="black" d="M246.76,-308.81C245.04,-297.44 243.11,-284.7 241.36,-273.13"/>
<polygon fill="black" stroke="black" points="244.77,-272.28 239.81,-262.92 237.85,-273.33 244.77,-272.28"/>
</g>
<!-- node_0x5604b40d9520 -->
<g id="node13" class="node">
<title>node_0x5604b40d9520</title>
<polygon fill="#ffcccc" stroke="black" points="201.7,-116.33 235.87,-89.78 270.04,-116.33 270.01,-159.28 201.73,-159.28 201.7,-116.33"/>
<text text-anchor="middle" x="235.87" y="-133.4" font-family="Times,serif" font-size="16.00">[2]</text>
<text text-anchor="middle" x="235.87" y="-115.4" font-family="Times,serif" font-size="16.00">=</text>
</g>
<!-- node_0x5604b40d9560&#45;&gt;node_0x5604b40d9520 -->
<g id="edge12" class="edge">
<title>node_0x5604b40d9560&#45;&gt;node_0x5604b40d9520</title>
<path fill="none" stroke="black" d="M235.87,-202.59C235.87,-192.19 235.87,-180.54 235.87,-169.64"/>
<polygon fill="black" stroke="black" points="239.37,-169.47 235.87,-159.47 232.37,-169.47 239.37,-169.47"/>
</g>
<!-- node_0x5604b40d94a0 -->
<g id="node14" class="node">
<title>node_0x5604b40d94a0</title>
<ellipse fill="#ccffff" stroke="black" cx="175.87" cy="-26.87" rx="26.74" ry="26.74"/>
<text text-anchor="middle" x="175.87" y="-30.67" font-family="Times,serif" font-size="14.00">[1]</text>
<text text-anchor="middle" x="175.87" y="-15.67" font-family="Times,serif" font-size="14.00">a</text>
</g>
<!-- node_0x5604b40d9520&#45;&gt;node_0x5604b40d94a0 -->
<g id="edge13" class="edge">
<title>node_0x5604b40d9520&#45;&gt;node_0x5604b40d94a0</title>
<path fill="none" stroke="black" d="M220.42,-101.62C212.56,-88.6 202.94,-72.68 194.65,-58.96"/>
<polygon fill="black" stroke="black" points="197.6,-57.07 189.43,-50.32 191.61,-60.69 197.6,-57.07"/>
</g>
<!-- node_0x5604b40d94e0 -->
<g id="node15" class="node">
<title>node_0x5604b40d94e0</title>
<ellipse fill="#ffffcc" stroke="black" cx="247.87" cy="-26.87" rx="26.74" ry="26.74"/>
<text text-anchor="middle" x="247.87" y="-30.67" font-family="Times,serif" font-size="14.00">[1]</text>
<text text-anchor="middle" x="247.87" y="-15.67" font-family="Times,serif" font-size="14.00">3</text>
</g>
<!-- node_0x5604b40d9520&#45;&gt;node_0x5604b40d94e0 -->
<g id="edge14" class="edge">
<title>node_0x5604b40d9520&#45;&gt;node_0x5604b40d94e0</title>
<path fill="none" stroke="black" d="M240.03,-92.74C241.15,-83.45 242.37,-73.39 243.5,-64.02"/>
<polygon fill="black" stroke="black" points="247.01,-64.16 244.74,-53.81 240.06,-63.32 247.01,-64.16"/>
</g>
<!-- node_0x5604b40d93a0 -->
<g id="node17" class="node">
<title>node_0x5604b40d93a0</title>
<polygon fill="#ffcccc" stroke="black" points="311.7,-331.67 345.87,-305.12 380.04,-331.67 380.01,-374.62 311.73,-374.62 311.7,-331.67"/>
<text text-anchor="middle" x="345.87" y="-348.74" font-family="Times,serif" font-size="16.00">[4]</text>
<text text-anchor="middle" x="345.87" y="-330.74" font-family="Times,serif" font-size="16.00">;</text>
</g>
<!-- node_0x5604b40d9260&#45;&gt;node_0x5604b40d93a0 -->
<g id="edge16" class="edge">
<title>node_0x5604b40d9260&#45;&gt;node_0x5604b40d93a0</title>
<path fill="none" stroke="black" d="M340.45,-419.75C341.24,-408.69 342.13,-396.44 342.95,-385.08"/>
<polygon fill="black" stroke="black" points="346.45,-385.19 343.68,-374.96 339.47,-384.68 346.45,-385.19"/>
</g>
<!-- node_0x5604b40d9360 -->
<g id="node18" class="node">
<title>node_0x5604b40d9360</title>
<polygon fill="#ccccff" stroke="black" points="304.23,-225.54 353.87,-202.44 403.51,-225.54 403.46,-262.91 304.28,-262.91 304.23,-225.54"/>
<text text-anchor="middle" x="353.87" y="-239.67" font-family="Times,serif" font-size="14.00">[3]</text>
<text text-anchor="middle" x="353.87" y="-224.67" font-family="Times,serif" font-size="14.00">EXPR</text>
</g>
<!-- node_0x5604b40d93a0&#45;&gt;node_0x5604b40d9360 -->
<g id="edge17" class="edge">
<title>node_0x5604b40d93a0&#45;&gt;node_0x5604b40d9360</title>
<path fill="none" stroke="black" d="M348.56,-307.06C349.38,-296.15 350.29,-284.14 351.12,-273.18"/>
<polygon fill="black" stroke="black" points="354.62,-273.3 351.89,-263.07 347.64,-272.77 354.62,-273.3"/>
</g>
<!-- node_0x5604b40d9320 -->
<g id="node19" class="node">
<title>node_0x5604b40d9320</title>
<polygon fill="#ffcccc" stroke="black" points="319.7,-116.33 353.87,-89.78 388.04,-116.33 388.01,-159.28 319.73,-159.28 319.7,-116.33"/>
<text text-anchor="middle" x="353.87" y="-133.4" font-family="Times,serif" font-size="16.00">[2]</text>
<text text-anchor="middle" x="353.87" y="-115.4" font-family="Times,serif" font-size="16.00">=</text>
</g>
<!-- node_0x5604b40d9360&#45;&gt;node_0x5604b40d9320 -->
<g id="edge18" class="edge">
<title>node_0x5604b40d9360&#45;&gt;node_0x5604b40d9320</title>
<path fill="none" stroke="black" d="M353.87,-202.59C353.87,-192.19 353.87,-180.54 353.87,-169.64"/>
<polygon fill="black" stroke="black" points="357.37,-169.47 353.87,-159.47 350.37,-169.47 357.37,-169.47"/>
</g>
<!-- node_0x5604b40d92a0 -->
<g id="node20" class="node">
<title>node_0x5604b40d92a0</title>
<ellipse fill="#ccffff" stroke="black" cx="342.87" cy="-26.87" rx="26.74" ry="26.74"/>
<text text-anchor="middle" x="342.87" y="-30.67" font-family="Times,serif" font-size="14.00">[1]</text>
<text text-anchor="middle" x="342.87" y="-15.67" font-family="Times,serif" font-size="14.00">a</text>
</g>
<!-- node_0x5604b40d9320&#45;&gt;node_0x5604b40d92a0 -->
<g id="edge19" class="edge">
<title>node_0x5604b40d9320&#45;&gt;node_0x5604b40d92a0</title>
<path fill="none" stroke="black" d="M350.05,-92.74C349.03,-83.45 347.91,-73.39 346.87,-64.02"/>
<polygon fill="black" stroke="black" points="350.32,-63.37 345.74,-53.81 343.36,-64.14 350.32,-63.37"/>
</g>
<!-- node_0x5604b40d92e0 -->
<g id="node21" class="node">
<title>node_0x5604b40d92e0</title>
<ellipse fill="#ffffcc" stroke="black" cx="414.87" cy="-26.87" rx="26.74" ry="26.74"/>
<text text-anchor="middle" x="414.87" y="-30.67" font-family="Times,serif" font-size="14.00">[1]</text>
<text text-anchor="middle" x="414.87" y="-15.67" font-family="Times,serif" font-size="14.00">2</text>
</g>
<!-- node_0x5604b40d9320&#45;&gt;node_0x5604b40d92e0 -->
<g id="edge20" class="edge">
<title>node_0x5604b40d9320&#45;&gt;node_0x5604b40d92e0</title>
<path fill="none" stroke="black" d="M369.58,-101.62C377.57,-88.6 387.35,-72.68 395.78,-58.96"/>
<polygon fill="black" stroke="black" points="398.83,-60.67 401.08,-50.32 392.87,-57.01 398.83,-60.67"/>
</g>
</g>
</svg>
