<?xml version="1.0" encoding="UTF-8" standalone="no"?>
<!DOCTYPE svg PUBLIC "-//W3C//DTD SVG 1.1//EN"
 "http://www.w3.org/Graphics/SVG/1.1/DTD/svg11.dtd">
<!-- Generated by graphviz version 2.43.0 (0)
 -->
<!-- Title: list Pages: 1 -->
<svg width="681pt" height="1067pt"
 viewBox="0.00 0.00 680.69 1067.49" xmlns="http://www.w3.org/2000/svg" xmlns:xlink="http://www.w3.org/1999/xlink">
<g id="graph0" class="graph" transform="scale(1 1) rotate(0) translate(4 1063.49)">
<title>list</title>
<polygon fill="white" stroke="transparent" points="-4,4 -4,-1063.49 676.69,-1063.49 676.69,4 -4,4"/>
<!-- node_0x55cf41777670 -->
<g id="node1" class="node">
<title>node_0x55cf41777670</title>
<polygon fill="#ffcccc" stroke="black" points="432.7,-1009.16 466.87,-982.61 501.04,-1009.16 501.01,-1052.11 432.73,-1052.11 432.7,-1009.16"/>
<text text-anchor="middle" x="466.87" y="-1026.23" font-family="Times,serif" font-size="16.00">[1]</text>
<text text-anchor="middle" x="466.87" y="-1008.23" font-family="Times,serif" font-size="16.00">{</text>
</g>
<!-- node_0x55cf41777830 -->
<g id="node2" class="node">
<title>node_0x55cf41777830</title>
<polygon fill="#ffcccc" stroke="black" points="432.7,-896.24 466.87,-869.7 501.04,-896.24 501.01,-939.19 432.73,-939.19 432.7,-896.24"/>
<text text-anchor="middle" x="466.87" y="-913.31" font-family="Times,serif" font-size="16.00">[3]</text>
<text text-anchor="middle" x="466.87" y="-895.31" font-family="Times,serif" font-size="16.00">;</text>
</g>
<!-- node_0x55cf41777670&#45;&gt;node_0x55cf41777830 -->
<g id="edge1" class="edge">
<title>node_0x55cf41777670&#45;&gt;node_0x55cf41777830</title>
<path fill="none" stroke="black" d="M466.87,-982.48C466.87,-971.81 466.87,-960.15 466.87,-949.33"/>
<polygon fill="black" stroke="black" points="470.37,-949.27 466.87,-939.27 463.37,-949.27 470.37,-949.27"/>
</g>
<!-- node_0x55cf417777b0 -->
<g id="node3" class="node">
<title>node_0x55cf417777b0</title>
<polygon fill="#ccccff" stroke="black" points="330.53,-784.87 403.87,-761.77 477.21,-784.87 477.14,-822.24 330.6,-822.24 330.53,-784.87"/>
<text text-anchor="middle" x="403.87" y="-799" font-family="Times,serif" font-size="14.00">[2]</text>
<text text-anchor="middle" x="403.87" y="-784" font-family="Times,serif" font-size="14.00">VAR_DEF</text>
</g>
<!-- node_0x55cf41777830&#45;&gt;node_0x55cf417777b0 -->
<g id="edge2" class="edge">
<title>node_0x55cf41777830&#45;&gt;node_0x55cf417777b0</title>
<path fill="none" stroke="black" d="M452.1,-881.11C443.71,-866.34 433.09,-847.63 423.95,-831.55"/>
<polygon fill="black" stroke="black" points="426.75,-829.39 418.77,-822.42 420.66,-832.85 426.75,-829.39"/>
</g>
<!-- node_0x55cf41777e70 -->
<g id="node6" class="node">
<title>node_0x55cf41777e70</title>
<polygon fill="#ffcccc" stroke="black" points="495.7,-783.33 529.87,-756.78 564.04,-783.33 564.01,-826.28 495.73,-826.28 495.7,-783.33"/>
<text text-anchor="middle" x="529.87" y="-800.4" font-family="Times,serif" font-size="16.00">[6]</text>
<text text-anchor="middle" x="529.87" y="-782.4" font-family="Times,serif" font-size="16.00">;</text>
</g>
<!-- node_0x55cf41777830&#45;&gt;node_0x55cf41777e70 -->
<g id="edge5" class="edge">
<title>node_0x55cf41777830&#45;&gt;node_0x55cf41777e70</title>
<path fill="none" stroke="black" d="M481.64,-881.11C489.42,-867.41 499.13,-850.32 507.78,-835.08"/>
<polygon fill="black" stroke="black" points="510.84,-836.78 512.74,-826.36 504.76,-833.33 510.84,-836.78"/>
</g>
<!-- node_0x55cf41777770 -->
<g id="node4" class="node">
<title>node_0x55cf41777770</title>
<ellipse fill="#ccffff" stroke="black" cx="336.87" cy="-682.28" rx="26.74" ry="26.74"/>
<text text-anchor="middle" x="336.87" y="-686.08" font-family="Times,serif" font-size="14.00">[1]</text>
<text text-anchor="middle" x="336.87" y="-671.08" font-family="Times,serif" font-size="14.00">a</text>
</g>
<!-- node_0x55cf417777b0&#45;&gt;node_0x55cf41777770 -->
<g id="edge3" class="edge">
<title>node_0x55cf417777b0&#45;&gt;node_0x55cf41777770</title>
<path fill="none" stroke="black" d="M387.31,-766.78C377.7,-750.87 365.56,-730.77 355.6,-714.29"/>
<polygon fill="black" stroke="black" points="358.49,-712.3 350.32,-705.55 352.49,-715.92 358.49,-712.3"/>
</g>
<!-- node_0x55cf417777f0 -->
<g id="node5" class="node">
<title>node_0x55cf417777f0</title>
<ellipse fill="#ffffcc" stroke="black" cx="412.87" cy="-682.28" rx="31.23" ry="31.23"/>
<text text-anchor="middle" x="412.87" y="-686.08" font-family="Times,serif" font-size="14.00">[1]</text>
<text text-anchor="middle" x="412.87" y="-671.08" font-family="Times,serif" font-size="14.00">100</text>
</g>
<!-- node_0x55cf417777b0&#45;&gt;node_0x55cf417777f0 -->
<g id="edge4" class="edge">
<title>node_0x55cf417777b0&#45;&gt;node_0x55cf417777f0</title>
<path fill="none" stroke="black" d="M406.45,-762.41C407.42,-750.41 408.54,-736.59 409.58,-723.89"/>
<polygon fill="black" stroke="black" points="413.09,-723.8 410.41,-713.55 406.12,-723.23 413.09,-723.8"/>
</g>
<!-- node_0x55cf41777e30 -->
<g id="node7" class="node">
<title>node_0x55cf41777e30</title>
<polygon fill="#ccccff" stroke="black" points="478.96,-671.95 520.87,-648.86 562.78,-671.95 562.74,-709.33 479,-709.33 478.96,-671.95"/>
<text text-anchor="middle" x="520.87" y="-686.08" font-family="Times,serif" font-size="14.00">[5]</text>
<text text-anchor="middle" x="520.87" y="-671.08" font-family="Times,serif" font-size="14.00">FOR</text>
</g>
<!-- node_0x55cf41777e70&#45;&gt;node_0x55cf41777e30 -->
<g id="edge6" class="edge">
<title>node_0x55cf41777e70&#45;&gt;node_0x55cf41777e30</title>
<path fill="none" stroke="black" d="M527,-758.8C525.98,-746.32 524.84,-732.27 523.83,-719.7"/>
<polygon fill="black" stroke="black" points="527.3,-719.25 523,-709.57 520.32,-719.82 527.3,-719.25"/>
</g>
<!-- node_0x55cf41777f30 -->
<g id="node27" class="node">
<title>node_0x55cf41777f30</title>
<polygon fill="#ffcccc" stroke="black" points="584.7,-670.41 618.87,-643.87 653.04,-670.41 653.01,-713.36 584.73,-713.36 584.7,-670.41"/>
<text text-anchor="middle" x="618.87" y="-687.48" font-family="Times,serif" font-size="16.00">[3]</text>
<text text-anchor="middle" x="618.87" y="-669.48" font-family="Times,serif" font-size="16.00">;</text>
</g>
<!-- node_0x55cf41777e70&#45;&gt;node_0x55cf41777f30 -->
<g id="edge26" class="edge">
<title>node_0x55cf41777e70&#45;&gt;node_0x55cf41777f30</title>
<path fill="none" stroke="black" d="M548.53,-770.95C560,-756.64 574.99,-737.97 588.18,-721.53"/>
<polygon fill="black" stroke="black" points="590.96,-723.66 594.49,-713.67 585.5,-719.28 590.96,-723.66"/>
</g>
<!-- node_0x55cf41777bf0 -->
<g id="node8" class="node">
<title>node_0x55cf41777bf0</title>
<polygon fill="#ccccff" stroke="black" points="304.8,-559.04 385.87,-535.94 466.94,-559.04 466.86,-596.41 304.88,-596.41 304.8,-559.04"/>
<text text-anchor="middle" x="385.87" y="-573.17" font-family="Times,serif" font-size="14.00">[4]</text>
<text text-anchor="middle" x="385.87" y="-558.17" font-family="Times,serif" font-size="14.00">FOR_INFO</text>
</g>
<!-- node_0x55cf41777e30&#45;&gt;node_0x55cf41777bf0 -->
<g id="edge7" class="edge">
<title>node_0x55cf41777e30&#45;&gt;node_0x55cf41777bf0</title>
<path fill="none" stroke="black" d="M497.05,-661.71C477.34,-645.52 448.94,-622.18 425.77,-603.15"/>
<polygon fill="black" stroke="black" points="427.77,-600.26 417.82,-596.62 423.32,-605.67 427.77,-600.26"/>
</g>
<!-- node_0x55cf41777c30 -->
<g id="node19" class="node">
<title>node_0x55cf41777c30</title>
<polygon fill="#ffcccc" stroke="black" points="486.7,-557.5 520.87,-530.95 555.04,-557.5 555.01,-600.45 486.73,-600.45 486.7,-557.5"/>
<text text-anchor="middle" x="520.87" y="-574.57" font-family="Times,serif" font-size="16.00">[1]</text>
<text text-anchor="middle" x="520.87" y="-556.57" font-family="Times,serif" font-size="16.00">{</text>
</g>
<!-- node_0x55cf41777e30&#45;&gt;node_0x55cf41777c30 -->
<g id="edge18" class="edge">
<title>node_0x55cf41777e30&#45;&gt;node_0x55cf41777c30</title>
<path fill="none" stroke="black" d="M520.87,-648.9C520.87,-637.01 520.87,-623.4 520.87,-610.89"/>
<polygon fill="black" stroke="black" points="524.37,-610.7 520.87,-600.7 517.37,-610.7 524.37,-610.7"/>
</g>
<!-- node_0x55cf41777af0 -->
<g id="node9" class="node">
<title>node_0x55cf41777af0</title>
<polygon fill="#ccccff" stroke="black" points="119.8,-446.12 200.87,-423.03 281.94,-446.12 281.86,-483.5 119.88,-483.5 119.8,-446.12"/>
<text text-anchor="middle" x="200.87" y="-460.25" font-family="Times,serif" font-size="14.00">[3]</text>
<text text-anchor="middle" x="200.87" y="-445.25" font-family="Times,serif" font-size="14.00">FOR_INFO</text>
</g>
<!-- node_0x55cf41777bf0&#45;&gt;node_0x55cf41777af0 -->
<g id="edge8" class="edge">
<title>node_0x55cf41777bf0&#45;&gt;node_0x55cf41777af0</title>
<path fill="none" stroke="black" d="M348.88,-546.19C321.53,-529.79 283.9,-507.23 253.43,-488.96"/>
<polygon fill="black" stroke="black" points="255.01,-485.83 244.63,-483.69 251.41,-491.83 255.01,-485.83"/>
</g>
<!-- node_0x55cf41777bb0 -->
<g id="node16" class="node">
<title>node_0x55cf41777bb0</title>
<polygon fill="#ccccff" stroke="black" points="300.06,-446.12 385.87,-423.03 471.68,-446.12 471.6,-483.5 300.14,-483.5 300.06,-446.12"/>
<text text-anchor="middle" x="385.87" y="-460.25" font-family="Times,serif" font-size="14.00">[2]</text>
<text text-anchor="middle" x="385.87" y="-445.25" font-family="Times,serif" font-size="14.00">ASGN_ADD</text>
</g>
<!-- node_0x55cf41777bf0&#45;&gt;node_0x55cf41777bb0 -->
<g id="edge15" class="edge">
<title>node_0x55cf41777bf0&#45;&gt;node_0x55cf41777bb0</title>
<path fill="none" stroke="black" d="M385.87,-535.99C385.87,-522.74 385.87,-507.35 385.87,-493.73"/>
<polygon fill="black" stroke="black" points="389.37,-493.72 385.87,-483.72 382.37,-493.72 389.37,-493.72"/>
</g>
<!-- node_0x55cf41777970 -->
<g id="node10" class="node">
<title>node_0x55cf41777970</title>
<polygon fill="#ccccff" stroke="black" points="9.53,-338.45 82.87,-315.36 156.21,-338.45 156.14,-375.83 9.6,-375.83 9.53,-338.45"/>
<text text-anchor="middle" x="82.87" y="-352.58" font-family="Times,serif" font-size="14.00">[2]</text>
<text text-anchor="middle" x="82.87" y="-337.58" font-family="Times,serif" font-size="14.00">VAR_DEF</text>
</g>
<!-- node_0x55cf41777af0&#45;&gt;node_0x55cf41777970 -->
<g id="edge9" class="edge">
<title>node_0x55cf41777af0&#45;&gt;node_0x55cf41777970</title>
<path fill="none" stroke="black" d="M173.2,-430.68C157.25,-416.4 137,-398.26 119.72,-382.78"/>
<polygon fill="black" stroke="black" points="121.79,-379.94 112.01,-375.88 117.12,-385.16 121.79,-379.94"/>
</g>
<!-- node_0x55cf41777ab0 -->
<g id="node13" class="node">
<title>node_0x55cf41777ab0</title>
<polygon fill="#ccccff" stroke="black" points="173.97,-338.45 217.87,-315.36 261.77,-338.45 261.73,-375.83 174.01,-375.83 173.97,-338.45"/>
<text text-anchor="middle" x="217.87" y="-352.58" font-family="Times,serif" font-size="14.00">[2]</text>
<text text-anchor="middle" x="217.87" y="-337.58" font-family="Times,serif" font-size="14.00">NEQ</text>
</g>
<!-- node_0x55cf41777af0&#45;&gt;node_0x55cf41777ab0 -->
<g id="edge12" class="edge">
<title>node_0x55cf41777af0&#45;&gt;node_0x55cf41777ab0</title>
<path fill="none" stroke="black" d="M205.88,-424.32C207.81,-412.33 210.03,-398.55 212.03,-386.11"/>
<polygon fill="black" stroke="black" points="215.51,-386.49 213.64,-376.06 208.6,-385.37 215.51,-386.49"/>
</g>
<!-- node_0x55cf41777930 -->
<g id="node11" class="node">
<title>node_0x55cf41777930</title>
<ellipse fill="#ccffff" stroke="black" cx="26.87" cy="-241.11" rx="26.74" ry="26.74"/>
<text text-anchor="middle" x="26.87" y="-244.91" font-family="Times,serif" font-size="14.00">[1]</text>
<text text-anchor="middle" x="26.87" y="-229.91" font-family="Times,serif" font-size="14.00">i</text>
</g>
<!-- node_0x55cf41777970&#45;&gt;node_0x55cf41777930 -->
<g id="edge10" class="edge">
<title>node_0x55cf41777970&#45;&gt;node_0x55cf41777930</title>
<path fill="none" stroke="black" d="M68.01,-319.74C60.62,-305.8 51.65,-288.88 43.98,-274.39"/>
<polygon fill="black" stroke="black" points="46.93,-272.48 39.15,-265.28 40.74,-275.76 46.93,-272.48"/>
</g>
<!-- node_0x55cf417779b0 -->
<g id="node12" class="node">
<title>node_0x55cf417779b0</title>
<ellipse fill="#ffffcc" stroke="black" cx="98.87" cy="-241.11" rx="26.74" ry="26.74"/>
<text text-anchor="middle" x="98.87" y="-244.91" font-family="Times,serif" font-size="14.00">[1]</text>
<text text-anchor="middle" x="98.87" y="-229.91" font-family="Times,serif" font-size="14.00">0</text>
</g>
<!-- node_0x55cf41777970&#45;&gt;node_0x55cf417779b0 -->
<g id="edge11" class="edge">
<title>node_0x55cf41777970&#45;&gt;node_0x55cf417779b0</title>
<path fill="none" stroke="black" d="M87.58,-316.65C89.41,-304.57 91.52,-290.66 93.41,-278.15"/>
<polygon fill="black" stroke="black" points="96.91,-278.45 94.94,-268.04 89.99,-277.4 96.91,-278.45"/>
</g>
<!-- node_0x55cf41777a30 -->
<g id="node14" class="node">
<title>node_0x55cf41777a30</title>
<ellipse fill="#ccffff" stroke="black" cx="201.87" cy="-241.11" rx="26.74" ry="26.74"/>
<text text-anchor="middle" x="201.87" y="-244.91" font-family="Times,serif" font-size="14.00">[1]</text>
<text text-anchor="middle" x="201.87" y="-229.91" font-family="Times,serif" font-size="14.00">a</text>
</g>
<!-- node_0x55cf41777ab0&#45;&gt;node_0x55cf41777a30 -->
<g id="edge13" class="edge">
<title>node_0x55cf41777ab0&#45;&gt;node_0x55cf41777a30</title>
<path fill="none" stroke="black" d="M213.29,-317.5C211.41,-305.09 209.22,-290.63 207.26,-277.71"/>
<polygon fill="black" stroke="black" points="210.71,-277.11 205.75,-267.75 203.79,-278.16 210.71,-277.11"/>
</g>
<!-- node_0x55cf41777a70 -->
<g id="node15" class="node">
<title>node_0x55cf41777a70</title>
<ellipse fill="#ffffcc" stroke="black" cx="273.87" cy="-241.11" rx="26.74" ry="26.74"/>
<text text-anchor="middle" x="273.87" y="-244.91" font-family="Times,serif" font-size="14.00">[1]</text>
<text text-anchor="middle" x="273.87" y="-229.91" font-family="Times,serif" font-size="14.00">48</text>
</g>
<!-- node_0x55cf41777ab0&#45;&gt;node_0x55cf41777a70 -->
<g id="edge14" class="edge">
<title>node_0x55cf41777ab0&#45;&gt;node_0x55cf41777a70</title>
<path fill="none" stroke="black" d="M231.43,-322.2C239.04,-307.84 248.61,-289.77 256.74,-274.43"/>
<polygon fill="black" stroke="black" points="259.99,-275.77 261.58,-265.29 253.81,-272.49 259.99,-275.77"/>
</g>
<!-- node_0x55cf41777b30 -->
<g id="node17" class="node">
<title>node_0x55cf41777b30</title>
<ellipse fill="#ccffff" stroke="black" cx="339.87" cy="-348.78" rx="26.74" ry="26.74"/>
<text text-anchor="middle" x="339.87" y="-352.58" font-family="Times,serif" font-size="14.00">[1]</text>
<text text-anchor="middle" x="339.87" y="-337.58" font-family="Times,serif" font-size="14.00">i</text>
</g>
<!-- node_0x55cf41777bb0&#45;&gt;node_0x55cf41777b30 -->
<g id="edge16" class="edge">
<title>node_0x55cf41777bb0&#45;&gt;node_0x55cf41777b30</title>
<path fill="none" stroke="black" d="M373.18,-426.3C367.34,-412.9 360.4,-396.93 354.36,-383.06"/>
<polygon fill="black" stroke="black" points="357.55,-381.62 350.35,-373.85 351.13,-384.42 357.55,-381.62"/>
</g>
<!-- node_0x55cf41777b70 -->
<g id="node18" class="node">
<title>node_0x55cf41777b70</title>
<ellipse fill="#ffffcc" stroke="black" cx="411.87" cy="-348.78" rx="26.74" ry="26.74"/>
<text text-anchor="middle" x="411.87" y="-352.58" font-family="Times,serif" font-size="14.00">[1]</text>
<text text-anchor="middle" x="411.87" y="-337.58" font-family="Times,serif" font-size="14.00">1</text>
</g>
<!-- node_0x55cf41777bb0&#45;&gt;node_0x55cf41777b70 -->
<g id="edge17" class="edge">
<title>node_0x55cf41777bb0&#45;&gt;node_0x55cf41777b70</title>
<path fill="none" stroke="black" d="M393.39,-424.89C396.47,-412.38 400.05,-397.84 403.23,-384.9"/>
<polygon fill="black" stroke="black" points="406.69,-385.49 405.68,-374.94 399.89,-383.81 406.69,-385.49"/>
</g>
<!-- node_0x55cf41777df0 -->
<g id="node20" class="node">
<title>node_0x55cf41777df0</title>
<polygon fill="#ffcccc" stroke="black" points="489.7,-444.58 523.87,-418.04 558.04,-444.58 558.01,-487.53 489.73,-487.53 489.7,-444.58"/>
<text text-anchor="middle" x="523.87" y="-461.65" font-family="Times,serif" font-size="16.00">[5]</text>
<text text-anchor="middle" x="523.87" y="-443.65" font-family="Times,serif" font-size="16.00">;</text>
</g>
<!-- node_0x55cf41777c30&#45;&gt;node_0x55cf41777df0 -->
<g id="edge19" class="edge">
<title>node_0x55cf41777c30&#45;&gt;node_0x55cf41777df0</title>
<path fill="none" stroke="black" d="M521.87,-531.44C522.16,-520.64 522.48,-508.79 522.78,-497.8"/>
<polygon fill="black" stroke="black" points="526.28,-497.68 523.06,-487.59 519.29,-497.49 526.28,-497.68"/>
</g>
<!-- node_0x55cf41777db0 -->
<g id="node21" class="node">
<title>node_0x55cf41777db0</title>
<polygon fill="#ccccff" stroke="black" points="474.23,-338.45 523.87,-315.36 573.51,-338.45 573.46,-375.83 474.28,-375.83 474.23,-338.45"/>
<text text-anchor="middle" x="523.87" y="-352.58" font-family="Times,serif" font-size="14.00">[4]</text>
<text text-anchor="middle" x="523.87" y="-337.58" font-family="Times,serif" font-size="14.00">EXPR</text>
</g>
<!-- node_0x55cf41777df0&#45;&gt;node_0x55cf41777db0 -->
<g id="edge20" class="edge">
<title>node_0x55cf41777df0&#45;&gt;node_0x55cf41777db0</title>
<path fill="none" stroke="black" d="M523.87,-417.9C523.87,-407.6 523.87,-396.45 523.87,-386.21"/>
<polygon fill="black" stroke="black" points="527.37,-385.94 523.87,-375.94 520.37,-385.94 527.37,-385.94"/>
</g>
<!-- node_0x55cf41777d70 -->
<g id="node22" class="node">
<title>node_0x55cf41777d70</title>
<polygon fill="#ffcccc" stroke="black" points="489.7,-229.24 523.87,-202.7 558.04,-229.24 558.01,-272.19 489.73,-272.19 489.7,-229.24"/>
<text text-anchor="middle" x="523.87" y="-246.31" font-family="Times,serif" font-size="16.00">[3]</text>
<text text-anchor="middle" x="523.87" y="-228.31" font-family="Times,serif" font-size="16.00">=</text>
</g>
<!-- node_0x55cf41777db0&#45;&gt;node_0x55cf41777d70 -->
<g id="edge21" class="edge">
<title>node_0x55cf41777db0&#45;&gt;node_0x55cf41777d70</title>
<path fill="none" stroke="black" d="M523.87,-315.5C523.87,-305.11 523.87,-293.46 523.87,-282.55"/>
<polygon fill="black" stroke="black" points="527.37,-282.39 523.87,-272.39 520.37,-282.39 527.37,-282.39"/>
</g>
<!-- node_0x55cf41777c70 -->
<g id="node23" class="node">
<title>node_0x55cf41777c70</title>
<ellipse fill="#ccffff" stroke="black" cx="483.87" cy="-128.2" rx="26.74" ry="26.74"/>
<text text-anchor="middle" x="483.87" y="-132" font-family="Times,serif" font-size="14.00">[1]</text>
<text text-anchor="middle" x="483.87" y="-117" font-family="Times,serif" font-size="14.00">a</text>
</g>
<!-- node_0x55cf41777d70&#45;&gt;node_0x55cf41777c70 -->
<g id="edge22" class="edge">
<title>node_0x55cf41777d70&#45;&gt;node_0x55cf41777c70</title>
<path fill="none" stroke="black" d="M513.26,-210.68C508.02,-196.15 501.66,-178.54 496.21,-163.41"/>
<polygon fill="black" stroke="black" points="499.46,-162.1 492.77,-153.88 492.87,-164.48 499.46,-162.1"/>
</g>
<!-- node_0x55cf41777d30 -->
<g id="node24" class="node">
<title>node_0x55cf41777d30</title>
<polygon fill="#ffcccc" stroke="black" points="528.7,-116.33 562.87,-89.78 597.04,-116.33 597.01,-159.28 528.73,-159.28 528.7,-116.33"/>
<text text-anchor="middle" x="562.87" y="-133.4" font-family="Times,serif" font-size="16.00">[2]</text>
<text text-anchor="middle" x="562.87" y="-115.4" font-family="Times,serif" font-size="16.00">&#45;</text>
</g>
<!-- node_0x55cf41777d70&#45;&gt;node_0x55cf41777d30 -->
<g id="edge23" class="edge">
<title>node_0x55cf41777d70&#45;&gt;node_0x55cf41777d30</title>
<path fill="none" stroke="black" d="M534.22,-210.68C538.69,-197.98 543.98,-182.92 548.8,-169.22"/>
<polygon fill="black" stroke="black" points="552.19,-170.14 552.2,-159.54 545.58,-167.81 552.19,-170.14"/>
</g>
<!-- node_0x55cf41777cb0 -->
<g id="node25" class="node">
<title>node_0x55cf41777cb0</title>
<ellipse fill="#ccffff" stroke="black" cx="526.87" cy="-26.87" rx="26.74" ry="26.74"/>
<text text-anchor="middle" x="526.87" y="-30.67" font-family="Times,serif" font-size="14.00">[1]</text>
<text text-anchor="middle" x="526.87" y="-15.67" font-family="Times,serif" font-size="14.00">a</text>
</g>
<!-- node_0x55cf41777d30&#45;&gt;node_0x55cf41777cb0 -->
<g id="edge24" class="edge">
<title>node_0x55cf41777d30&#45;&gt;node_0x55cf41777cb0</title>
<path fill="none" stroke="black" d="M552.26,-97.93C548.18,-86.67 543.48,-73.71 539.25,-62.02"/>
<polygon fill="black" stroke="black" points="542.52,-60.78 535.82,-52.57 535.94,-63.16 542.52,-60.78"/>
</g>
<!-- node_0x55cf41777cf0 -->
<g id="node26" class="node">
<title>node_0x55cf41777cf0</title>
<ellipse fill="#ffffcc" stroke="black" cx="598.87" cy="-26.87" rx="26.74" ry="26.74"/>
<text text-anchor="middle" x="598.87" y="-30.67" font-family="Times,serif" font-size="14.00">[1]</text>
<text text-anchor="middle" x="598.87" y="-15.67" font-family="Times,serif" font-size="14.00">1</text>
</g>
<!-- node_0x55cf41777d30&#45;&gt;node_0x55cf41777cf0 -->
<g id="edge25" class="edge">
<title>node_0x55cf41777d30&#45;&gt;node_0x55cf41777cf0</title>
<path fill="none" stroke="black" d="M573.48,-97.93C577.56,-86.67 582.26,-73.71 586.49,-62.02"/>
<polygon fill="black" stroke="black" points="589.8,-63.16 589.92,-52.57 583.22,-60.78 589.8,-63.16"/>
</g>
<!-- node_0x55cf41777ef0 -->
<g id="node28" class="node">
<title>node_0x55cf41777ef0</title>
<polygon fill="#ccccff" stroke="black" points="573.23,-559.04 622.87,-535.94 672.51,-559.04 672.46,-596.41 573.28,-596.41 573.23,-559.04"/>
<text text-anchor="middle" x="622.87" y="-573.17" font-family="Times,serif" font-size="14.00">[2]</text>
<text text-anchor="middle" x="622.87" y="-558.17" font-family="Times,serif" font-size="14.00">EXPR</text>
</g>
<!-- node_0x55cf41777f30&#45;&gt;node_0x55cf41777ef0 -->
<g id="edge27" class="edge">
<title>node_0x55cf41777f30&#45;&gt;node_0x55cf41777ef0</title>
<path fill="none" stroke="black" d="M620.19,-644.66C620.63,-632.46 621.12,-618.88 621.56,-606.7"/>
<polygon fill="black" stroke="black" points="625.07,-606.55 621.93,-596.43 618.07,-606.29 625.07,-606.55"/>
</g>
<!-- node_0x55cf41777eb0 -->
<g id="node29" class="node">
<title>node_0x55cf41777eb0</title>
<ellipse fill="#ccffff" stroke="black" cx="622.87" cy="-456.45" rx="26.74" ry="26.74"/>
<text text-anchor="middle" x="622.87" y="-460.25" font-family="Times,serif" font-size="14.00">[1]</text>
<text text-anchor="middle" x="622.87" y="-445.25" font-family="Times,serif" font-size="14.00">a</text>
</g>
<!-- node_0x55cf41777ef0&#45;&gt;node_0x55cf41777eb0 -->
<g id="edge28" class="edge">
<title>node_0x55cf41777ef0&#45;&gt;node_0x55cf41777eb0</title>
<path fill="none" stroke="black" d="M622.87,-535.99C622.87,-522.64 622.87,-507.12 622.87,-493.42"/>
<polygon fill="black" stroke="black" points="626.37,-493.36 622.87,-483.36 619.37,-493.36 626.37,-493.36"/>
</g>
</g>
</svg>
