<?xml version="1.0" encoding="UTF-8" standalone="no"?>
<!DOCTYPE svg PUBLIC "-//W3C//DTD SVG 1.1//EN"
 "http://www.w3.org/Graphics/SVG/1.1/DTD/svg11.dtd">
<!-- Generated by graphviz version 2.43.0 (0)
 -->
<!-- Title: list Pages: 1 -->
<svg width="295pt" height="605pt"
 viewBox="0.00 0.00 295.48 604.70" xmlns="http://www.w3.org/2000/svg" xmlns:xlink="http://www.w3.org/1999/xlink">
<g id="graph0" class="graph" transform="scale(1 1) rotate(0) translate(4 600.7)">
<title>list</title>
<polygon fill="white" stroke="transparent" points="-4,4 -4,-600.7 291.48,-600.7 291.48,4 -4,4"/>
<!-- node_0x5584b70296b0 -->
<g id="node1" class="node">
<title>node_0x5584b70296b0</title>
<polygon fill="#ffcccc" stroke="black" points="96.48,-566.88 123.48,-551.02 150.48,-566.88 150.46,-592.54 96.51,-592.54 96.48,-566.88"/>
<text text-anchor="middle" x="123.48" y="-570.17" font-family="Times,serif" font-size="16.00">{</text>
</g>
<!-- node_0x5584b70297d0 -->
<g id="node2" class="node">
<title>node_0x5584b70297d0</title>
<polygon fill="#ffcccc" stroke="black" points="96.48,-485.43 123.48,-469.57 150.48,-485.43 150.46,-511.09 96.51,-511.09 96.48,-485.43"/>
<text text-anchor="middle" x="123.48" y="-488.72" font-family="Times,serif" font-size="16.00">;</text>
</g>
<!-- node_0x5584b70296b0&#45;&gt;node_0x5584b70297d0 -->
<g id="edge1" class="edge">
<title>node_0x5584b70296b0&#45;&gt;node_0x5584b70297d0</title>
<path fill="none" stroke="black" d="M123.48,-550.84C123.48,-541.77 123.48,-531.16 123.48,-521.55"/>
<polygon fill="black" stroke="black" points="126.98,-521.27 123.48,-511.27 119.98,-521.27 126.98,-521.27"/>
</g>
<!-- node_0x5584b70297a0 -->
<g id="node3" class="node">
<title>node_0x5584b70297a0</title>
<polygon fill="#ccccff" stroke="black" points="0.02,-405.51 67.48,-393.07 134.95,-405.51 134.89,-425.64 0.08,-425.64 0.02,-405.51"/>
<text text-anchor="middle" x="67.48" y="-407.37" font-family="Times,serif" font-size="14.00">VAR_DEF</text>
</g>
<!-- node_0x5584b70297d0&#45;&gt;node_0x5584b70297a0 -->
<g id="edge2" class="edge">
<title>node_0x5584b70297d0&#45;&gt;node_0x5584b70297a0</title>
<path fill="none" stroke="black" d="M112.42,-475.83C104.08,-464 92.53,-447.61 83.23,-434.41"/>
<polygon fill="black" stroke="black" points="85.84,-432.04 77.21,-425.88 80.12,-436.07 85.84,-432.04"/>
</g>
<!-- node_0x5584b7029980 -->
<g id="node5" class="node">
<title>node_0x5584b7029980</title>
<polygon fill="#ffcccc" stroke="black" points="152.48,-403.98 179.48,-388.12 206.48,-403.98 206.46,-429.64 152.51,-429.64 152.48,-403.98"/>
<text text-anchor="middle" x="179.48" y="-407.27" font-family="Times,serif" font-size="16.00">;</text>
</g>
<!-- node_0x5584b70297d0&#45;&gt;node_0x5584b7029980 -->
<g id="edge4" class="edge">
<title>node_0x5584b70297d0&#45;&gt;node_0x5584b7029980</title>
<path fill="none" stroke="black" d="M134.55,-475.83C142.16,-465.02 152.45,-450.42 161.26,-437.92"/>
<polygon fill="black" stroke="black" points="164.18,-439.86 167.08,-429.67 158.46,-435.83 164.18,-439.86"/>
</g>
<!-- node_0x5584b7029770 -->
<g id="node4" class="node">
<title>node_0x5584b7029770</title>
<ellipse fill="#ccffff" stroke="black" cx="67.48" cy="-334.35" rx="18" ry="18"/>
<text text-anchor="middle" x="67.48" y="-330.65" font-family="Times,serif" font-size="14.00">x</text>
</g>
<!-- node_0x5584b70297a0&#45;&gt;node_0x5584b7029770 -->
<g id="edge3" class="edge">
<title>node_0x5584b70297a0&#45;&gt;node_0x5584b7029770</title>
<path fill="none" stroke="black" d="M67.48,-392.74C67.48,-383.88 67.48,-372.88 67.48,-362.88"/>
<polygon fill="black" stroke="black" points="70.98,-362.59 67.48,-352.59 63.98,-362.59 70.98,-362.59"/>
</g>
<!-- node_0x5584b7029950 -->
<g id="node6" class="node">
<title>node_0x5584b7029950</title>
<polygon fill="#ccccff" stroke="black" points="133.9,-328.79 179.48,-316.35 225.07,-328.79 225.03,-348.91 133.94,-348.91 133.9,-328.79"/>
<text text-anchor="middle" x="179.48" y="-330.65" font-family="Times,serif" font-size="14.00">EXPR</text>
</g>
<!-- node_0x5584b7029980&#45;&gt;node_0x5584b7029950 -->
<g id="edge5" class="edge">
<title>node_0x5584b7029980&#45;&gt;node_0x5584b7029950</title>
<path fill="none" stroke="black" d="M179.48,-388.06C179.48,-379.02 179.48,-368.54 179.48,-359.31"/>
<polygon fill="black" stroke="black" points="182.98,-359.22 179.48,-349.22 175.98,-359.22 182.98,-359.22"/>
</g>
<!-- node_0x5584b7029920 -->
<g id="node7" class="node">
<title>node_0x5584b7029920</title>
<polygon fill="#ffcccc" stroke="black" points="152.48,-250.53 179.48,-234.67 206.48,-250.53 206.46,-276.19 152.51,-276.19 152.48,-250.53"/>
<text text-anchor="middle" x="179.48" y="-253.82" font-family="Times,serif" font-size="16.00">=</text>
</g>
<!-- node_0x5584b7029950&#45;&gt;node_0x5584b7029920 -->
<g id="edge6" class="edge">
<title>node_0x5584b7029950&#45;&gt;node_0x5584b7029920</title>
<path fill="none" stroke="black" d="M179.48,-316.02C179.48,-307.28 179.48,-296.46 179.48,-286.59"/>
<polygon fill="black" stroke="black" points="182.98,-286.38 179.48,-276.38 175.98,-286.38 182.98,-286.38"/>
</g>
<!-- node_0x5584b7029800 -->
<g id="node8" class="node">
<title>node_0x5584b7029800</title>
<ellipse fill="#ccffff" stroke="black" cx="148.48" cy="-176.17" rx="18" ry="18"/>
<text text-anchor="middle" x="148.48" y="-172.47" font-family="Times,serif" font-size="14.00">x</text>
</g>
<!-- node_0x5584b7029920&#45;&gt;node_0x5584b7029800 -->
<g id="edge7" class="edge">
<title>node_0x5584b7029920&#45;&gt;node_0x5584b7029800</title>
<path fill="none" stroke="black" d="M172.45,-238.6C168.33,-228.04 163.06,-214.54 158.52,-202.89"/>
<polygon fill="black" stroke="black" points="161.65,-201.29 154.75,-193.24 155.13,-203.83 161.65,-201.29"/>
</g>
<!-- node_0x5584b70298f0 -->
<g id="node9" class="node">
<title>node_0x5584b70298f0</title>
<polygon fill="#ffcccc" stroke="black" points="184.48,-169.08 211.48,-153.22 238.48,-169.08 238.46,-194.74 184.51,-194.74 184.48,-169.08"/>
<text text-anchor="middle" x="211.48" y="-172.37" font-family="Times,serif" font-size="16.00">+</text>
</g>
<!-- node_0x5584b7029920&#45;&gt;node_0x5584b70298f0 -->
<g id="edge8" class="edge">
<title>node_0x5584b7029920&#45;&gt;node_0x5584b70298f0</title>
<path fill="none" stroke="black" d="M186.74,-238.6C190.82,-228.47 196,-215.63 200.55,-204.31"/>
<polygon fill="black" stroke="black" points="203.87,-205.44 204.36,-194.86 197.38,-202.83 203.87,-205.44"/>
</g>
<!-- node_0x5584b7029830 -->
<g id="node10" class="node">
<title>node_0x5584b7029830</title>
<ellipse fill="#ffffcc" stroke="black" cx="179.48" cy="-94.72" rx="18" ry="18"/>
<text text-anchor="middle" x="179.48" y="-91.02" font-family="Times,serif" font-size="14.00">5</text>
</g>
<!-- node_0x5584b70298f0&#45;&gt;node_0x5584b7029830 -->
<g id="edge9" class="edge">
<title>node_0x5584b70298f0&#45;&gt;node_0x5584b7029830</title>
<path fill="none" stroke="black" d="M204.22,-157.15C199.93,-146.49 194.43,-132.82 189.7,-121.09"/>
<polygon fill="black" stroke="black" points="192.94,-119.76 185.96,-111.8 186.45,-122.38 192.94,-119.76"/>
</g>
<!-- node_0x5584b70298c0 -->
<g id="node11" class="node">
<title>node_0x5584b70298c0</title>
<polygon fill="#ffcccc" stroke="black" points="215.48,-87.63 242.48,-71.77 269.48,-87.63 269.46,-113.29 215.51,-113.29 215.48,-87.63"/>
<text text-anchor="middle" x="242.48" y="-90.92" font-family="Times,serif" font-size="16.00">*</text>
</g>
<!-- node_0x5584b70298f0&#45;&gt;node_0x5584b70298c0 -->
<g id="edge10" class="edge">
<title>node_0x5584b70298f0&#45;&gt;node_0x5584b70298c0</title>
<path fill="none" stroke="black" d="M218.52,-157.15C222.47,-147.02 227.48,-134.18 231.9,-122.86"/>
<polygon fill="black" stroke="black" points="235.21,-124 235.58,-113.41 228.69,-121.45 235.21,-124"/>
</g>
<!-- node_0x5584b7029860 -->
<g id="node12" class="node">
<title>node_0x5584b7029860</title>
<ellipse fill="#ffffcc" stroke="black" cx="215.48" cy="-18" rx="18" ry="18"/>
<text text-anchor="middle" x="215.48" y="-14.3" font-family="Times,serif" font-size="14.00">7</text>
</g>
<!-- node_0x5584b70298c0&#45;&gt;node_0x5584b7029860 -->
<g id="edge11" class="edge">
<title>node_0x5584b70298c0&#45;&gt;node_0x5584b7029860</title>
<path fill="none" stroke="black" d="M235.81,-75.25C232.48,-66.05 228.41,-54.77 224.78,-44.73"/>
<polygon fill="black" stroke="black" points="228.04,-43.44 221.35,-35.23 221.45,-45.82 228.04,-43.44"/>
</g>
<!-- node_0x5584b7029890 -->
<g id="node13" class="node">
<title>node_0x5584b7029890</title>
<ellipse fill="#ffffcc" stroke="black" cx="269.48" cy="-18" rx="18" ry="18"/>
<text text-anchor="middle" x="269.48" y="-14.3" font-family="Times,serif" font-size="14.00">9</text>
</g>
<!-- node_0x5584b70298c0&#45;&gt;node_0x5584b7029890 -->
<g id="edge12" class="edge">
<title>node_0x5584b70298c0&#45;&gt;node_0x5584b7029890</title>
<path fill="none" stroke="black" d="M249.16,-75.25C252.48,-66.05 256.56,-54.77 260.19,-44.73"/>
<polygon fill="black" stroke="black" points="263.51,-45.82 263.62,-35.23 256.93,-43.44 263.51,-45.82"/>
</g>
</g>
</svg>
