<?xml version="1.0" encoding="UTF-8" standalone="no"?>
<!DOCTYPE svg PUBLIC "-//W3C//DTD SVG 1.1//EN"
 "http://www.w3.org/Graphics/SVG/1.1/DTD/svg11.dtd">
<!-- Generated by graphviz version 2.43.0 (0)
 -->
<!-- Title: list Pages: 1 -->
<svg width="797pt" height="962pt"
 viewBox="0.00 0.00 796.89 962.14" xmlns="http://www.w3.org/2000/svg" xmlns:xlink="http://www.w3.org/1999/xlink">
<g id="graph0" class="graph" transform="scale(1 1) rotate(0) translate(4 958.14)">
<title>list</title>
<polygon fill="white" stroke="transparent" points="-4,4 -4,-958.14 792.89,-958.14 792.89,4 -4,4"/>
<!-- node_0x55a72d2fc660 -->
<g id="node1" class="node">
<title>node_0x55a72d2fc660</title>
<polygon fill="#ffcccc" stroke="black" points="410.1,-924.32 437.1,-908.46 464.1,-924.32 464.07,-949.98 410.12,-949.98 410.1,-924.32"/>
<text text-anchor="middle" x="437.1" y="-927.61" font-family="Times,serif" font-size="16.00">{</text>
</g>
<!-- node_0x55a72d2fccc0 -->
<g id="node2" class="node">
<title>node_0x55a72d2fccc0</title>
<polygon fill="#ffcccc" stroke="black" points="410.1,-842.87 437.1,-827.01 464.1,-842.87 464.07,-868.53 410.12,-868.53 410.1,-842.87"/>
<text text-anchor="middle" x="437.1" y="-846.16" font-family="Times,serif" font-size="16.00">;</text>
</g>
<!-- node_0x55a72d2fc660&#45;&gt;node_0x55a72d2fccc0 -->
<g id="edge1" class="edge">
<title>node_0x55a72d2fc660&#45;&gt;node_0x55a72d2fccc0</title>
<path fill="none" stroke="black" d="M437.1,-908.28C437.1,-899.21 437.1,-888.6 437.1,-878.99"/>
<polygon fill="black" stroke="black" points="440.6,-878.71 437.1,-868.71 433.6,-878.71 440.6,-878.71"/>
</g>
<!-- node_0x55a72d2fcc90 -->
<g id="node3" class="node">
<title>node_0x55a72d2fcc90</title>
<polygon fill="#ccccff" stroke="black" points="283.46,-762.95 371.1,-750.51 458.73,-762.95 458.65,-783.08 283.54,-783.08 283.46,-762.95"/>
<text text-anchor="middle" x="371.1" y="-764.81" font-family="Times,serif" font-size="14.00">FUNC_DECL</text>
</g>
<!-- node_0x55a72d2fccc0&#45;&gt;node_0x55a72d2fcc90 -->
<g id="edge2" class="edge">
<title>node_0x55a72d2fccc0&#45;&gt;node_0x55a72d2fcc90</title>
<path fill="none" stroke="black" d="M424.68,-834.02C414.66,-821.96 400.43,-804.82 389.15,-791.24"/>
<polygon fill="black" stroke="black" points="391.65,-788.78 382.57,-783.33 386.27,-793.25 391.65,-788.78"/>
</g>
<!-- node_0x55a72d2fcd50 -->
<g id="node29" class="node">
<title>node_0x55a72d2fcd50</title>
<polygon fill="#ffcccc" stroke="black" points="477.1,-761.42 504.1,-745.56 531.1,-761.42 531.07,-787.08 477.12,-787.08 477.1,-761.42"/>
<text text-anchor="middle" x="504.1" y="-764.71" font-family="Times,serif" font-size="16.00">;</text>
</g>
<!-- node_0x55a72d2fccc0&#45;&gt;node_0x55a72d2fcd50 -->
<g id="edge28" class="edge">
<title>node_0x55a72d2fccc0&#45;&gt;node_0x55a72d2fcd50</title>
<path fill="none" stroke="black" d="M449.7,-834.02C458.99,-823 471.85,-807.75 482.74,-794.84"/>
<polygon fill="black" stroke="black" points="485.44,-797.06 489.21,-787.16 480.09,-792.55 485.44,-797.06"/>
</g>
<!-- node_0x55a72d2fc6f0 -->
<g id="node4" class="node">
<title>node_0x55a72d2fc6f0</title>
<polygon fill="#ccccff" stroke="black" points="176.78,-681.5 262.1,-669.06 347.41,-681.5 347.33,-701.63 176.86,-701.63 176.78,-681.5"/>
<text text-anchor="middle" x="262.1" y="-683.36" font-family="Times,serif" font-size="14.00">FUNC_INFO</text>
</g>
<!-- node_0x55a72d2fcc90&#45;&gt;node_0x55a72d2fc6f0 -->
<g id="edge3" class="edge">
<title>node_0x55a72d2fcc90&#45;&gt;node_0x55a72d2fc6f0</title>
<path fill="none" stroke="black" d="M351.36,-753.13C333.93,-740.43 308.38,-721.8 289.07,-707.73"/>
<polygon fill="black" stroke="black" points="291.1,-704.87 280.96,-701.81 286.98,-710.53 291.1,-704.87"/>
</g>
<!-- node_0x55a72d2fc720 -->
<g id="node7" class="node">
<title>node_0x55a72d2fc720</title>
<polygon fill="#ffcccc" stroke="black" points="365.1,-679.97 392.1,-664.11 419.1,-679.97 419.07,-705.63 365.12,-705.63 365.1,-679.97"/>
<text text-anchor="middle" x="392.1" y="-683.26" font-family="Times,serif" font-size="16.00">{</text>
</g>
<!-- node_0x55a72d2fcc90&#45;&gt;node_0x55a72d2fc720 -->
<g id="edge6" class="edge">
<title>node_0x55a72d2fcc90&#45;&gt;node_0x55a72d2fc720</title>
<path fill="none" stroke="black" d="M375.45,-751.05C378.14,-740.86 381.67,-727.51 384.79,-715.72"/>
<polygon fill="black" stroke="black" points="388.21,-716.45 387.39,-705.89 381.45,-714.66 388.21,-716.45"/>
</g>
<!-- node_0x55a72d2fc6c0 -->
<g id="node5" class="node">
<title>node_0x55a72d2fc6c0</title>
<polygon fill="#ccccff" stroke="black" points="-0.1,-588.98 118.1,-576.54 236.29,-588.98 236.18,-609.1 0.01,-609.1 -0.1,-588.98"/>
<text text-anchor="middle" x="118.1" y="-590.84" font-family="Times,serif" font-size="14.00">FUNC_ARG_DECL</text>
</g>
<!-- node_0x55a72d2fc6f0&#45;&gt;node_0x55a72d2fc6c0 -->
<g id="edge4" class="edge">
<title>node_0x55a72d2fc6f0&#45;&gt;node_0x55a72d2fc6c0</title>
<path fill="none" stroke="black" d="M239.91,-672.12C215.53,-656.79 176.2,-632.06 148.85,-614.87"/>
<polygon fill="black" stroke="black" points="150.4,-611.71 140.07,-609.35 146.67,-617.64 150.4,-611.71"/>
</g>
<!-- node_0x55a72d2fc690 -->
<g id="node6" class="node">
<title>node_0x55a72d2fc690</title>
<ellipse fill="#ccffff" stroke="black" cx="288.1" cy="-594.54" rx="33.6" ry="33.6"/>
<text text-anchor="middle" x="288.1" y="-590.84" font-family="Times,serif" font-size="14.00">main</text>
</g>
<!-- node_0x55a72d2fc6f0&#45;&gt;node_0x55a72d2fc690 -->
<g id="edge5" class="edge">
<title>node_0x55a72d2fc6f0&#45;&gt;node_0x55a72d2fc690</title>
<path fill="none" stroke="black" d="M266.86,-669.46C269.47,-660.38 272.83,-648.69 276.1,-637.29"/>
<polygon fill="black" stroke="black" points="279.54,-638.01 278.94,-627.43 272.81,-636.07 279.54,-638.01"/>
</g>
<!-- node_0x55a72d2fc870 -->
<g id="node8" class="node">
<title>node_0x55a72d2fc870</title>
<polygon fill="#ffcccc" stroke="black" points="365.1,-587.45 392.1,-571.59 419.1,-587.45 419.07,-613.11 365.12,-613.11 365.1,-587.45"/>
<text text-anchor="middle" x="392.1" y="-590.74" font-family="Times,serif" font-size="16.00">;</text>
</g>
<!-- node_0x55a72d2fc720&#45;&gt;node_0x55a72d2fc870 -->
<g id="edge7" class="edge">
<title>node_0x55a72d2fc720&#45;&gt;node_0x55a72d2fc870</title>
<path fill="none" stroke="black" d="M392.1,-664.15C392.1,-651.97 392.1,-636.68 392.1,-623.63"/>
<polygon fill="black" stroke="black" points="395.6,-623.31 392.1,-613.31 388.6,-623.31 395.6,-623.31"/>
</g>
<!-- node_0x55a72d2fc810 -->
<g id="node9" class="node">
<title>node_0x55a72d2fc810</title>
<polygon fill="#ccccff" stroke="black" points="268.63,-496.46 336.1,-484.02 403.56,-496.46 403.5,-516.58 268.69,-516.58 268.63,-496.46"/>
<text text-anchor="middle" x="336.1" y="-498.32" font-family="Times,serif" font-size="14.00">VAR_DEF</text>
</g>
<!-- node_0x55a72d2fc870&#45;&gt;node_0x55a72d2fc810 -->
<g id="edge8" class="edge">
<title>node_0x55a72d2fc870&#45;&gt;node_0x55a72d2fc810</title>
<path fill="none" stroke="black" d="M382.08,-577.36C373.14,-562.9 359.96,-541.59 349.99,-525.49"/>
<polygon fill="black" stroke="black" points="352.79,-523.36 344.56,-516.7 346.84,-527.04 352.79,-523.36"/>
</g>
<!-- node_0x55a72d2fc9c0 -->
<g id="node12" class="node">
<title>node_0x55a72d2fc9c0</title>
<polygon fill="#ffcccc" stroke="black" points="421.1,-494.93 448.1,-479.07 475.1,-494.93 475.07,-520.59 421.12,-520.59 421.1,-494.93"/>
<text text-anchor="middle" x="448.1" y="-498.22" font-family="Times,serif" font-size="16.00">;</text>
</g>
<!-- node_0x55a72d2fc870&#45;&gt;node_0x55a72d2fc9c0 -->
<g id="edge11" class="edge">
<title>node_0x55a72d2fc870&#45;&gt;node_0x55a72d2fc9c0</title>
<path fill="none" stroke="black" d="M402.11,-577.36C410.37,-564.01 422.24,-544.81 431.86,-529.27"/>
<polygon fill="black" stroke="black" points="434.93,-530.95 437.21,-520.61 428.98,-527.27 434.93,-530.95"/>
</g>
<!-- node_0x55a72d2fc7e0 -->
<g id="node10" class="node">
<title>node_0x55a72d2fc7e0</title>
<ellipse fill="#ccffff" stroke="black" cx="285.1" cy="-420.57" rx="18" ry="18"/>
<text text-anchor="middle" x="285.1" y="-416.87" font-family="Times,serif" font-size="14.00">a</text>
</g>
<!-- node_0x55a72d2fc810&#45;&gt;node_0x55a72d2fc7e0 -->
<g id="edge9" class="edge">
<title>node_0x55a72d2fc810&#45;&gt;node_0x55a72d2fc7e0</title>
<path fill="none" stroke="black" d="M326.26,-485.7C318.78,-474.05 308.37,-457.83 299.89,-444.61"/>
<polygon fill="black" stroke="black" points="302.73,-442.56 294.38,-436.04 296.84,-446.34 302.73,-442.56"/>
</g>
<!-- node_0x55a72d2fc840 -->
<g id="node11" class="node">
<title>node_0x55a72d2fc840</title>
<ellipse fill="#ffffcc" stroke="black" cx="339.1" cy="-420.57" rx="18" ry="18"/>
<text text-anchor="middle" x="339.1" y="-416.87" font-family="Times,serif" font-size="14.00">5</text>
</g>
<!-- node_0x55a72d2fc810&#45;&gt;node_0x55a72d2fc840 -->
<g id="edge10" class="edge">
<title>node_0x55a72d2fc810&#45;&gt;node_0x55a72d2fc840</title>
<path fill="none" stroke="black" d="M336.75,-483.78C337.13,-473.58 337.63,-460.42 338.07,-448.84"/>
<polygon fill="black" stroke="black" points="341.57,-448.9 338.45,-438.78 334.57,-448.64 341.57,-448.9"/>
</g>
<!-- node_0x55a72d2fc960 -->
<g id="node13" class="node">
<title>node_0x55a72d2fc960</title>
<polygon fill="#ccccff" stroke="black" points="378.63,-415.01 446.1,-402.57 513.56,-415.01 513.5,-435.13 378.69,-435.13 378.63,-415.01"/>
<text text-anchor="middle" x="446.1" y="-416.87" font-family="Times,serif" font-size="14.00">VAR_DEF</text>
</g>
<!-- node_0x55a72d2fc9c0&#45;&gt;node_0x55a72d2fc960 -->
<g id="edge12" class="edge">
<title>node_0x55a72d2fc9c0&#45;&gt;node_0x55a72d2fc960</title>
<path fill="none" stroke="black" d="M447.55,-479.31C447.29,-468.94 446.98,-456.5 446.71,-445.82"/>
<polygon fill="black" stroke="black" points="450.2,-445.41 446.45,-435.5 443.2,-445.58 450.2,-445.41"/>
</g>
<!-- node_0x55a72d2fca80 -->
<g id="node16" class="node">
<title>node_0x55a72d2fca80</title>
<polygon fill="#ffcccc" stroke="black" points="531.1,-413.48 558.1,-397.62 585.1,-413.48 585.07,-439.14 531.12,-439.14 531.1,-413.48"/>
<text text-anchor="middle" x="558.1" y="-416.77" font-family="Times,serif" font-size="16.00">;</text>
</g>
<!-- node_0x55a72d2fc9c0&#45;&gt;node_0x55a72d2fca80 -->
<g id="edge15" class="edge">
<title>node_0x55a72d2fc9c0&#45;&gt;node_0x55a72d2fca80</title>
<path fill="none" stroke="black" d="M465.28,-488.61C481.36,-477 505.78,-459.36 525.54,-445.08"/>
<polygon fill="black" stroke="black" points="527.63,-447.89 533.68,-439.2 523.53,-442.22 527.63,-447.89"/>
</g>
<!-- node_0x55a72d2fc930 -->
<g id="node14" class="node">
<title>node_0x55a72d2fc930</title>
<ellipse fill="#ccffff" stroke="black" cx="394.1" cy="-339.12" rx="18" ry="18"/>
<text text-anchor="middle" x="394.1" y="-335.42" font-family="Times,serif" font-size="14.00">b</text>
</g>
<!-- node_0x55a72d2fc960&#45;&gt;node_0x55a72d2fc930 -->
<g id="edge13" class="edge">
<title>node_0x55a72d2fc960&#45;&gt;node_0x55a72d2fc930</title>
<path fill="none" stroke="black" d="M436.07,-404.25C428.44,-392.6 417.83,-376.38 409.18,-363.16"/>
<polygon fill="black" stroke="black" points="411.97,-361.04 403.57,-354.59 406.11,-364.87 411.97,-361.04"/>
</g>
<!-- node_0x55a72d2fc990 -->
<g id="node15" class="node">
<title>node_0x55a72d2fc990</title>
<ellipse fill="#ffffcc" stroke="black" cx="448.1" cy="-339.12" rx="18" ry="18"/>
<text text-anchor="middle" x="448.1" y="-335.42" font-family="Times,serif" font-size="14.00">7</text>
</g>
<!-- node_0x55a72d2fc960&#45;&gt;node_0x55a72d2fc990 -->
<g id="edge14" class="edge">
<title>node_0x55a72d2fc960&#45;&gt;node_0x55a72d2fc990</title>
<path fill="none" stroke="black" d="M446.53,-402.33C446.79,-392.13 447.12,-378.97 447.41,-367.39"/>
<polygon fill="black" stroke="black" points="450.91,-367.41 447.66,-357.33 443.91,-367.23 450.91,-367.41"/>
</g>
<!-- node_0x55a72d2fca20 -->
<g id="node17" class="node">
<title>node_0x55a72d2fca20</title>
<polygon fill="#ccccff" stroke="black" points="487.63,-333.56 555.1,-321.12 622.56,-333.56 622.5,-353.68 487.69,-353.68 487.63,-333.56"/>
<text text-anchor="middle" x="555.1" y="-335.42" font-family="Times,serif" font-size="14.00">VAR_DEF</text>
</g>
<!-- node_0x55a72d2fca80&#45;&gt;node_0x55a72d2fca20 -->
<g id="edge16" class="edge">
<title>node_0x55a72d2fca80&#45;&gt;node_0x55a72d2fca20</title>
<path fill="none" stroke="black" d="M557.28,-397.86C556.88,-387.49 556.41,-375.05 556.01,-364.37"/>
<polygon fill="black" stroke="black" points="559.5,-363.91 555.62,-354.05 552.5,-364.18 559.5,-363.91"/>
</g>
<!-- node_0x55a72d2fcbd0 -->
<g id="node19" class="node">
<title>node_0x55a72d2fcbd0</title>
<polygon fill="#ffcccc" stroke="black" points="640.1,-332.03 667.1,-316.17 694.1,-332.03 694.07,-357.69 640.12,-357.69 640.1,-332.03"/>
<text text-anchor="middle" x="667.1" y="-335.32" font-family="Times,serif" font-size="16.00">;</text>
</g>
<!-- node_0x55a72d2fca80&#45;&gt;node_0x55a72d2fcbd0 -->
<g id="edge18" class="edge">
<title>node_0x55a72d2fca80&#45;&gt;node_0x55a72d2fcbd0</title>
<path fill="none" stroke="black" d="M575.13,-407.16C590.98,-395.6 615.04,-378.06 634.57,-363.83"/>
<polygon fill="black" stroke="black" points="636.89,-366.47 642.91,-357.75 632.76,-360.81 636.89,-366.47"/>
</g>
<!-- node_0x55a72d2fca50 -->
<g id="node18" class="node">
<title>node_0x55a72d2fca50</title>
<ellipse fill="#ccffff" stroke="black" cx="555.1" cy="-257.67" rx="18" ry="18"/>
<text text-anchor="middle" x="555.1" y="-253.97" font-family="Times,serif" font-size="14.00">c</text>
</g>
<!-- node_0x55a72d2fca20&#45;&gt;node_0x55a72d2fca50 -->
<g id="edge17" class="edge">
<title>node_0x55a72d2fca20&#45;&gt;node_0x55a72d2fca50</title>
<path fill="none" stroke="black" d="M555.1,-320.88C555.1,-310.68 555.1,-297.52 555.1,-285.94"/>
<polygon fill="black" stroke="black" points="558.6,-285.88 555.1,-275.88 551.6,-285.88 558.6,-285.88"/>
</g>
<!-- node_0x55a72d2fcba0 -->
<g id="node20" class="node">
<title>node_0x55a72d2fcba0</title>
<polygon fill="#ccccff" stroke="black" points="606.51,-252.11 652.1,-239.67 697.68,-252.11 697.64,-272.23 606.55,-272.23 606.51,-252.11"/>
<text text-anchor="middle" x="652.1" y="-253.97" font-family="Times,serif" font-size="14.00">EXPR</text>
</g>
<!-- node_0x55a72d2fcbd0&#45;&gt;node_0x55a72d2fcba0 -->
<g id="edge19" class="edge">
<title>node_0x55a72d2fcbd0&#45;&gt;node_0x55a72d2fcba0</title>
<path fill="none" stroke="black" d="M663.31,-318.07C661.28,-307.34 658.78,-294.05 656.64,-282.76"/>
<polygon fill="black" stroke="black" points="660.04,-281.88 654.75,-272.7 653.16,-283.18 660.04,-281.88"/>
</g>
<!-- node_0x55a72d2fcc60 -->
<g id="node26" class="node">
<title>node_0x55a72d2fcc60</title>
<polygon fill="#ffcccc" stroke="black" points="716.1,-250.58 743.1,-234.72 770.1,-250.58 770.07,-276.24 716.12,-276.24 716.1,-250.58"/>
<text text-anchor="middle" x="743.1" y="-253.87" font-family="Times,serif" font-size="16.00">;</text>
</g>
<!-- node_0x55a72d2fcbd0&#45;&gt;node_0x55a72d2fcc60 -->
<g id="edge25" class="edge">
<title>node_0x55a72d2fcbd0&#45;&gt;node_0x55a72d2fcc60</title>
<path fill="none" stroke="black" d="M680.68,-323.92C691.32,-312.8 706.38,-297.05 719.04,-283.82"/>
<polygon fill="black" stroke="black" points="721.79,-286.01 726.17,-276.37 716.73,-281.17 721.79,-286.01"/>
</g>
<!-- node_0x55a72d2fcb70 -->
<g id="node21" class="node">
<title>node_0x55a72d2fcb70</title>
<polygon fill="#ffcccc" stroke="black" points="625.1,-169.13 652.1,-153.27 679.1,-169.13 679.07,-194.79 625.12,-194.79 625.1,-169.13"/>
<text text-anchor="middle" x="652.1" y="-172.42" font-family="Times,serif" font-size="16.00">=</text>
</g>
<!-- node_0x55a72d2fcba0&#45;&gt;node_0x55a72d2fcb70 -->
<g id="edge20" class="edge">
<title>node_0x55a72d2fcba0&#45;&gt;node_0x55a72d2fcb70</title>
<path fill="none" stroke="black" d="M652.1,-239.43C652.1,-229.47 652.1,-216.7 652.1,-205.32"/>
<polygon fill="black" stroke="black" points="655.6,-204.98 652.1,-194.98 648.6,-204.98 655.6,-204.98"/>
</g>
<!-- node_0x55a72d2fcab0 -->
<g id="node22" class="node">
<title>node_0x55a72d2fcab0</title>
<ellipse fill="#ccffff" stroke="black" cx="601.1" cy="-94.75" rx="18" ry="18"/>
<text text-anchor="middle" x="601.1" y="-91.05" font-family="Times,serif" font-size="14.00">c</text>
</g>
<!-- node_0x55a72d2fcb70&#45;&gt;node_0x55a72d2fcab0 -->
<g id="edge21" class="edge">
<title>node_0x55a72d2fcb70&#45;&gt;node_0x55a72d2fcab0</title>
<path fill="none" stroke="black" d="M641.78,-159.14C634.3,-147.49 624.09,-131.59 615.77,-118.62"/>
<polygon fill="black" stroke="black" points="618.72,-116.73 610.37,-110.2 612.83,-120.51 618.72,-116.73"/>
</g>
<!-- node_0x55a72d2fcb40 -->
<g id="node23" class="node">
<title>node_0x55a72d2fcb40</title>
<polygon fill="#ffcccc" stroke="black" points="637.1,-87.66 664.1,-71.8 691.1,-87.66 691.07,-113.32 637.12,-113.32 637.1,-87.66"/>
<text text-anchor="middle" x="664.1" y="-90.95" font-family="Times,serif" font-size="16.00">+</text>
</g>
<!-- node_0x55a72d2fcb70&#45;&gt;node_0x55a72d2fcb40 -->
<g id="edge22" class="edge">
<title>node_0x55a72d2fcb70&#45;&gt;node_0x55a72d2fcb40</title>
<path fill="none" stroke="black" d="M655.19,-154.75C656.62,-145.27 658.34,-133.84 659.89,-123.58"/>
<polygon fill="black" stroke="black" points="663.39,-123.86 661.42,-113.45 656.47,-122.81 663.39,-123.86"/>
</g>
<!-- node_0x55a72d2fcae0 -->
<g id="node24" class="node">
<title>node_0x55a72d2fcae0</title>
<ellipse fill="#ccffff" stroke="black" cx="637.1" cy="-18" rx="18" ry="18"/>
<text text-anchor="middle" x="637.1" y="-14.3" font-family="Times,serif" font-size="14.00">a</text>
</g>
<!-- node_0x55a72d2fcb40&#45;&gt;node_0x55a72d2fcae0 -->
<g id="edge23" class="edge">
<title>node_0x55a72d2fcb40&#45;&gt;node_0x55a72d2fcae0</title>
<path fill="none" stroke="black" d="M657.42,-75.27C654.1,-66.06 650.02,-54.78 646.39,-44.74"/>
<polygon fill="black" stroke="black" points="649.65,-43.45 642.96,-35.23 643.07,-45.83 649.65,-43.45"/>
</g>
<!-- node_0x55a72d2fcb10 -->
<g id="node25" class="node">
<title>node_0x55a72d2fcb10</title>
<ellipse fill="#ccffff" stroke="black" cx="691.1" cy="-18" rx="18" ry="18"/>
<text text-anchor="middle" x="691.1" y="-14.3" font-family="Times,serif" font-size="14.00">b</text>
</g>
<!-- node_0x55a72d2fcb40&#45;&gt;node_0x55a72d2fcb10 -->
<g id="edge24" class="edge">
<title>node_0x55a72d2fcb40&#45;&gt;node_0x55a72d2fcb10</title>
<path fill="none" stroke="black" d="M670.77,-75.27C674.1,-66.06 678.17,-54.78 681.8,-44.74"/>
<polygon fill="black" stroke="black" points="685.13,-45.83 685.23,-35.23 678.54,-43.45 685.13,-45.83"/>
</g>
<!-- node_0x55a72d2fcc30 -->
<g id="node27" class="node">
<title>node_0x55a72d2fcc30</title>
<polygon fill="#ccccff" stroke="black" points="697.51,-170.66 743.1,-158.22 788.68,-170.66 788.64,-190.78 697.55,-190.78 697.51,-170.66"/>
<text text-anchor="middle" x="743.1" y="-172.52" font-family="Times,serif" font-size="14.00">EXPR</text>
</g>
<!-- node_0x55a72d2fcc60&#45;&gt;node_0x55a72d2fcc30 -->
<g id="edge26" class="edge">
<title>node_0x55a72d2fcc60&#45;&gt;node_0x55a72d2fcc30</title>
<path fill="none" stroke="black" d="M743.1,-234.54C743.1,-224.18 743.1,-211.82 743.1,-201.23"/>
<polygon fill="black" stroke="black" points="746.6,-201 743.1,-191 739.6,-201 746.6,-201"/>
</g>
<!-- node_0x55a72d2fcc00 -->
<g id="node28" class="node">
<title>node_0x55a72d2fcc00</title>
<ellipse fill="#ffffcc" stroke="black" cx="743.1" cy="-94.75" rx="23" ry="23"/>
<text text-anchor="middle" x="743.1" y="-91.05" font-family="Times,serif" font-size="14.00">10</text>
</g>
<!-- node_0x55a72d2fcc30&#45;&gt;node_0x55a72d2fcc00 -->
<g id="edge27" class="edge">
<title>node_0x55a72d2fcc30&#45;&gt;node_0x55a72d2fcc00</title>
<path fill="none" stroke="black" d="M743.1,-157.98C743.1,-149.07 743.1,-137.93 743.1,-127.54"/>
<polygon fill="black" stroke="black" points="746.6,-127.51 743.1,-117.51 739.6,-127.51 746.6,-127.51"/>
</g>
<!-- node_0x55a72d2fcd20 -->
<g id="node30" class="node">
<title>node_0x55a72d2fcd20</title>
<polygon fill="#ccccff" stroke="black" points="458.51,-681.5 504.1,-669.06 549.68,-681.5 549.64,-701.63 458.55,-701.63 458.51,-681.5"/>
<text text-anchor="middle" x="504.1" y="-683.36" font-family="Times,serif" font-size="14.00">EXPR</text>
</g>
<!-- node_0x55a72d2fcd50&#45;&gt;node_0x55a72d2fcd20 -->
<g id="edge29" class="edge">
<title>node_0x55a72d2fcd50&#45;&gt;node_0x55a72d2fcd20</title>
<path fill="none" stroke="black" d="M504.1,-745.38C504.1,-735.02 504.1,-722.66 504.1,-712.08"/>
<polygon fill="black" stroke="black" points="507.6,-711.85 504.1,-701.85 500.6,-711.85 507.6,-711.85"/>
</g>
<!-- node_0x55a72d2fccf0 -->
<g id="node31" class="node">
<title>node_0x55a72d2fccf0</title>
<ellipse fill="#ccffff" stroke="black" cx="504.1" cy="-594.54" rx="33.6" ry="33.6"/>
<text text-anchor="middle" x="504.1" y="-590.84" font-family="Times,serif" font-size="14.00">main</text>
</g>
<!-- node_0x55a72d2fcd20&#45;&gt;node_0x55a72d2fccf0 -->
<g id="edge30" class="edge">
<title>node_0x55a72d2fcd20&#45;&gt;node_0x55a72d2fccf0</title>
<path fill="none" stroke="black" d="M504.1,-669.04C504.1,-660.42 504.1,-649.53 504.1,-638.79"/>
<polygon fill="black" stroke="black" points="507.6,-638.62 504.1,-628.62 500.6,-638.62 507.6,-638.62"/>
</g>
</g>
</svg>
