<?xml version="1.0" encoding="UTF-8" standalone="no"?>
<!DOCTYPE svg PUBLIC "-//W3C//DTD SVG 1.1//EN"
 "http://www.w3.org/Graphics/SVG/1.1/DTD/svg11.dtd">
<!-- Generated by graphviz version 2.43.0 (0)
 -->
<!-- Title: list Pages: 1 -->
<svg width="382pt" height="1012pt"
 viewBox="0.00 0.00 381.75 1012.32" xmlns="http://www.w3.org/2000/svg" xmlns:xlink="http://www.w3.org/1999/xlink">
<g id="graph0" class="graph" transform="scale(1 1) rotate(0) translate(4 1008.32)">
<title>list</title>
<polygon fill="white" stroke="transparent" points="-4,4 -4,-1008.32 377.75,-1008.32 377.75,4 -4,4"/>
<!-- node_0x5611267ae6c0 -->
<g id="node1" class="node">
<title>node_0x5611267ae6c0</title>
<polygon fill="#ffcccc" stroke="black" points="290,-974.5 317,-958.64 344,-974.5 343.97,-1000.16 290.03,-1000.16 290,-974.5"/>
<text text-anchor="middle" x="317" y="-977.79" font-family="Times,serif" font-size="16.00">{</text>
</g>
<!-- node_0x5611267aeab0 -->
<g id="node2" class="node">
<title>node_0x5611267aeab0</title>
<polygon fill="#ffcccc" stroke="black" points="290,-893.05 317,-877.19 344,-893.05 343.97,-918.71 290.03,-918.71 290,-893.05"/>
<text text-anchor="middle" x="317" y="-896.34" font-family="Times,serif" font-size="16.00">;</text>
</g>
<!-- node_0x5611267ae6c0&#45;&gt;node_0x5611267aeab0 -->
<g id="edge1" class="edge">
<title>node_0x5611267ae6c0&#45;&gt;node_0x5611267aeab0</title>
<path fill="none" stroke="black" d="M317,-958.46C317,-949.39 317,-938.78 317,-929.17"/>
<polygon fill="black" stroke="black" points="320.5,-928.89 317,-918.89 313.5,-928.89 320.5,-928.89"/>
</g>
<!-- node_0x5611267aea80 -->
<g id="node3" class="node">
<title>node_0x5611267aea80</title>
<polygon fill="#ccccff" stroke="black" points="271.41,-817.86 317,-805.42 362.59,-817.86 362.54,-837.98 271.46,-837.98 271.41,-817.86"/>
<text text-anchor="middle" x="317" y="-819.72" font-family="Times,serif" font-size="14.00">EXPR</text>
</g>
<!-- node_0x5611267aeab0&#45;&gt;node_0x5611267aea80 -->
<g id="edge2" class="edge">
<title>node_0x5611267aeab0&#45;&gt;node_0x5611267aea80</title>
<path fill="none" stroke="black" d="M317,-877.13C317,-868.09 317,-857.61 317,-848.38"/>
<polygon fill="black" stroke="black" points="320.5,-848.29 317,-838.29 313.5,-848.29 320.5,-848.29"/>
</g>
<!-- node_0x5611267aea50 -->
<g id="node4" class="node">
<title>node_0x5611267aea50</title>
<polygon fill="#ffcccc" stroke="black" points="290,-739.6 317,-723.74 344,-739.6 343.97,-765.26 290.03,-765.26 290,-739.6"/>
<text text-anchor="middle" x="317" y="-742.89" font-family="Times,serif" font-size="16.00">+</text>
</g>
<!-- node_0x5611267aea80&#45;&gt;node_0x5611267aea50 -->
<g id="edge3" class="edge">
<title>node_0x5611267aea80&#45;&gt;node_0x5611267aea50</title>
<path fill="none" stroke="black" d="M317,-805.09C317,-796.35 317,-785.53 317,-775.66"/>
<polygon fill="black" stroke="black" points="320.5,-775.45 317,-765.45 313.5,-775.45 320.5,-775.45"/>
</g>
<!-- node_0x5611267ae9f0 -->
<g id="node5" class="node">
<title>node_0x5611267ae9f0</title>
<polygon fill="#ffcccc" stroke="black" points="256,-658.13 283,-642.27 310,-658.13 309.97,-683.79 256.03,-683.79 256,-658.13"/>
<text text-anchor="middle" x="283" y="-661.42" font-family="Times,serif" font-size="16.00">&#45;</text>
</g>
<!-- node_0x5611267aea50&#45;&gt;node_0x5611267ae9f0 -->
<g id="edge4" class="edge">
<title>node_0x5611267aea50&#45;&gt;node_0x5611267ae9f0</title>
<path fill="none" stroke="black" d="M309.45,-728.05C305.05,-717.77 299.41,-704.58 294.47,-693.03"/>
<polygon fill="black" stroke="black" points="297.68,-691.63 290.52,-683.81 291.24,-694.38 297.68,-691.63"/>
</g>
<!-- node_0x5611267aea20 -->
<g id="node22" class="node">
<title>node_0x5611267aea20</title>
<ellipse fill="#ffffcc" stroke="black" cx="351" cy="-665.22" rx="23" ry="23"/>
<text text-anchor="middle" x="351" y="-661.52" font-family="Times,serif" font-size="14.00">45</text>
</g>
<!-- node_0x5611267aea50&#45;&gt;node_0x5611267aea20 -->
<g id="edge21" class="edge">
<title>node_0x5611267aea50&#45;&gt;node_0x5611267aea20</title>
<path fill="none" stroke="black" d="M324.55,-728.05C328.63,-718.51 333.78,-706.46 338.46,-695.54"/>
<polygon fill="black" stroke="black" points="341.68,-696.9 342.4,-686.33 335.25,-694.15 341.68,-696.9"/>
</g>
<!-- node_0x5611267ae990 -->
<g id="node6" class="node">
<title>node_0x5611267ae990</title>
<polygon fill="#ffcccc" stroke="black" points="222,-576.63 249,-560.77 276,-576.63 275.97,-602.29 222.03,-602.29 222,-576.63"/>
<text text-anchor="middle" x="249" y="-579.92" font-family="Times,serif" font-size="16.00">+</text>
</g>
<!-- node_0x5611267ae9f0&#45;&gt;node_0x5611267ae990 -->
<g id="edge5" class="edge">
<title>node_0x5611267ae9f0&#45;&gt;node_0x5611267ae990</title>
<path fill="none" stroke="black" d="M275.45,-646.58C271.05,-636.28 265.41,-623.09 260.47,-611.54"/>
<polygon fill="black" stroke="black" points="263.68,-610.14 256.52,-602.32 257.24,-612.89 263.68,-610.14"/>
</g>
<!-- node_0x5611267ae9c0 -->
<g id="node21" class="node">
<title>node_0x5611267ae9c0</title>
<ellipse fill="#ffffcc" stroke="black" cx="317" cy="-583.72" rx="23" ry="23"/>
<text text-anchor="middle" x="317" y="-580.02" font-family="Times,serif" font-size="14.00">40</text>
</g>
<!-- node_0x5611267ae9f0&#45;&gt;node_0x5611267ae9c0 -->
<g id="edge20" class="edge">
<title>node_0x5611267ae9f0&#45;&gt;node_0x5611267ae9c0</title>
<path fill="none" stroke="black" d="M290.55,-646.58C294.63,-637.02 299.78,-624.97 304.46,-614.05"/>
<polygon fill="black" stroke="black" points="307.68,-615.41 308.4,-604.84 301.25,-612.66 307.68,-615.41"/>
</g>
<!-- node_0x5611267ae930 -->
<g id="node7" class="node">
<title>node_0x5611267ae930</title>
<polygon fill="#ffcccc" stroke="black" points="188,-495.14 215,-479.28 242,-495.14 241.97,-520.8 188.03,-520.8 188,-495.14"/>
<text text-anchor="middle" x="215" y="-498.43" font-family="Times,serif" font-size="16.00">&#45;</text>
</g>
<!-- node_0x5611267ae990&#45;&gt;node_0x5611267ae930 -->
<g id="edge6" class="edge">
<title>node_0x5611267ae990&#45;&gt;node_0x5611267ae930</title>
<path fill="none" stroke="black" d="M241.45,-565.08C237.05,-554.79 231.41,-541.6 226.47,-530.04"/>
<polygon fill="black" stroke="black" points="229.68,-528.64 222.52,-520.82 223.24,-531.39 229.68,-528.64"/>
</g>
<!-- node_0x5611267ae960 -->
<g id="node20" class="node">
<title>node_0x5611267ae960</title>
<ellipse fill="#ffffcc" stroke="black" cx="283" cy="-502.23" rx="23" ry="23"/>
<text text-anchor="middle" x="283" y="-498.53" font-family="Times,serif" font-size="14.00">35</text>
</g>
<!-- node_0x5611267ae990&#45;&gt;node_0x5611267ae960 -->
<g id="edge19" class="edge">
<title>node_0x5611267ae990&#45;&gt;node_0x5611267ae960</title>
<path fill="none" stroke="black" d="M256.55,-565.08C260.63,-555.53 265.78,-543.48 270.46,-532.56"/>
<polygon fill="black" stroke="black" points="273.68,-533.91 274.4,-523.34 267.25,-531.16 273.68,-533.91"/>
</g>
<!-- node_0x5611267ae8d0 -->
<g id="node8" class="node">
<title>node_0x5611267ae8d0</title>
<polygon fill="#ffcccc" stroke="black" points="154,-413.64 181,-397.78 208,-413.64 207.97,-439.3 154.03,-439.3 154,-413.64"/>
<text text-anchor="middle" x="181" y="-416.93" font-family="Times,serif" font-size="16.00">+</text>
</g>
<!-- node_0x5611267ae930&#45;&gt;node_0x5611267ae8d0 -->
<g id="edge7" class="edge">
<title>node_0x5611267ae930&#45;&gt;node_0x5611267ae8d0</title>
<path fill="none" stroke="black" d="M207.45,-483.59C203.05,-473.29 197.41,-460.1 192.47,-448.55"/>
<polygon fill="black" stroke="black" points="195.68,-447.14 188.52,-439.33 189.24,-449.9 195.68,-447.14"/>
</g>
<!-- node_0x5611267ae900 -->
<g id="node19" class="node">
<title>node_0x5611267ae900</title>
<ellipse fill="#ffffcc" stroke="black" cx="249" cy="-420.73" rx="23" ry="23"/>
<text text-anchor="middle" x="249" y="-417.03" font-family="Times,serif" font-size="14.00">30</text>
</g>
<!-- node_0x5611267ae930&#45;&gt;node_0x5611267ae900 -->
<g id="edge18" class="edge">
<title>node_0x5611267ae930&#45;&gt;node_0x5611267ae900</title>
<path fill="none" stroke="black" d="M222.55,-483.59C226.63,-474.03 231.78,-461.98 236.46,-451.06"/>
<polygon fill="black" stroke="black" points="239.68,-452.42 240.4,-441.85 233.25,-449.66 239.68,-452.42"/>
</g>
<!-- node_0x5611267ae870 -->
<g id="node9" class="node">
<title>node_0x5611267ae870</title>
<polygon fill="#ffcccc" stroke="black" points="120,-332.14 147,-316.28 174,-332.14 173.97,-357.8 120.03,-357.8 120,-332.14"/>
<text text-anchor="middle" x="147" y="-335.44" font-family="Times,serif" font-size="16.00">/</text>
</g>
<!-- node_0x5611267ae8d0&#45;&gt;node_0x5611267ae870 -->
<g id="edge8" class="edge">
<title>node_0x5611267ae8d0&#45;&gt;node_0x5611267ae870</title>
<path fill="none" stroke="black" d="M173.45,-402.09C169.05,-391.8 163.41,-378.61 158.47,-367.05"/>
<polygon fill="black" stroke="black" points="161.68,-365.65 154.52,-357.83 155.24,-368.4 161.68,-365.65"/>
</g>
<!-- node_0x5611267ae8a0 -->
<g id="node18" class="node">
<title>node_0x5611267ae8a0</title>
<ellipse fill="#ffffcc" stroke="black" cx="215" cy="-339.24" rx="23" ry="23"/>
<text text-anchor="middle" x="215" y="-335.54" font-family="Times,serif" font-size="14.00">25</text>
</g>
<!-- node_0x5611267ae8d0&#45;&gt;node_0x5611267ae8a0 -->
<g id="edge17" class="edge">
<title>node_0x5611267ae8d0&#45;&gt;node_0x5611267ae8a0</title>
<path fill="none" stroke="black" d="M188.55,-402.09C192.63,-392.54 197.78,-380.49 202.46,-369.57"/>
<polygon fill="black" stroke="black" points="205.68,-370.92 206.4,-360.35 199.25,-368.17 205.68,-370.92"/>
</g>
<!-- node_0x5611267ae810 -->
<g id="node10" class="node">
<title>node_0x5611267ae810</title>
<polygon fill="#ffcccc" stroke="black" points="86,-250.65 113,-234.79 140,-250.65 139.97,-276.31 86.03,-276.31 86,-250.65"/>
<text text-anchor="middle" x="113" y="-253.94" font-family="Times,serif" font-size="16.00">*</text>
</g>
<!-- node_0x5611267ae870&#45;&gt;node_0x5611267ae810 -->
<g id="edge9" class="edge">
<title>node_0x5611267ae870&#45;&gt;node_0x5611267ae810</title>
<path fill="none" stroke="black" d="M139.45,-320.59C135.05,-310.3 129.41,-297.11 124.47,-285.55"/>
<polygon fill="black" stroke="black" points="127.68,-284.15 120.52,-276.33 121.24,-286.9 127.68,-284.15"/>
</g>
<!-- node_0x5611267ae840 -->
<g id="node17" class="node">
<title>node_0x5611267ae840</title>
<ellipse fill="#ffffcc" stroke="black" cx="181" cy="-257.74" rx="23" ry="23"/>
<text text-anchor="middle" x="181" y="-254.04" font-family="Times,serif" font-size="14.00">20</text>
</g>
<!-- node_0x5611267ae870&#45;&gt;node_0x5611267ae840 -->
<g id="edge16" class="edge">
<title>node_0x5611267ae870&#45;&gt;node_0x5611267ae840</title>
<path fill="none" stroke="black" d="M154.55,-320.59C158.63,-311.04 163.78,-298.99 168.46,-288.07"/>
<polygon fill="black" stroke="black" points="171.68,-289.43 172.4,-278.85 165.25,-286.67 171.68,-289.43"/>
</g>
<!-- node_0x5611267ae7b0 -->
<g id="node11" class="node">
<title>node_0x5611267ae7b0</title>
<polygon fill="#ffcccc" stroke="black" points="52,-169.15 79,-153.29 106,-169.15 105.97,-194.81 52.03,-194.81 52,-169.15"/>
<text text-anchor="middle" x="79" y="-172.44" font-family="Times,serif" font-size="16.00">+</text>
</g>
<!-- node_0x5611267ae810&#45;&gt;node_0x5611267ae7b0 -->
<g id="edge10" class="edge">
<title>node_0x5611267ae810&#45;&gt;node_0x5611267ae7b0</title>
<path fill="none" stroke="black" d="M105.45,-239.1C101.05,-228.81 95.41,-215.61 90.47,-204.06"/>
<polygon fill="black" stroke="black" points="93.68,-202.66 86.52,-194.84 87.24,-205.41 93.68,-202.66"/>
</g>
<!-- node_0x5611267ae7e0 -->
<g id="node16" class="node">
<title>node_0x5611267ae7e0</title>
<ellipse fill="#ffffcc" stroke="black" cx="147" cy="-176.24" rx="23" ry="23"/>
<text text-anchor="middle" x="147" y="-172.54" font-family="Times,serif" font-size="14.00">15</text>
</g>
<!-- node_0x5611267ae810&#45;&gt;node_0x5611267ae7e0 -->
<g id="edge15" class="edge">
<title>node_0x5611267ae810&#45;&gt;node_0x5611267ae7e0</title>
<path fill="none" stroke="black" d="M120.55,-239.1C124.63,-229.54 129.78,-217.5 134.46,-206.57"/>
<polygon fill="black" stroke="black" points="137.68,-207.93 138.4,-197.36 131.25,-205.18 137.68,-207.93"/>
</g>
<!-- node_0x5611267ae750 -->
<g id="node12" class="node">
<title>node_0x5611267ae750</title>
<polygon fill="#ffcccc" stroke="black" points="18,-87.66 45,-71.8 72,-87.66 71.97,-113.32 18.03,-113.32 18,-87.66"/>
<text text-anchor="middle" x="45" y="-90.95" font-family="Times,serif" font-size="16.00">&#45;</text>
</g>
<!-- node_0x5611267ae7b0&#45;&gt;node_0x5611267ae750 -->
<g id="edge11" class="edge">
<title>node_0x5611267ae7b0&#45;&gt;node_0x5611267ae750</title>
<path fill="none" stroke="black" d="M71.45,-157.6C67.05,-147.31 61.41,-134.12 56.47,-122.56"/>
<polygon fill="black" stroke="black" points="59.68,-121.16 52.52,-113.34 53.24,-123.91 59.68,-121.16"/>
</g>
<!-- node_0x5611267ae780 -->
<g id="node15" class="node">
<title>node_0x5611267ae780</title>
<ellipse fill="#ffffcc" stroke="black" cx="113" cy="-94.75" rx="23" ry="23"/>
<text text-anchor="middle" x="113" y="-91.05" font-family="Times,serif" font-size="14.00">10</text>
</g>
<!-- node_0x5611267ae7b0&#45;&gt;node_0x5611267ae780 -->
<g id="edge14" class="edge">
<title>node_0x5611267ae7b0&#45;&gt;node_0x5611267ae780</title>
<path fill="none" stroke="black" d="M86.55,-157.6C90.63,-148.05 95.78,-136 100.46,-125.08"/>
<polygon fill="black" stroke="black" points="103.68,-126.43 104.4,-115.86 97.25,-123.68 103.68,-126.43"/>
</g>
<!-- node_0x5611267ae6f0 -->
<g id="node13" class="node">
<title>node_0x5611267ae6f0</title>
<ellipse fill="#ffffcc" stroke="black" cx="18" cy="-18" rx="18" ry="18"/>
<text text-anchor="middle" x="18" y="-14.3" font-family="Times,serif" font-size="14.00">5</text>
</g>
<!-- node_0x5611267ae750&#45;&gt;node_0x5611267ae6f0 -->
<g id="edge12" class="edge">
<title>node_0x5611267ae750&#45;&gt;node_0x5611267ae6f0</title>
<path fill="none" stroke="black" d="M38.33,-75.27C35,-66.06 30.92,-54.78 27.3,-44.74"/>
<polygon fill="black" stroke="black" points="30.55,-43.45 23.86,-35.23 23.97,-45.83 30.55,-43.45"/>
</g>
<!-- node_0x5611267ae720 -->
<g id="node14" class="node">
<title>node_0x5611267ae720</title>
<ellipse fill="#ffffcc" stroke="black" cx="72" cy="-18" rx="18" ry="18"/>
<text text-anchor="middle" x="72" y="-14.3" font-family="Times,serif" font-size="14.00">2</text>
</g>
<!-- node_0x5611267ae750&#45;&gt;node_0x5611267ae720 -->
<g id="edge13" class="edge">
<title>node_0x5611267ae750&#45;&gt;node_0x5611267ae720</title>
<path fill="none" stroke="black" d="M51.67,-75.27C55,-66.06 59.08,-54.78 62.7,-44.74"/>
<polygon fill="black" stroke="black" points="66.03,-45.83 66.14,-35.23 59.45,-43.45 66.03,-45.83"/>
</g>
</g>
</svg>
