<?xml version="1.0" encoding="UTF-8" standalone="no"?>
<!DOCTYPE svg PUBLIC "-//W3C//DTD SVG 1.1//EN"
 "http://www.w3.org/Graphics/SVG/1.1/DTD/svg11.dtd">
<!-- Generated by graphviz version 2.43.0 (0)
 -->
<!-- Title: list Pages: 1 -->
<svg width="883pt" height="1304pt"
 viewBox="0.00 0.00 883.29 1303.80" xmlns="http://www.w3.org/2000/svg" xmlns:xlink="http://www.w3.org/1999/xlink">
<g id="graph0" class="graph" transform="scale(1 1) rotate(0) translate(4 1299.8)">
<title>list</title>
<polygon fill="white" stroke="transparent" points="-4,4 -4,-1299.8 879.29,-1299.8 879.29,4 -4,4"/>
<!-- node_0x55fac91e8d50 -->
<g id="node1" class="node">
<title>node_0x55fac91e8d50</title>
<polygon fill="#ffcccc" stroke="black" points="579.24,-1245.47 613.42,-1218.93 647.59,-1245.47 647.56,-1288.42 579.28,-1288.42 579.24,-1245.47"/>
<text text-anchor="middle" x="613.42" y="-1262.55" font-family="Times,serif" font-size="16.00">[1]</text>
<text text-anchor="middle" x="613.42" y="-1244.55" font-family="Times,serif" font-size="16.00">{</text>
</g>
<!-- node_0x55fac91e9110 -->
<g id="node2" class="node">
<title>node_0x55fac91e9110</title>
<polygon fill="#ffcccc" stroke="black" points="579.24,-1132.56 613.42,-1106.02 647.59,-1132.56 647.56,-1175.51 579.28,-1175.51 579.24,-1132.56"/>
<text text-anchor="middle" x="613.42" y="-1149.63" font-family="Times,serif" font-size="16.00">[4]</text>
<text text-anchor="middle" x="613.42" y="-1131.63" font-family="Times,serif" font-size="16.00">;</text>
</g>
<!-- node_0x55fac91e8d50&#45;&gt;node_0x55fac91e9110 -->
<g id="edge1" class="edge">
<title>node_0x55fac91e8d50&#45;&gt;node_0x55fac91e9110</title>
<path fill="none" stroke="black" d="M613.42,-1218.8C613.42,-1208.13 613.42,-1196.47 613.42,-1185.65"/>
<polygon fill="black" stroke="black" points="616.92,-1185.59 613.42,-1175.59 609.92,-1185.59 616.92,-1185.59"/>
</g>
<!-- node_0x55fac91e90d0 -->
<g id="node3" class="node">
<title>node_0x55fac91e90d0</title>
<polygon fill="#ccccff" stroke="black" points="440.38,-1021.19 535.42,-998.09 630.46,-1021.19 630.37,-1058.56 440.47,-1058.56 440.38,-1021.19"/>
<text text-anchor="middle" x="535.42" y="-1035.32" font-family="Times,serif" font-size="14.00">[3]</text>
<text text-anchor="middle" x="535.42" y="-1020.32" font-family="Times,serif" font-size="14.00">FUNC_DECL</text>
</g>
<!-- node_0x55fac91e9110&#45;&gt;node_0x55fac91e90d0 -->
<g id="edge2" class="edge">
<title>node_0x55fac91e9110&#45;&gt;node_0x55fac91e90d0</title>
<path fill="none" stroke="black" d="M596.3,-1119.09C585.61,-1103.89 571.67,-1084.07 559.83,-1067.23"/>
<polygon fill="black" stroke="black" points="562.47,-1064.9 553.86,-1058.74 556.75,-1068.93 562.47,-1064.9"/>
</g>
<!-- node_0x55fac91e9750 -->
<g id="node14" class="node">
<title>node_0x55fac91e9750</title>
<polygon fill="#ffcccc" stroke="black" points="648.51,-1019.65 692.42,-993.1 736.32,-1019.65 736.28,-1062.59 648.56,-1062.59 648.51,-1019.65"/>
<text text-anchor="middle" x="692.42" y="-1036.72" font-family="Times,serif" font-size="16.00">[10]</text>
<text text-anchor="middle" x="692.42" y="-1018.72" font-family="Times,serif" font-size="16.00">;</text>
</g>
<!-- node_0x55fac91e9110&#45;&gt;node_0x55fac91e9750 -->
<g id="edge13" class="edge">
<title>node_0x55fac91e9110&#45;&gt;node_0x55fac91e9750</title>
<path fill="none" stroke="black" d="M630.76,-1119.09C640.72,-1105.1 653.47,-1087.21 664.78,-1071.32"/>
<polygon fill="black" stroke="black" points="667.94,-1072.92 670.89,-1062.74 662.24,-1068.85 667.94,-1072.92"/>
</g>
<!-- node_0x55fac91e8f90 -->
<g id="node4" class="node">
<title>node_0x55fac91e8f90</title>
<polygon fill="#ccccff" stroke="black" points="303.62,-908.27 396.42,-885.17 489.21,-908.27 489.13,-945.64 303.71,-945.64 303.62,-908.27"/>
<text text-anchor="middle" x="396.42" y="-922.4" font-family="Times,serif" font-size="14.00">[2]</text>
<text text-anchor="middle" x="396.42" y="-907.4" font-family="Times,serif" font-size="14.00">FUNC_INFO</text>
</g>
<!-- node_0x55fac91e90d0&#45;&gt;node_0x55fac91e8f90 -->
<g id="edge3" class="edge">
<title>node_0x55fac91e90d0&#45;&gt;node_0x55fac91e8f90</title>
<path fill="none" stroke="black" d="M504.22,-1005.62C484.49,-989.88 458.77,-969.36 437.4,-952.3"/>
<polygon fill="black" stroke="black" points="439.45,-949.46 429.45,-945.96 435.08,-954.93 439.45,-949.46"/>
</g>
<!-- node_0x55fac91e8fd0 -->
<g id="node10" class="node">
<title>node_0x55fac91e8fd0</title>
<polygon fill="#ffcccc" stroke="black" points="507.24,-906.73 541.42,-880.19 575.59,-906.73 575.56,-949.68 507.28,-949.68 507.24,-906.73"/>
<text text-anchor="middle" x="541.42" y="-923.8" font-family="Times,serif" font-size="16.00">[1]</text>
<text text-anchor="middle" x="541.42" y="-905.8" font-family="Times,serif" font-size="16.00">{</text>
</g>
<!-- node_0x55fac91e90d0&#45;&gt;node_0x55fac91e8fd0 -->
<g id="edge9" class="edge">
<title>node_0x55fac91e90d0&#45;&gt;node_0x55fac91e8fd0</title>
<path fill="none" stroke="black" d="M537.15,-998.43C537.8,-986.44 538.55,-972.66 539.23,-960.01"/>
<polygon fill="black" stroke="black" points="542.74,-959.88 539.79,-949.71 535.75,-959.5 542.74,-959.88"/>
</g>
<!-- node_0x55fac91e8dd0 -->
<g id="node5" class="node">
<title>node_0x55fac91e8dd0</title>
<polygon fill="#ccccff" stroke="black" points="112.95,-795.36 241.42,-772.26 369.88,-795.36 369.76,-832.73 113.07,-832.73 112.95,-795.36"/>
<text text-anchor="middle" x="241.42" y="-809.49" font-family="Times,serif" font-size="14.00">[1]</text>
<text text-anchor="middle" x="241.42" y="-794.49" font-family="Times,serif" font-size="14.00">FUNC_ARG_DECL</text>
</g>
<!-- node_0x55fac91e8f90&#45;&gt;node_0x55fac91e8dd0 -->
<g id="edge4" class="edge">
<title>node_0x55fac91e8f90&#45;&gt;node_0x55fac91e8dd0</title>
<path fill="none" stroke="black" d="M362.79,-893.53C340.41,-877.52 310.75,-856.3 286.35,-838.84"/>
<polygon fill="black" stroke="black" points="288.13,-835.81 277.96,-832.84 284.06,-841.5 288.13,-835.81"/>
</g>
<!-- node_0x55fac91e8d90 -->
<g id="node9" class="node">
<title>node_0x55fac91e8d90</title>
<ellipse fill="#ccffff" stroke="black" cx="424.42" cy="-805.69" rx="36.54" ry="36.54"/>
<text text-anchor="middle" x="424.42" y="-809.49" font-family="Times,serif" font-size="14.00">[1]</text>
<text text-anchor="middle" x="424.42" y="-794.49" font-family="Times,serif" font-size="14.00">main</text>
</g>
<!-- node_0x55fac91e8f90&#45;&gt;node_0x55fac91e8d90 -->
<g id="edge8" class="edge">
<title>node_0x55fac91e8f90&#45;&gt;node_0x55fac91e8d90</title>
<path fill="none" stroke="black" d="M404.14,-887C406.93,-875.98 410.13,-863.31 413.15,-851.33"/>
<polygon fill="black" stroke="black" points="416.58,-852.05 415.63,-841.49 409.79,-850.33 416.58,-852.05"/>
</g>
<!-- node_0x55fac91e8f10 -->
<g id="node6" class="node">
<title>node_0x55fac91e8f10</title>
<polygon fill="#ccccff" stroke="black" points="0.08,-682.44 73.42,-659.34 146.76,-682.44 146.69,-719.82 0.15,-719.82 0.08,-682.44"/>
<text text-anchor="middle" x="73.42" y="-696.57" font-family="Times,serif" font-size="14.00">[2]</text>
<text text-anchor="middle" x="73.42" y="-681.57" font-family="Times,serif" font-size="14.00">VAR_DEF</text>
</g>
<!-- node_0x55fac91e8dd0&#45;&gt;node_0x55fac91e8f10 -->
<g id="edge5" class="edge">
<title>node_0x55fac91e8dd0&#45;&gt;node_0x55fac91e8f10</title>
<path fill="none" stroke="black" d="M202.45,-778.96C178.33,-763.04 147.17,-742.46 121.52,-725.53"/>
<polygon fill="black" stroke="black" points="123.32,-722.52 113.05,-719.93 119.46,-728.36 123.32,-722.52"/>
</g>
<!-- node_0x55fac91e8f50 -->
<g id="node8" class="node">
<title>node_0x55fac91e8f50</title>
<polygon fill="#ccccff" stroke="black" points="164.95,-682.44 293.42,-659.34 421.88,-682.44 421.76,-719.82 165.07,-719.82 164.95,-682.44"/>
<text text-anchor="middle" x="293.42" y="-696.57" font-family="Times,serif" font-size="14.00">[1]</text>
<text text-anchor="middle" x="293.42" y="-681.57" font-family="Times,serif" font-size="14.00">FUNC_ARG_DECL</text>
</g>
<!-- node_0x55fac91e8dd0&#45;&gt;node_0x55fac91e8f50 -->
<g id="edge7" class="edge">
<title>node_0x55fac91e8dd0&#45;&gt;node_0x55fac91e8f50</title>
<path fill="none" stroke="black" d="M255.49,-774.67C262.05,-760.67 269.91,-743.91 276.77,-729.29"/>
<polygon fill="black" stroke="black" points="280.03,-730.57 281.11,-720.03 273.69,-727.6 280.03,-730.57"/>
</g>
<!-- node_0x55fac91e8ed0 -->
<g id="node7" class="node">
<title>node_0x55fac91e8ed0</title>
<ellipse fill="#ccffff" stroke="black" cx="73.42" cy="-579.86" rx="26.74" ry="26.74"/>
<text text-anchor="middle" x="73.42" y="-583.66" font-family="Times,serif" font-size="14.00">[1]</text>
<text text-anchor="middle" x="73.42" y="-568.66" font-family="Times,serif" font-size="14.00">a</text>
</g>
<!-- node_0x55fac91e8f10&#45;&gt;node_0x55fac91e8ed0 -->
<g id="edge6" class="edge">
<title>node_0x55fac91e8f10&#45;&gt;node_0x55fac91e8ed0</title>
<path fill="none" stroke="black" d="M73.42,-659.39C73.42,-646.04 73.42,-630.52 73.42,-616.82"/>
<polygon fill="black" stroke="black" points="76.92,-616.76 73.42,-606.76 69.92,-616.76 76.92,-616.76"/>
</g>
<!-- node_0x55fac91e9090 -->
<g id="node11" class="node">
<title>node_0x55fac91e9090</title>
<polygon fill="#ffcccc" stroke="black" points="507.24,-793.82 541.42,-767.27 575.59,-793.82 575.56,-836.76 507.28,-836.76 507.24,-793.82"/>
<text text-anchor="middle" x="541.42" y="-810.89" font-family="Times,serif" font-size="16.00">[3]</text>
<text text-anchor="middle" x="541.42" y="-792.89" font-family="Times,serif" font-size="16.00">;</text>
</g>
<!-- node_0x55fac91e8fd0&#45;&gt;node_0x55fac91e9090 -->
<g id="edge10" class="edge">
<title>node_0x55fac91e8fd0&#45;&gt;node_0x55fac91e9090</title>
<path fill="none" stroke="black" d="M541.42,-880.05C541.42,-869.38 541.42,-857.72 541.42,-846.9"/>
<polygon fill="black" stroke="black" points="544.92,-846.85 541.42,-836.85 537.92,-846.85 544.92,-846.85"/>
</g>
<!-- node_0x55fac91e9050 -->
<g id="node12" class="node">
<title>node_0x55fac91e9050</title>
<polygon fill="#ccccff" stroke="black" points="491.78,-682.44 541.42,-659.34 591.06,-682.44 591.01,-719.82 491.82,-719.82 491.78,-682.44"/>
<text text-anchor="middle" x="541.42" y="-696.57" font-family="Times,serif" font-size="14.00">[2]</text>
<text text-anchor="middle" x="541.42" y="-681.57" font-family="Times,serif" font-size="14.00">EXPR</text>
</g>
<!-- node_0x55fac91e9090&#45;&gt;node_0x55fac91e9050 -->
<g id="edge11" class="edge">
<title>node_0x55fac91e9090&#45;&gt;node_0x55fac91e9050</title>
<path fill="none" stroke="black" d="M541.42,-767.14C541.42,-755.18 541.42,-741.98 541.42,-730.11"/>
<polygon fill="black" stroke="black" points="544.92,-730.08 541.42,-720.08 537.92,-730.08 544.92,-730.08"/>
</g>
<!-- node_0x55fac91e9010 -->
<g id="node13" class="node">
<title>node_0x55fac91e9010</title>
<ellipse fill="#ffffcc" stroke="black" cx="541.42" cy="-579.86" rx="26.74" ry="26.74"/>
<text text-anchor="middle" x="541.42" y="-583.66" font-family="Times,serif" font-size="14.00">[1]</text>
<text text-anchor="middle" x="541.42" y="-568.66" font-family="Times,serif" font-size="14.00">0</text>
</g>
<!-- node_0x55fac91e9050&#45;&gt;node_0x55fac91e9010 -->
<g id="edge12" class="edge">
<title>node_0x55fac91e9050&#45;&gt;node_0x55fac91e9010</title>
<path fill="none" stroke="black" d="M541.42,-659.39C541.42,-646.04 541.42,-630.52 541.42,-616.82"/>
<polygon fill="black" stroke="black" points="544.92,-616.76 541.42,-606.76 537.92,-616.76 544.92,-616.76"/>
</g>
<!-- node_0x55fac91e9710 -->
<g id="node15" class="node">
<title>node_0x55fac91e9710</title>
<polygon fill="#ccccff" stroke="black" points="642.78,-908.27 692.42,-885.17 742.06,-908.27 742.01,-945.64 642.82,-945.64 642.78,-908.27"/>
<text text-anchor="middle" x="692.42" y="-922.4" font-family="Times,serif" font-size="14.00">[9]</text>
<text text-anchor="middle" x="692.42" y="-907.4" font-family="Times,serif" font-size="14.00">EXPR</text>
</g>
<!-- node_0x55fac91e9750&#45;&gt;node_0x55fac91e9710 -->
<g id="edge14" class="edge">
<title>node_0x55fac91e9750&#45;&gt;node_0x55fac91e9710</title>
<path fill="none" stroke="black" d="M692.42,-992.97C692.42,-981.01 692.42,-967.81 692.42,-955.94"/>
<polygon fill="black" stroke="black" points="695.92,-955.91 692.42,-945.91 688.92,-955.91 695.92,-955.91"/>
</g>
<!-- node_0x55fac91e96d0 -->
<g id="node16" class="node">
<title>node_0x55fac91e96d0</title>
<polygon fill="#ffcccc" stroke="black" points="658.24,-793.82 692.42,-767.27 726.59,-793.82 726.56,-836.76 658.28,-836.76 658.24,-793.82"/>
<text text-anchor="middle" x="692.42" y="-810.89" font-family="Times,serif" font-size="16.00">[8]</text>
<text text-anchor="middle" x="692.42" y="-792.89" font-family="Times,serif" font-size="16.00">*</text>
</g>
<!-- node_0x55fac91e9710&#45;&gt;node_0x55fac91e96d0 -->
<g id="edge15" class="edge">
<title>node_0x55fac91e9710&#45;&gt;node_0x55fac91e96d0</title>
<path fill="none" stroke="black" d="M692.42,-885.22C692.42,-873.33 692.42,-859.72 692.42,-847.21"/>
<polygon fill="black" stroke="black" points="695.92,-847.01 692.42,-837.01 688.92,-847.01 695.92,-847.01"/>
</g>
<!-- node_0x55fac91e95d0 -->
<g id="node17" class="node">
<title>node_0x55fac91e95d0</title>
<polygon fill="#ffcccc" stroke="black" points="657.24,-680.9 691.42,-654.36 725.59,-680.9 725.56,-723.85 657.28,-723.85 657.24,-680.9"/>
<text text-anchor="middle" x="691.42" y="-697.97" font-family="Times,serif" font-size="16.00">[7]</text>
<text text-anchor="middle" x="691.42" y="-679.97" font-family="Times,serif" font-size="16.00">+</text>
</g>
<!-- node_0x55fac91e96d0&#45;&gt;node_0x55fac91e95d0 -->
<g id="edge16" class="edge">
<title>node_0x55fac91e96d0&#45;&gt;node_0x55fac91e95d0</title>
<path fill="none" stroke="black" d="M692.08,-767.44C691.99,-756.76 691.88,-745.06 691.78,-734.2"/>
<polygon fill="black" stroke="black" points="695.28,-734.07 691.69,-724.1 688.28,-734.13 695.28,-734.07"/>
</g>
<!-- node_0x55fac91e9690 -->
<g id="node36" class="node">
<title>node_0x55fac91e9690</title>
<polygon fill="#ffcccc" stroke="black" points="743.24,-680.9 777.42,-654.36 811.59,-680.9 811.56,-723.85 743.28,-723.85 743.24,-680.9"/>
<text text-anchor="middle" x="777.42" y="-697.97" font-family="Times,serif" font-size="16.00">[2]</text>
<text text-anchor="middle" x="777.42" y="-679.97" font-family="Times,serif" font-size="16.00">/</text>
</g>
<!-- node_0x55fac91e96d0&#45;&gt;node_0x55fac91e9690 -->
<g id="edge35" class="edge">
<title>node_0x55fac91e96d0&#45;&gt;node_0x55fac91e9690</title>
<path fill="none" stroke="black" d="M710.45,-781.16C721.32,-766.98 735.43,-748.56 747.9,-732.29"/>
<polygon fill="black" stroke="black" points="750.94,-734.08 754.24,-724.02 745.38,-729.82 750.94,-734.08"/>
</g>
<!-- node_0x55fac91e9550 -->
<g id="node18" class="node">
<title>node_0x55fac91e9550</title>
<polygon fill="#ffcccc" stroke="black" points="589.24,-567.99 623.42,-541.44 657.59,-567.99 657.56,-610.94 589.28,-610.94 589.24,-567.99"/>
<text text-anchor="middle" x="623.42" y="-585.06" font-family="Times,serif" font-size="16.00">[6]</text>
<text text-anchor="middle" x="623.42" y="-567.06" font-family="Times,serif" font-size="16.00">/</text>
</g>
<!-- node_0x55fac91e95d0&#45;&gt;node_0x55fac91e9550 -->
<g id="edge17" class="edge">
<title>node_0x55fac91e95d0&#45;&gt;node_0x55fac91e9550</title>
<path fill="none" stroke="black" d="M675.82,-666.33C667.43,-652.64 656.9,-635.46 647.48,-620.1"/>
<polygon fill="black" stroke="black" points="650.3,-618.01 642.09,-611.31 644.33,-621.67 650.3,-618.01"/>
</g>
<!-- node_0x55fac91e9590 -->
<g id="node35" class="node">
<title>node_0x55fac91e9590</title>
<ellipse fill="#ffffcc" stroke="black" cx="702.42" cy="-579.86" rx="26.74" ry="26.74"/>
<text text-anchor="middle" x="702.42" y="-583.66" font-family="Times,serif" font-size="14.00">[1]</text>
<text text-anchor="middle" x="702.42" y="-568.66" font-family="Times,serif" font-size="14.00">1</text>
</g>
<!-- node_0x55fac91e95d0&#45;&gt;node_0x55fac91e9590 -->
<g id="edge34" class="edge">
<title>node_0x55fac91e95d0&#45;&gt;node_0x55fac91e9590</title>
<path fill="none" stroke="black" d="M694.87,-656.98C696.13,-644.28 697.56,-629.88 698.83,-617.05"/>
<polygon fill="black" stroke="black" points="702.35,-617.02 699.85,-606.72 695.38,-616.33 702.35,-617.02"/>
</g>
<!-- node_0x55fac91e92d0 -->
<g id="node19" class="node">
<title>node_0x55fac91e92d0</title>
<polygon fill="#ffcccc" stroke="black" points="546.24,-455.07 580.42,-428.53 614.59,-455.07 614.56,-498.02 546.28,-498.02 546.24,-455.07"/>
<text text-anchor="middle" x="580.42" y="-472.14" font-family="Times,serif" font-size="16.00">[4]</text>
<text text-anchor="middle" x="580.42" y="-454.14" font-family="Times,serif" font-size="16.00">+</text>
</g>
<!-- node_0x55fac91e9550&#45;&gt;node_0x55fac91e92d0 -->
<g id="edge18" class="edge">
<title>node_0x55fac91e9550&#45;&gt;node_0x55fac91e92d0</title>
<path fill="none" stroke="black" d="M612.23,-550C607.22,-537.07 601.22,-521.61 595.8,-507.61"/>
<polygon fill="black" stroke="black" points="599.03,-506.26 592.15,-498.2 592.5,-508.79 599.03,-506.26"/>
</g>
<!-- node_0x55fac91e9510 -->
<g id="node26" class="node">
<title>node_0x55fac91e9510</title>
<polygon fill="#ffcccc" stroke="black" points="632.24,-455.07 666.42,-428.53 700.59,-455.07 700.56,-498.02 632.28,-498.02 632.24,-455.07"/>
<text text-anchor="middle" x="666.42" y="-472.14" font-family="Times,serif" font-size="16.00">[5]</text>
<text text-anchor="middle" x="666.42" y="-454.14" font-family="Times,serif" font-size="16.00">&#45;</text>
</g>
<!-- node_0x55fac91e9550&#45;&gt;node_0x55fac91e9510 -->
<g id="edge25" class="edge">
<title>node_0x55fac91e9550&#45;&gt;node_0x55fac91e9510</title>
<path fill="none" stroke="black" d="M634.6,-550C639.62,-537.07 645.61,-521.61 651.04,-507.61"/>
<polygon fill="black" stroke="black" points="654.34,-508.79 654.69,-498.2 647.81,-506.26 654.34,-508.79"/>
</g>
<!-- node_0x55fac91e9250 -->
<g id="node20" class="node">
<title>node_0x55fac91e9250</title>
<polygon fill="#ffcccc" stroke="black" points="464.24,-342.16 498.42,-315.61 532.59,-342.16 532.56,-385.11 464.28,-385.11 464.24,-342.16"/>
<text text-anchor="middle" x="498.42" y="-359.23" font-family="Times,serif" font-size="16.00">[3]</text>
<text text-anchor="middle" x="498.42" y="-341.23" font-family="Times,serif" font-size="16.00">+</text>
</g>
<!-- node_0x55fac91e92d0&#45;&gt;node_0x55fac91e9250 -->
<g id="edge19" class="edge">
<title>node_0x55fac91e92d0&#45;&gt;node_0x55fac91e9250</title>
<path fill="none" stroke="black" d="M562.83,-442.15C552.33,-427.95 538.75,-409.58 526.77,-393.37"/>
<polygon fill="black" stroke="black" points="529.43,-391.09 520.67,-385.13 523.8,-395.25 529.43,-391.09"/>
</g>
<!-- node_0x55fac91e9290 -->
<g id="node25" class="node">
<title>node_0x55fac91e9290</title>
<ellipse fill="#ffffcc" stroke="black" cx="581.42" cy="-354.03" rx="31.23" ry="31.23"/>
<text text-anchor="middle" x="581.42" y="-357.83" font-family="Times,serif" font-size="14.00">[1]</text>
<text text-anchor="middle" x="581.42" y="-342.83" font-family="Times,serif" font-size="14.00">102</text>
</g>
<!-- node_0x55fac91e92d0&#45;&gt;node_0x55fac91e9290 -->
<g id="edge24" class="edge">
<title>node_0x55fac91e92d0&#45;&gt;node_0x55fac91e9290</title>
<path fill="none" stroke="black" d="M580.75,-428.7C580.85,-418.02 580.96,-406.32 581.05,-395.46"/>
<polygon fill="black" stroke="black" points="584.55,-395.38 581.15,-385.35 577.56,-395.32 584.55,-395.38"/>
</g>
<!-- node_0x55fac91e9150 -->
<g id="node21" class="node">
<title>node_0x55fac91e9150</title>
<ellipse fill="#ffffcc" stroke="black" cx="440.42" cy="-241.11" rx="26.74" ry="26.74"/>
<text text-anchor="middle" x="440.42" y="-244.91" font-family="Times,serif" font-size="14.00">[1]</text>
<text text-anchor="middle" x="440.42" y="-229.91" font-family="Times,serif" font-size="14.00">7</text>
</g>
<!-- node_0x55fac91e9250&#45;&gt;node_0x55fac91e9150 -->
<g id="edge20" class="edge">
<title>node_0x55fac91e9250&#45;&gt;node_0x55fac91e9150</title>
<path fill="none" stroke="black" d="M484.38,-326.18C476.25,-310.64 465.96,-290.97 457.39,-274.56"/>
<polygon fill="black" stroke="black" points="460.3,-272.57 452.56,-265.33 454.09,-275.82 460.3,-272.57"/>
</g>
<!-- node_0x55fac91e9210 -->
<g id="node22" class="node">
<title>node_0x55fac91e9210</title>
<polygon fill="#ffcccc" stroke="black" points="485.24,-229.24 519.42,-202.7 553.59,-229.24 553.56,-272.19 485.28,-272.19 485.24,-229.24"/>
<text text-anchor="middle" x="519.42" y="-246.31" font-family="Times,serif" font-size="16.00">[2]</text>
<text text-anchor="middle" x="519.42" y="-228.31" font-family="Times,serif" font-size="16.00">*</text>
</g>
<!-- node_0x55fac91e9250&#45;&gt;node_0x55fac91e9210 -->
<g id="edge21" class="edge">
<title>node_0x55fac91e9250&#45;&gt;node_0x55fac91e9210</title>
<path fill="none" stroke="black" d="M504.61,-320.35C506.86,-308.47 509.42,-294.9 511.78,-282.43"/>
<polygon fill="black" stroke="black" points="515.28,-282.76 513.71,-272.28 508.41,-281.46 515.28,-282.76"/>
</g>
<!-- node_0x55fac91e9190 -->
<g id="node23" class="node">
<title>node_0x55fac91e9190</title>
<ellipse fill="#ffffcc" stroke="black" cx="483.42" cy="-128.2" rx="26.74" ry="26.74"/>
<text text-anchor="middle" x="483.42" y="-132" font-family="Times,serif" font-size="14.00">[1]</text>
<text text-anchor="middle" x="483.42" y="-117" font-family="Times,serif" font-size="14.00">15</text>
</g>
<!-- node_0x55fac91e9210&#45;&gt;node_0x55fac91e9190 -->
<g id="edge22" class="edge">
<title>node_0x55fac91e9210&#45;&gt;node_0x55fac91e9190</title>
<path fill="none" stroke="black" d="M509.68,-210.1C505.04,-195.81 499.47,-178.66 494.66,-163.83"/>
<polygon fill="black" stroke="black" points="497.88,-162.42 491.47,-153.99 491.22,-164.59 497.88,-162.42"/>
</g>
<!-- node_0x55fac91e91d0 -->
<g id="node24" class="node">
<title>node_0x55fac91e91d0</title>
<ellipse fill="#ffffcc" stroke="black" cx="555.42" cy="-128.2" rx="26.74" ry="26.74"/>
<text text-anchor="middle" x="555.42" y="-132" font-family="Times,serif" font-size="14.00">[1]</text>
<text text-anchor="middle" x="555.42" y="-117" font-family="Times,serif" font-size="14.00">&#45;3</text>
</g>
<!-- node_0x55fac91e9210&#45;&gt;node_0x55fac91e91d0 -->
<g id="edge23" class="edge">
<title>node_0x55fac91e9210&#45;&gt;node_0x55fac91e91d0</title>
<path fill="none" stroke="black" d="M529.16,-210.1C533.8,-195.81 539.37,-178.66 544.18,-163.83"/>
<polygon fill="black" stroke="black" points="547.61,-164.59 547.37,-153.99 540.95,-162.42 547.61,-164.59"/>
</g>
<!-- node_0x55fac91e9490 -->
<g id="node27" class="node">
<title>node_0x55fac91e9490</title>
<polygon fill="#ffcccc" stroke="black" points="631.24,-342.16 665.42,-315.61 699.59,-342.16 699.56,-385.11 631.28,-385.11 631.24,-342.16"/>
<text text-anchor="middle" x="665.42" y="-359.23" font-family="Times,serif" font-size="16.00">[4]</text>
<text text-anchor="middle" x="665.42" y="-341.23" font-family="Times,serif" font-size="16.00">+</text>
</g>
<!-- node_0x55fac91e9510&#45;&gt;node_0x55fac91e9490 -->
<g id="edge26" class="edge">
<title>node_0x55fac91e9510&#45;&gt;node_0x55fac91e9490</title>
<path fill="none" stroke="black" d="M666.08,-428.7C665.99,-418.02 665.88,-406.32 665.78,-395.46"/>
<polygon fill="black" stroke="black" points="669.28,-395.32 665.69,-385.35 662.28,-395.38 669.28,-395.32"/>
</g>
<!-- node_0x55fac91e94d0 -->
<g id="node34" class="node">
<title>node_0x55fac91e94d0</title>
<ellipse fill="#ffffcc" stroke="black" cx="744.42" cy="-354.03" rx="26.74" ry="26.74"/>
<text text-anchor="middle" x="744.42" y="-357.83" font-family="Times,serif" font-size="14.00">[1]</text>
<text text-anchor="middle" x="744.42" y="-342.83" font-family="Times,serif" font-size="14.00">1</text>
</g>
<!-- node_0x55fac91e9510&#45;&gt;node_0x55fac91e94d0 -->
<g id="edge33" class="edge">
<title>node_0x55fac91e9510&#45;&gt;node_0x55fac91e94d0</title>
<path fill="none" stroke="black" d="M683.54,-441.6C695.25,-424.94 710.86,-402.74 723.34,-385"/>
<polygon fill="black" stroke="black" points="726.3,-386.88 729.19,-376.68 720.57,-382.85 726.3,-386.88"/>
</g>
<!-- node_0x55fac91e9410 -->
<g id="node28" class="node">
<title>node_0x55fac91e9410</title>
<polygon fill="#ffcccc" stroke="black" points="627.24,-229.24 661.42,-202.7 695.59,-229.24 695.56,-272.19 627.28,-272.19 627.24,-229.24"/>
<text text-anchor="middle" x="661.42" y="-246.31" font-family="Times,serif" font-size="16.00">[3]</text>
<text text-anchor="middle" x="661.42" y="-228.31" font-family="Times,serif" font-size="16.00">&#45;</text>
</g>
<!-- node_0x55fac91e9490&#45;&gt;node_0x55fac91e9410 -->
<g id="edge27" class="edge">
<title>node_0x55fac91e9490&#45;&gt;node_0x55fac91e9410</title>
<path fill="none" stroke="black" d="M664.1,-316.4C663.71,-305.6 663.28,-293.71 662.88,-282.67"/>
<polygon fill="black" stroke="black" points="666.37,-282.28 662.51,-272.41 659.37,-282.53 666.37,-282.28"/>
</g>
<!-- node_0x55fac91e9450 -->
<g id="node33" class="node">
<title>node_0x55fac91e9450</title>
<ellipse fill="#ffffcc" stroke="black" cx="740.42" cy="-241.11" rx="26.74" ry="26.74"/>
<text text-anchor="middle" x="740.42" y="-244.91" font-family="Times,serif" font-size="14.00">[1]</text>
<text text-anchor="middle" x="740.42" y="-229.91" font-family="Times,serif" font-size="14.00">1</text>
</g>
<!-- node_0x55fac91e9490&#45;&gt;node_0x55fac91e9450 -->
<g id="edge32" class="edge">
<title>node_0x55fac91e9490&#45;&gt;node_0x55fac91e9450</title>
<path fill="none" stroke="black" d="M682.06,-328.41C693.16,-312 707.83,-290.3 719.69,-272.77"/>
<polygon fill="black" stroke="black" points="722.9,-274.27 725.6,-264.03 717.1,-270.35 722.9,-274.27"/>
</g>
<!-- node_0x55fac91e9390 -->
<g id="node29" class="node">
<title>node_0x55fac91e9390</title>
<polygon fill="#ffcccc" stroke="black" points="607.24,-116.33 641.42,-89.78 675.59,-116.33 675.56,-159.28 607.28,-159.28 607.24,-116.33"/>
<text text-anchor="middle" x="641.42" y="-133.4" font-family="Times,serif" font-size="16.00">[2]</text>
<text text-anchor="middle" x="641.42" y="-115.4" font-family="Times,serif" font-size="16.00">+</text>
</g>
<!-- node_0x55fac91e9410&#45;&gt;node_0x55fac91e9390 -->
<g id="edge28" class="edge">
<title>node_0x55fac91e9410&#45;&gt;node_0x55fac91e9390</title>
<path fill="none" stroke="black" d="M655.47,-207.13C653.35,-195.36 650.93,-181.96 648.71,-169.63"/>
<polygon fill="black" stroke="black" points="652.12,-168.81 646.9,-159.59 645.23,-170.05 652.12,-168.81"/>
</g>
<!-- node_0x55fac91e93d0 -->
<g id="node32" class="node">
<title>node_0x55fac91e93d0</title>
<ellipse fill="#ffffcc" stroke="black" cx="720.42" cy="-128.2" rx="26.74" ry="26.74"/>
<text text-anchor="middle" x="720.42" y="-132" font-family="Times,serif" font-size="14.00">[1]</text>
<text text-anchor="middle" x="720.42" y="-117" font-family="Times,serif" font-size="14.00">2</text>
</g>
<!-- node_0x55fac91e9410&#45;&gt;node_0x55fac91e93d0 -->
<g id="edge31" class="edge">
<title>node_0x55fac91e9410&#45;&gt;node_0x55fac91e93d0</title>
<path fill="none" stroke="black" d="M675.55,-213.55C683.95,-197.76 694.66,-177.63 703.5,-161"/>
<polygon fill="black" stroke="black" points="706.59,-162.64 708.2,-152.17 700.41,-159.35 706.59,-162.64"/>
</g>
<!-- node_0x55fac91e9310 -->
<g id="node30" class="node">
<title>node_0x55fac91e9310</title>
<ellipse fill="#ffffcc" stroke="black" cx="605.42" cy="-26.87" rx="26.74" ry="26.74"/>
<text text-anchor="middle" x="605.42" y="-30.67" font-family="Times,serif" font-size="14.00">[1]</text>
<text text-anchor="middle" x="605.42" y="-15.67" font-family="Times,serif" font-size="14.00">2</text>
</g>
<!-- node_0x55fac91e9390&#45;&gt;node_0x55fac91e9310 -->
<g id="edge29" class="edge">
<title>node_0x55fac91e9390&#45;&gt;node_0x55fac91e9310</title>
<path fill="none" stroke="black" d="M630.81,-97.93C626.73,-86.67 622.03,-73.71 617.8,-62.02"/>
<polygon fill="black" stroke="black" points="621.07,-60.78 614.37,-52.57 614.49,-63.16 621.07,-60.78"/>
</g>
<!-- node_0x55fac91e9350 -->
<g id="node31" class="node">
<title>node_0x55fac91e9350</title>
<ellipse fill="#ffffcc" stroke="black" cx="677.42" cy="-26.87" rx="26.74" ry="26.74"/>
<text text-anchor="middle" x="677.42" y="-30.67" font-family="Times,serif" font-size="14.00">[1]</text>
<text text-anchor="middle" x="677.42" y="-15.67" font-family="Times,serif" font-size="14.00">2</text>
</g>
<!-- node_0x55fac91e9390&#45;&gt;node_0x55fac91e9350 -->
<g id="edge30" class="edge">
<title>node_0x55fac91e9390&#45;&gt;node_0x55fac91e9350</title>
<path fill="none" stroke="black" d="M652.03,-97.93C656.11,-86.67 660.81,-73.71 665.04,-62.02"/>
<polygon fill="black" stroke="black" points="668.35,-63.16 668.47,-52.57 661.77,-60.78 668.35,-63.16"/>
</g>
<!-- node_0x55fac91e9610 -->
<g id="node37" class="node">
<title>node_0x55fac91e9610</title>
<ellipse fill="#ffffcc" stroke="black" cx="776.42" cy="-579.86" rx="26.74" ry="26.74"/>
<text text-anchor="middle" x="776.42" y="-583.66" font-family="Times,serif" font-size="14.00">[1]</text>
<text text-anchor="middle" x="776.42" y="-568.66" font-family="Times,serif" font-size="14.00">2</text>
</g>
<!-- node_0x55fac91e9690&#45;&gt;node_0x55fac91e9610 -->
<g id="edge36" class="edge">
<title>node_0x55fac91e9690&#45;&gt;node_0x55fac91e9610</title>
<path fill="none" stroke="black" d="M777.08,-654.53C776.97,-642.46 776.85,-629.09 776.75,-617.09"/>
<polygon fill="black" stroke="black" points="780.24,-616.94 776.65,-606.97 773.24,-617 780.24,-616.94"/>
</g>
<!-- node_0x55fac91e9650 -->
<g id="node38" class="node">
<title>node_0x55fac91e9650</title>
<ellipse fill="#ffffcc" stroke="black" cx="848.42" cy="-579.86" rx="26.74" ry="26.74"/>
<text text-anchor="middle" x="848.42" y="-583.66" font-family="Times,serif" font-size="14.00">[1]</text>
<text text-anchor="middle" x="848.42" y="-568.66" font-family="Times,serif" font-size="14.00">2</text>
</g>
<!-- node_0x55fac91e9690&#45;&gt;node_0x55fac91e9650 -->
<g id="edge37" class="edge">
<title>node_0x55fac91e9690&#45;&gt;node_0x55fac91e9650</title>
<path fill="none" stroke="black" d="M793.53,-666.6C803.98,-650.28 817.67,-628.89 828.76,-611.57"/>
<polygon fill="black" stroke="black" points="831.85,-613.23 834.29,-602.92 825.95,-609.46 831.85,-613.23"/>
</g>
</g>
</svg>
