<?xml version="1.0" encoding="UTF-8" standalone="no"?>
<!DOCTYPE svg PUBLIC "-//W3C//DTD SVG 1.1//EN"
 "http://www.w3.org/Graphics/SVG/1.1/DTD/svg11.dtd">
<!-- Generated by graphviz version 2.43.0 (0)
 -->
<!-- Title: list Pages: 1 -->
<svg width="1249pt" height="1180pt"
 viewBox="0.00 0.00 1248.73 1180.40" xmlns="http://www.w3.org/2000/svg" xmlns:xlink="http://www.w3.org/1999/xlink">
<g id="graph0" class="graph" transform="scale(1 1) rotate(0) translate(4 1176.4)">
<title>list</title>
<polygon fill="white" stroke="transparent" points="-4,4 -4,-1176.4 1244.73,-1176.4 1244.73,4 -4,4"/>
<!-- node_0x55dd86e09680 -->
<g id="node1" class="node">
<title>node_0x55dd86e09680</title>
<polygon fill="#ffcccc" stroke="black" points="415.7,-1122.07 449.87,-1095.53 484.04,-1122.07 484.01,-1165.02 415.73,-1165.02 415.7,-1122.07"/>
<text text-anchor="middle" x="449.87" y="-1139.14" font-family="Times,serif" font-size="16.00">[1]</text>
<text text-anchor="middle" x="449.87" y="-1121.14" font-family="Times,serif" font-size="16.00">{</text>
</g>
<!-- node_0x55dd86e09840 -->
<g id="node2" class="node">
<title>node_0x55dd86e09840</title>
<polygon fill="#ffcccc" stroke="black" points="415.7,-1009.16 449.87,-982.61 484.04,-1009.16 484.01,-1052.11 415.73,-1052.11 415.7,-1009.16"/>
<text text-anchor="middle" x="449.87" y="-1026.23" font-family="Times,serif" font-size="16.00">[3]</text>
<text text-anchor="middle" x="449.87" y="-1008.23" font-family="Times,serif" font-size="16.00">;</text>
</g>
<!-- node_0x55dd86e09680&#45;&gt;node_0x55dd86e09840 -->
<g id="edge1" class="edge">
<title>node_0x55dd86e09680&#45;&gt;node_0x55dd86e09840</title>
<path fill="none" stroke="black" d="M449.87,-1095.39C449.87,-1084.72 449.87,-1073.07 449.87,-1062.25"/>
<polygon fill="black" stroke="black" points="453.37,-1062.19 449.87,-1052.19 446.37,-1062.19 453.37,-1062.19"/>
</g>
<!-- node_0x55dd86e097c0 -->
<g id="node3" class="node">
<title>node_0x55dd86e097c0</title>
<polygon fill="#ccccff" stroke="black" points="313.53,-897.78 386.87,-874.69 460.21,-897.78 460.14,-935.16 313.6,-935.16 313.53,-897.78"/>
<text text-anchor="middle" x="386.87" y="-911.91" font-family="Times,serif" font-size="14.00">[2]</text>
<text text-anchor="middle" x="386.87" y="-896.91" font-family="Times,serif" font-size="14.00">VAR_DEF</text>
</g>
<!-- node_0x55dd86e09840&#45;&gt;node_0x55dd86e097c0 -->
<g id="edge2" class="edge">
<title>node_0x55dd86e09840&#45;&gt;node_0x55dd86e097c0</title>
<path fill="none" stroke="black" d="M435.1,-994.02C426.71,-979.25 416.09,-960.55 406.95,-944.46"/>
<polygon fill="black" stroke="black" points="409.75,-942.31 401.77,-935.34 403.66,-945.76 409.75,-942.31"/>
</g>
<!-- node_0x55dd86e09a00 -->
<g id="node6" class="node">
<title>node_0x55dd86e09a00</title>
<polygon fill="#ffcccc" stroke="black" points="478.7,-896.24 512.87,-869.7 547.04,-896.24 547.01,-939.19 478.73,-939.19 478.7,-896.24"/>
<text text-anchor="middle" x="512.87" y="-913.31" font-family="Times,serif" font-size="16.00">[3]</text>
<text text-anchor="middle" x="512.87" y="-895.31" font-family="Times,serif" font-size="16.00">;</text>
</g>
<!-- node_0x55dd86e09840&#45;&gt;node_0x55dd86e09a00 -->
<g id="edge5" class="edge">
<title>node_0x55dd86e09840&#45;&gt;node_0x55dd86e09a00</title>
<path fill="none" stroke="black" d="M464.64,-994.02C472.42,-980.32 482.13,-963.24 490.78,-948"/>
<polygon fill="black" stroke="black" points="493.84,-949.7 495.74,-939.27 487.76,-946.24 493.84,-949.7"/>
</g>
<!-- node_0x55dd86e09780 -->
<g id="node4" class="node">
<title>node_0x55dd86e09780</title>
<ellipse fill="#ccffff" stroke="black" cx="316.87" cy="-795.2" rx="26.74" ry="26.74"/>
<text text-anchor="middle" x="316.87" y="-799" font-family="Times,serif" font-size="14.00">[1]</text>
<text text-anchor="middle" x="316.87" y="-784" font-family="Times,serif" font-size="14.00">A</text>
</g>
<!-- node_0x55dd86e097c0&#45;&gt;node_0x55dd86e09780 -->
<g id="edge3" class="edge">
<title>node_0x55dd86e097c0&#45;&gt;node_0x55dd86e09780</title>
<path fill="none" stroke="black" d="M369.75,-879.98C359.64,-863.96 346.81,-843.64 336.32,-827.02"/>
<polygon fill="black" stroke="black" points="339.06,-824.8 330.77,-818.21 333.14,-828.54 339.06,-824.8"/>
</g>
<!-- node_0x55dd86e09800 -->
<g id="node5" class="node">
<title>node_0x55dd86e09800</title>
<ellipse fill="#ffffcc" stroke="black" cx="388.87" cy="-795.2" rx="26.74" ry="26.74"/>
<text text-anchor="middle" x="388.87" y="-799" font-family="Times,serif" font-size="14.00">[1]</text>
<text text-anchor="middle" x="388.87" y="-784" font-family="Times,serif" font-size="14.00">48</text>
</g>
<!-- node_0x55dd86e097c0&#45;&gt;node_0x55dd86e09800 -->
<g id="edge4" class="edge">
<title>node_0x55dd86e097c0&#45;&gt;node_0x55dd86e09800</title>
<path fill="none" stroke="black" d="M387.45,-874.73C387.69,-861.38 387.97,-845.86 388.22,-832.16"/>
<polygon fill="black" stroke="black" points="391.72,-832.16 388.4,-822.1 384.72,-832.04 391.72,-832.16"/>
</g>
<!-- node_0x55dd86e09980 -->
<g id="node7" class="node">
<title>node_0x55dd86e09980</title>
<polygon fill="#ccccff" stroke="black" points="437.53,-784.87 510.87,-761.77 584.21,-784.87 584.14,-822.24 437.6,-822.24 437.53,-784.87"/>
<text text-anchor="middle" x="510.87" y="-799" font-family="Times,serif" font-size="14.00">[2]</text>
<text text-anchor="middle" x="510.87" y="-784" font-family="Times,serif" font-size="14.00">VAR_DEF</text>
</g>
<!-- node_0x55dd86e09a00&#45;&gt;node_0x55dd86e09980 -->
<g id="edge6" class="edge">
<title>node_0x55dd86e09a00&#45;&gt;node_0x55dd86e09980</title>
<path fill="none" stroke="black" d="M512.2,-870.18C511.99,-858.09 511.74,-844.68 511.53,-832.63"/>
<polygon fill="black" stroke="black" points="515.02,-832.39 511.34,-822.46 508.02,-832.52 515.02,-832.39"/>
</g>
<!-- node_0x55dd86e0a080 -->
<g id="node10" class="node">
<title>node_0x55dd86e0a080</title>
<polygon fill="#ffcccc" stroke="black" points="616.7,-783.33 650.87,-756.78 685.04,-783.33 685.01,-826.28 616.73,-826.28 616.7,-783.33"/>
<text text-anchor="middle" x="650.87" y="-800.4" font-family="Times,serif" font-size="16.00">[4]</text>
<text text-anchor="middle" x="650.87" y="-782.4" font-family="Times,serif" font-size="16.00">;</text>
</g>
<!-- node_0x55dd86e09a00&#45;&gt;node_0x55dd86e0a080 -->
<g id="edge9" class="edge">
<title>node_0x55dd86e09a00&#45;&gt;node_0x55dd86e0a080</title>
<path fill="none" stroke="black" d="M536.59,-888.05C556.39,-872.13 585.1,-849.06 608.79,-830.02"/>
<polygon fill="black" stroke="black" points="611.01,-832.72 616.61,-823.73 606.63,-827.27 611.01,-832.72"/>
</g>
<!-- node_0x55dd86e09940 -->
<g id="node8" class="node">
<title>node_0x55dd86e09940</title>
<ellipse fill="#ccffff" stroke="black" cx="438.87" cy="-682.28" rx="26.74" ry="26.74"/>
<text text-anchor="middle" x="438.87" y="-686.08" font-family="Times,serif" font-size="14.00">[1]</text>
<text text-anchor="middle" x="438.87" y="-671.08" font-family="Times,serif" font-size="14.00">B</text>
</g>
<!-- node_0x55dd86e09980&#45;&gt;node_0x55dd86e09940 -->
<g id="edge7" class="edge">
<title>node_0x55dd86e09980&#45;&gt;node_0x55dd86e09940</title>
<path fill="none" stroke="black" d="M493.26,-767.07C482.86,-751.05 469.66,-730.72 458.88,-714.1"/>
<polygon fill="black" stroke="black" points="461.54,-711.78 453.16,-705.3 455.67,-715.59 461.54,-711.78"/>
</g>
<!-- node_0x55dd86e099c0 -->
<g id="node9" class="node">
<title>node_0x55dd86e099c0</title>
<ellipse fill="#ffffcc" stroke="black" cx="510.87" cy="-682.28" rx="26.74" ry="26.74"/>
<text text-anchor="middle" x="510.87" y="-686.08" font-family="Times,serif" font-size="14.00">[1]</text>
<text text-anchor="middle" x="510.87" y="-671.08" font-family="Times,serif" font-size="14.00">0</text>
</g>
<!-- node_0x55dd86e09980&#45;&gt;node_0x55dd86e099c0 -->
<g id="edge8" class="edge">
<title>node_0x55dd86e09980&#45;&gt;node_0x55dd86e099c0</title>
<path fill="none" stroke="black" d="M510.87,-761.82C510.87,-748.47 510.87,-732.95 510.87,-719.25"/>
<polygon fill="black" stroke="black" points="514.37,-719.19 510.87,-709.19 507.37,-719.19 514.37,-719.19"/>
</g>
<!-- node_0x55dd86e0a040 -->
<g id="node11" class="node">
<title>node_0x55dd86e0a040</title>
<polygon fill="#ccccff" stroke="black" points="555.83,-671.95 650.87,-648.86 745.91,-671.95 745.82,-709.33 555.92,-709.33 555.83,-671.95"/>
<text text-anchor="middle" x="650.87" y="-686.08" font-family="Times,serif" font-size="14.00">[3]</text>
<text text-anchor="middle" x="650.87" y="-671.08" font-family="Times,serif" font-size="14.00">FUNC_DECL</text>
</g>
<!-- node_0x55dd86e0a080&#45;&gt;node_0x55dd86e0a040 -->
<g id="edge10" class="edge">
<title>node_0x55dd86e0a080&#45;&gt;node_0x55dd86e0a040</title>
<path fill="none" stroke="black" d="M650.87,-756.65C650.87,-744.69 650.87,-731.49 650.87,-719.62"/>
<polygon fill="black" stroke="black" points="654.37,-719.59 650.87,-709.59 647.37,-719.59 654.37,-719.59"/>
</g>
<!-- node_0x55dd86e0a2c0 -->
<g id="node35" class="node">
<title>node_0x55dd86e0a2c0</title>
<polygon fill="#ffcccc" stroke="black" points="778.7,-670.41 812.87,-643.87 847.04,-670.41 847.01,-713.36 778.73,-713.36 778.7,-670.41"/>
<text text-anchor="middle" x="812.87" y="-687.48" font-family="Times,serif" font-size="16.00">[5]</text>
<text text-anchor="middle" x="812.87" y="-669.48" font-family="Times,serif" font-size="16.00">;</text>
</g>
<!-- node_0x55dd86e0a080&#45;&gt;node_0x55dd86e0a2c0 -->
<g id="edge34" class="edge">
<title>node_0x55dd86e0a080&#45;&gt;node_0x55dd86e0a2c0</title>
<path fill="none" stroke="black" d="M676.54,-776.62C701.63,-759.44 740.29,-732.97 770.04,-712.6"/>
<polygon fill="black" stroke="black" points="772.3,-715.3 778.57,-706.77 768.34,-709.53 772.3,-715.3"/>
</g>
<!-- node_0x55dd86e09e00 -->
<g id="node12" class="node">
<title>node_0x55dd86e09e00</title>
<polygon fill="#ccccff" stroke="black" points="413.08,-559.04 505.87,-535.94 598.67,-559.04 598.58,-596.41 413.16,-596.41 413.08,-559.04"/>
<text text-anchor="middle" x="505.87" y="-573.17" font-family="Times,serif" font-size="14.00">[2]</text>
<text text-anchor="middle" x="505.87" y="-558.17" font-family="Times,serif" font-size="14.00">FUNC_INFO</text>
</g>
<!-- node_0x55dd86e0a040&#45;&gt;node_0x55dd86e09e00 -->
<g id="edge11" class="edge">
<title>node_0x55dd86e0a040&#45;&gt;node_0x55dd86e09e00</title>
<path fill="none" stroke="black" d="M618.69,-656.67C597.88,-640.75 570.58,-619.87 548.05,-602.63"/>
<polygon fill="black" stroke="black" points="550.05,-599.76 539.98,-596.46 545.8,-605.32 550.05,-599.76"/>
</g>
<!-- node_0x55dd86e09e40 -->
<g id="node27" class="node">
<title>node_0x55dd86e09e40</title>
<polygon fill="#ffcccc" stroke="black" points="616.7,-557.5 650.87,-530.95 685.04,-557.5 685.01,-600.45 616.73,-600.45 616.7,-557.5"/>
<text text-anchor="middle" x="650.87" y="-574.57" font-family="Times,serif" font-size="16.00">[1]</text>
<text text-anchor="middle" x="650.87" y="-556.57" font-family="Times,serif" font-size="16.00">{</text>
</g>
<!-- node_0x55dd86e0a040&#45;&gt;node_0x55dd86e09e40 -->
<g id="edge26" class="edge">
<title>node_0x55dd86e0a040&#45;&gt;node_0x55dd86e09e40</title>
<path fill="none" stroke="black" d="M650.87,-648.9C650.87,-637.01 650.87,-623.4 650.87,-610.89"/>
<polygon fill="black" stroke="black" points="654.37,-610.7 650.87,-600.7 647.37,-610.7 654.37,-610.7"/>
</g>
<!-- node_0x55dd86e09a80 -->
<g id="node13" class="node">
<title>node_0x55dd86e09a80</title>
<polygon fill="#ccccff" stroke="black" points="196.4,-446.12 324.87,-423.03 453.34,-446.12 453.22,-483.5 196.52,-483.5 196.4,-446.12"/>
<text text-anchor="middle" x="324.87" y="-460.25" font-family="Times,serif" font-size="14.00">[1]</text>
<text text-anchor="middle" x="324.87" y="-445.25" font-family="Times,serif" font-size="14.00">FUNC_ARG_DECL</text>
</g>
<!-- node_0x55dd86e09e00&#45;&gt;node_0x55dd86e09a80 -->
<g id="edge12" class="edge">
<title>node_0x55dd86e09e00&#45;&gt;node_0x55dd86e09a80</title>
<path fill="none" stroke="black" d="M467.93,-545.12C441.34,-528.83 405.49,-506.86 376.34,-488.99"/>
<polygon fill="black" stroke="black" points="377.87,-485.83 367.52,-483.59 374.22,-491.8 377.87,-485.83"/>
</g>
<!-- node_0x55dd86e09a40 -->
<g id="node26" class="node">
<title>node_0x55dd86e09a40</title>
<ellipse fill="#ccffff" stroke="black" cx="507.87" cy="-456.45" rx="36.54" ry="36.54"/>
<text text-anchor="middle" x="507.87" y="-460.25" font-family="Times,serif" font-size="14.00">[1]</text>
<text text-anchor="middle" x="507.87" y="-445.25" font-family="Times,serif" font-size="14.00">main</text>
</g>
<!-- node_0x55dd86e09e00&#45;&gt;node_0x55dd86e09a40 -->
<g id="edge25" class="edge">
<title>node_0x55dd86e09e00&#45;&gt;node_0x55dd86e09a40</title>
<path fill="none" stroke="black" d="M506.45,-535.99C506.64,-525.91 506.84,-514.59 507.04,-503.76"/>
<polygon fill="black" stroke="black" points="510.54,-503.63 507.22,-493.57 503.54,-503.51 510.54,-503.63"/>
</g>
<!-- node_0x55dd86e09b00 -->
<g id="node14" class="node">
<title>node_0x55dd86e09b00</title>
<polygon fill="#ccccff" stroke="black" points="31.53,-338.45 104.87,-315.36 178.21,-338.45 178.14,-375.83 31.6,-375.83 31.53,-338.45"/>
<text text-anchor="middle" x="104.87" y="-352.58" font-family="Times,serif" font-size="14.00">[2]</text>
<text text-anchor="middle" x="104.87" y="-337.58" font-family="Times,serif" font-size="14.00">VAR_DEF</text>
</g>
<!-- node_0x55dd86e09a80&#45;&gt;node_0x55dd86e09b00 -->
<g id="edge13" class="edge">
<title>node_0x55dd86e09a80&#45;&gt;node_0x55dd86e09b00</title>
<path fill="none" stroke="black" d="M275.5,-431.74C244,-416.61 202.86,-396.85 168.87,-380.52"/>
<polygon fill="black" stroke="black" points="170.01,-377.19 159.48,-376.01 166.98,-383.5 170.01,-377.19"/>
</g>
<!-- node_0x55dd86e09c40 -->
<g id="node19" class="node">
<title>node_0x55dd86e09c40</title>
<polygon fill="#ccccff" stroke="black" points="196.4,-338.45 324.87,-315.36 453.34,-338.45 453.22,-375.83 196.52,-375.83 196.4,-338.45"/>
<text text-anchor="middle" x="324.87" y="-352.58" font-family="Times,serif" font-size="14.00">[1]</text>
<text text-anchor="middle" x="324.87" y="-337.58" font-family="Times,serif" font-size="14.00">FUNC_ARG_DECL</text>
</g>
<!-- node_0x55dd86e09a80&#45;&gt;node_0x55dd86e09c40 -->
<g id="edge18" class="edge">
<title>node_0x55dd86e09a80&#45;&gt;node_0x55dd86e09c40</title>
<path fill="none" stroke="black" d="M324.87,-423.17C324.87,-411.44 324.87,-398.1 324.87,-386.04"/>
<polygon fill="black" stroke="black" points="328.37,-385.85 324.87,-375.85 321.37,-385.85 328.37,-385.85"/>
</g>
<!-- node_0x55dd86e09b40 -->
<g id="node15" class="node">
<title>node_0x55dd86e09b40</title>
<ellipse fill="#ccffff" stroke="black" cx="26.87" cy="-241.11" rx="26.74" ry="26.74"/>
<text text-anchor="middle" x="26.87" y="-244.91" font-family="Times,serif" font-size="14.00">[1]</text>
<text text-anchor="middle" x="26.87" y="-229.91" font-family="Times,serif" font-size="14.00">a</text>
</g>
<!-- node_0x55dd86e09b00&#45;&gt;node_0x55dd86e09b40 -->
<g id="edge14" class="edge">
<title>node_0x55dd86e09b00&#45;&gt;node_0x55dd86e09b40</title>
<path fill="none" stroke="black" d="M85.39,-321.39C74.2,-306.23 60.11,-287.15 48.57,-271.5"/>
<polygon fill="black" stroke="black" points="51.2,-269.18 42.45,-263.22 45.57,-273.34 51.2,-269.18"/>
</g>
<!-- node_0x55dd86e09c00 -->
<g id="node16" class="node">
<title>node_0x55dd86e09c00</title>
<polygon fill="#ffcccc" stroke="black" points="71.7,-229.24 105.87,-202.7 140.04,-229.24 140.01,-272.19 71.73,-272.19 71.7,-229.24"/>
<text text-anchor="middle" x="105.87" y="-246.31" font-family="Times,serif" font-size="16.00">[2]</text>
<text text-anchor="middle" x="105.87" y="-228.31" font-family="Times,serif" font-size="16.00">/</text>
</g>
<!-- node_0x55dd86e09b00&#45;&gt;node_0x55dd86e09c00 -->
<g id="edge15" class="edge">
<title>node_0x55dd86e09b00&#45;&gt;node_0x55dd86e09c00</title>
<path fill="none" stroke="black" d="M105.18,-315.5C105.27,-305.11 105.38,-293.46 105.49,-282.55"/>
<polygon fill="black" stroke="black" points="108.99,-282.42 105.58,-272.39 101.99,-282.36 108.99,-282.42"/>
</g>
<!-- node_0x55dd86e09b80 -->
<g id="node17" class="node">
<title>node_0x55dd86e09b80</title>
<ellipse fill="#ccffff" stroke="black" cx="96.87" cy="-128.2" rx="26.74" ry="26.74"/>
<text text-anchor="middle" x="96.87" y="-132" font-family="Times,serif" font-size="14.00">[1]</text>
<text text-anchor="middle" x="96.87" y="-117" font-family="Times,serif" font-size="14.00">A</text>
</g>
<!-- node_0x55dd86e09c00&#45;&gt;node_0x55dd86e09b80 -->
<g id="edge16" class="edge">
<title>node_0x55dd86e09c00&#45;&gt;node_0x55dd86e09b80</title>
<path fill="none" stroke="black" d="M103,-204.71C101.98,-192.13 100.83,-177.96 99.8,-165.32"/>
<polygon fill="black" stroke="black" points="103.27,-164.82 98.97,-155.13 96.29,-165.38 103.27,-164.82"/>
</g>
<!-- node_0x55dd86e09bc0 -->
<g id="node18" class="node">
<title>node_0x55dd86e09bc0</title>
<ellipse fill="#ffffcc" stroke="black" cx="168.87" cy="-128.2" rx="26.74" ry="26.74"/>
<text text-anchor="middle" x="168.87" y="-132" font-family="Times,serif" font-size="14.00">[1]</text>
<text text-anchor="middle" x="168.87" y="-117" font-family="Times,serif" font-size="14.00">2</text>
</g>
<!-- node_0x55dd86e09c00&#45;&gt;node_0x55dd86e09bc0 -->
<g id="edge17" class="edge">
<title>node_0x55dd86e09c00&#45;&gt;node_0x55dd86e09bc0</title>
<path fill="none" stroke="black" d="M120.64,-214.11C129.66,-198.22 141.26,-177.8 150.83,-160.96"/>
<polygon fill="black" stroke="black" points="154,-162.45 155.9,-152.03 147.92,-159 154,-162.45"/>
</g>
<!-- node_0x55dd86e09cc0 -->
<g id="node20" class="node">
<title>node_0x55dd86e09cc0</title>
<polygon fill="#ccccff" stroke="black" points="170.53,-230.78 243.87,-207.68 317.21,-230.78 317.14,-268.16 170.6,-268.16 170.53,-230.78"/>
<text text-anchor="middle" x="243.87" y="-244.91" font-family="Times,serif" font-size="14.00">[2]</text>
<text text-anchor="middle" x="243.87" y="-229.91" font-family="Times,serif" font-size="14.00">VAR_DEF</text>
</g>
<!-- node_0x55dd86e09c40&#45;&gt;node_0x55dd86e09cc0 -->
<g id="edge19" class="edge">
<title>node_0x55dd86e09c40&#45;&gt;node_0x55dd86e09cc0</title>
<path fill="none" stroke="black" d="M302.95,-319.19C292.86,-306.03 280.81,-290.3 270.23,-276.5"/>
<polygon fill="black" stroke="black" points="272.73,-274 263.86,-268.2 267.17,-278.26 272.73,-274"/>
</g>
<!-- node_0x55dd86e09dc0 -->
<g id="node25" class="node">
<title>node_0x55dd86e09dc0</title>
<polygon fill="#ccccff" stroke="black" points="335.4,-230.78 463.87,-207.68 592.34,-230.78 592.22,-268.16 335.52,-268.16 335.4,-230.78"/>
<text text-anchor="middle" x="463.87" y="-244.91" font-family="Times,serif" font-size="14.00">[1]</text>
<text text-anchor="middle" x="463.87" y="-229.91" font-family="Times,serif" font-size="14.00">FUNC_ARG_DECL</text>
</g>
<!-- node_0x55dd86e09c40&#45;&gt;node_0x55dd86e09dc0 -->
<g id="edge24" class="edge">
<title>node_0x55dd86e09c40&#45;&gt;node_0x55dd86e09dc0</title>
<path fill="none" stroke="black" d="M359.59,-321.39C378.39,-307.1 401.76,-289.33 421.61,-274.24"/>
<polygon fill="black" stroke="black" points="423.75,-277.01 429.6,-268.17 419.52,-271.43 423.75,-277.01"/>
</g>
<!-- node_0x55dd86e09d00 -->
<g id="node21" class="node">
<title>node_0x55dd86e09d00</title>
<ellipse fill="#ccffff" stroke="black" cx="241.87" cy="-128.2" rx="26.74" ry="26.74"/>
<text text-anchor="middle" x="241.87" y="-132" font-family="Times,serif" font-size="14.00">[1]</text>
<text text-anchor="middle" x="241.87" y="-117" font-family="Times,serif" font-size="14.00">b</text>
</g>
<!-- node_0x55dd86e09cc0&#45;&gt;node_0x55dd86e09d00 -->
<g id="edge20" class="edge">
<title>node_0x55dd86e09cc0&#45;&gt;node_0x55dd86e09d00</title>
<path fill="none" stroke="black" d="M243.29,-207.73C243.05,-194.38 242.77,-178.86 242.52,-165.16"/>
<polygon fill="black" stroke="black" points="246.02,-165.04 242.34,-155.1 239.02,-165.16 246.02,-165.04"/>
</g>
<!-- node_0x55dd86e09d80 -->
<g id="node22" class="node">
<title>node_0x55dd86e09d80</title>
<polygon fill="#ffcccc" stroke="black" points="286.7,-116.33 320.87,-89.78 355.04,-116.33 355.01,-159.28 286.73,-159.28 286.7,-116.33"/>
<text text-anchor="middle" x="320.87" y="-133.4" font-family="Times,serif" font-size="16.00">[2]</text>
<text text-anchor="middle" x="320.87" y="-115.4" font-family="Times,serif" font-size="16.00">/</text>
</g>
<!-- node_0x55dd86e09cc0&#45;&gt;node_0x55dd86e09d80 -->
<g id="edge21" class="edge">
<title>node_0x55dd86e09cc0&#45;&gt;node_0x55dd86e09d80</title>
<path fill="none" stroke="black" d="M262.51,-213.26C271.96,-199.65 283.61,-182.87 294.01,-167.89"/>
<polygon fill="black" stroke="black" points="297.13,-169.53 299.96,-159.32 291.38,-165.54 297.13,-169.53"/>
</g>
<!-- node_0x55dd86e09c80 -->
<g id="node23" class="node">
<title>node_0x55dd86e09c80</title>
<ellipse fill="#ccffff" stroke="black" cx="284.87" cy="-26.87" rx="26.74" ry="26.74"/>
<text text-anchor="middle" x="284.87" y="-30.67" font-family="Times,serif" font-size="14.00">[1]</text>
<text text-anchor="middle" x="284.87" y="-15.67" font-family="Times,serif" font-size="14.00">A</text>
</g>
<!-- node_0x55dd86e09d80&#45;&gt;node_0x55dd86e09c80 -->
<g id="edge22" class="edge">
<title>node_0x55dd86e09d80&#45;&gt;node_0x55dd86e09c80</title>
<path fill="none" stroke="black" d="M310.26,-97.93C306.18,-86.67 301.48,-73.71 297.25,-62.02"/>
<polygon fill="black" stroke="black" points="300.52,-60.78 293.82,-52.57 293.94,-63.16 300.52,-60.78"/>
</g>
<!-- node_0x55dd86e09d40 -->
<g id="node24" class="node">
<title>node_0x55dd86e09d40</title>
<ellipse fill="#ffffcc" stroke="black" cx="356.87" cy="-26.87" rx="26.74" ry="26.74"/>
<text text-anchor="middle" x="356.87" y="-30.67" font-family="Times,serif" font-size="14.00">[1]</text>
<text text-anchor="middle" x="356.87" y="-15.67" font-family="Times,serif" font-size="14.00">2</text>
</g>
<!-- node_0x55dd86e09d80&#45;&gt;node_0x55dd86e09d40 -->
<g id="edge23" class="edge">
<title>node_0x55dd86e09d80&#45;&gt;node_0x55dd86e09d40</title>
<path fill="none" stroke="black" d="M331.48,-97.93C335.56,-86.67 340.26,-73.71 344.49,-62.02"/>
<polygon fill="black" stroke="black" points="347.8,-63.16 347.92,-52.57 341.22,-60.78 347.8,-63.16"/>
</g>
<!-- node_0x55dd86e0a000 -->
<g id="node28" class="node">
<title>node_0x55dd86e0a000</title>
<polygon fill="#ffcccc" stroke="black" points="611.7,-444.58 645.87,-418.04 680.04,-444.58 680.01,-487.53 611.73,-487.53 611.7,-444.58"/>
<text text-anchor="middle" x="645.87" y="-461.65" font-family="Times,serif" font-size="16.00">[5]</text>
<text text-anchor="middle" x="645.87" y="-443.65" font-family="Times,serif" font-size="16.00">;</text>
</g>
<!-- node_0x55dd86e09e40&#45;&gt;node_0x55dd86e0a000 -->
<g id="edge27" class="edge">
<title>node_0x55dd86e09e40&#45;&gt;node_0x55dd86e0a000</title>
<path fill="none" stroke="black" d="M649.23,-532.05C648.74,-521.02 648.19,-508.84 647.68,-497.58"/>
<polygon fill="black" stroke="black" points="651.17,-497.38 647.23,-487.55 644.18,-497.7 651.17,-497.38"/>
</g>
<!-- node_0x55dd86e09fc0 -->
<g id="node29" class="node">
<title>node_0x55dd86e09fc0</title>
<polygon fill="#ccccff" stroke="black" points="595.23,-338.45 644.87,-315.36 694.51,-338.45 694.46,-375.83 595.28,-375.83 595.23,-338.45"/>
<text text-anchor="middle" x="644.87" y="-352.58" font-family="Times,serif" font-size="14.00">[4]</text>
<text text-anchor="middle" x="644.87" y="-337.58" font-family="Times,serif" font-size="14.00">EXPR</text>
</g>
<!-- node_0x55dd86e0a000&#45;&gt;node_0x55dd86e09fc0 -->
<g id="edge28" class="edge">
<title>node_0x55dd86e0a000&#45;&gt;node_0x55dd86e09fc0</title>
<path fill="none" stroke="black" d="M645.52,-418.2C645.42,-407.88 645.31,-396.69 645.22,-386.4"/>
<polygon fill="black" stroke="black" points="648.71,-386.06 645.12,-376.09 641.71,-386.12 648.71,-386.06"/>
</g>
<!-- node_0x55dd86e09f80 -->
<g id="node30" class="node">
<title>node_0x55dd86e09f80</title>
<polygon fill="#ffcccc" stroke="black" points="610.7,-229.24 644.87,-202.7 679.04,-229.24 679.01,-272.19 610.73,-272.19 610.7,-229.24"/>
<text text-anchor="middle" x="644.87" y="-246.31" font-family="Times,serif" font-size="16.00">[3]</text>
<text text-anchor="middle" x="644.87" y="-228.31" font-family="Times,serif" font-size="16.00">=</text>
</g>
<!-- node_0x55dd86e09fc0&#45;&gt;node_0x55dd86e09f80 -->
<g id="edge29" class="edge">
<title>node_0x55dd86e09fc0&#45;&gt;node_0x55dd86e09f80</title>
<path fill="none" stroke="black" d="M644.87,-315.5C644.87,-305.11 644.87,-293.46 644.87,-282.55"/>
<polygon fill="black" stroke="black" points="648.37,-282.39 644.87,-272.39 641.37,-282.39 648.37,-282.39"/>
</g>
<!-- node_0x55dd86e09e80 -->
<g id="node31" class="node">
<title>node_0x55dd86e09e80</title>
<ellipse fill="#ccffff" stroke="black" cx="582.87" cy="-128.2" rx="26.74" ry="26.74"/>
<text text-anchor="middle" x="582.87" y="-132" font-family="Times,serif" font-size="14.00">[1]</text>
<text text-anchor="middle" x="582.87" y="-117" font-family="Times,serif" font-size="14.00">B</text>
</g>
<!-- node_0x55dd86e09f80&#45;&gt;node_0x55dd86e09e80 -->
<g id="edge30" class="edge">
<title>node_0x55dd86e09f80&#45;&gt;node_0x55dd86e09e80</title>
<path fill="none" stroke="black" d="M630.18,-213.83C621.29,-197.94 609.91,-177.58 600.54,-160.81"/>
<polygon fill="black" stroke="black" points="603.5,-158.94 595.57,-151.92 597.39,-162.35 603.5,-158.94"/>
</g>
<!-- node_0x55dd86e09f40 -->
<g id="node32" class="node">
<title>node_0x55dd86e09f40</title>
<polygon fill="#ffcccc" stroke="black" points="627.7,-116.33 661.87,-89.78 696.04,-116.33 696.01,-159.28 627.73,-159.28 627.7,-116.33"/>
<text text-anchor="middle" x="661.87" y="-133.4" font-family="Times,serif" font-size="16.00">[2]</text>
<text text-anchor="middle" x="661.87" y="-115.4" font-family="Times,serif" font-size="16.00">+</text>
</g>
<!-- node_0x55dd86e09f80&#45;&gt;node_0x55dd86e09f40 -->
<g id="edge31" class="edge">
<title>node_0x55dd86e09f80&#45;&gt;node_0x55dd86e09f40</title>
<path fill="none" stroke="black" d="M650.02,-206.53C651.8,-194.88 653.83,-181.69 655.69,-169.54"/>
<polygon fill="black" stroke="black" points="659.15,-170.06 657.2,-159.64 652.23,-169 659.15,-170.06"/>
</g>
<!-- node_0x55dd86e09ec0 -->
<g id="node33" class="node">
<title>node_0x55dd86e09ec0</title>
<ellipse fill="#ccffff" stroke="black" cx="625.87" cy="-26.87" rx="26.74" ry="26.74"/>
<text text-anchor="middle" x="625.87" y="-30.67" font-family="Times,serif" font-size="14.00">[1]</text>
<text text-anchor="middle" x="625.87" y="-15.67" font-family="Times,serif" font-size="14.00">a</text>
</g>
<!-- node_0x55dd86e09f40&#45;&gt;node_0x55dd86e09ec0 -->
<g id="edge32" class="edge">
<title>node_0x55dd86e09f40&#45;&gt;node_0x55dd86e09ec0</title>
<path fill="none" stroke="black" d="M651.26,-97.93C647.18,-86.67 642.48,-73.71 638.25,-62.02"/>
<polygon fill="black" stroke="black" points="641.52,-60.78 634.82,-52.57 634.94,-63.16 641.52,-60.78"/>
</g>
<!-- node_0x55dd86e09f00 -->
<g id="node34" class="node">
<title>node_0x55dd86e09f00</title>
<ellipse fill="#ccffff" stroke="black" cx="697.87" cy="-26.87" rx="26.74" ry="26.74"/>
<text text-anchor="middle" x="697.87" y="-30.67" font-family="Times,serif" font-size="14.00">[1]</text>
<text text-anchor="middle" x="697.87" y="-15.67" font-family="Times,serif" font-size="14.00">b</text>
</g>
<!-- node_0x55dd86e09f40&#45;&gt;node_0x55dd86e09f00 -->
<g id="edge33" class="edge">
<title>node_0x55dd86e09f40&#45;&gt;node_0x55dd86e09f00</title>
<path fill="none" stroke="black" d="M672.48,-97.93C676.56,-86.67 681.26,-73.71 685.49,-62.02"/>
<polygon fill="black" stroke="black" points="688.8,-63.16 688.92,-52.57 682.22,-60.78 688.8,-63.16"/>
</g>
<!-- node_0x55dd86e0a280 -->
<g id="node36" class="node">
<title>node_0x55dd86e0a280</title>
<polygon fill="#ccccff" stroke="black" points="763.23,-559.04 812.87,-535.94 862.51,-559.04 862.46,-596.41 763.28,-596.41 763.23,-559.04"/>
<text text-anchor="middle" x="812.87" y="-573.17" font-family="Times,serif" font-size="14.00">[4]</text>
<text text-anchor="middle" x="812.87" y="-558.17" font-family="Times,serif" font-size="14.00">EXPR</text>
</g>
<!-- node_0x55dd86e0a2c0&#45;&gt;node_0x55dd86e0a280 -->
<g id="edge35" class="edge">
<title>node_0x55dd86e0a2c0&#45;&gt;node_0x55dd86e0a280</title>
<path fill="none" stroke="black" d="M812.87,-643.73C812.87,-631.78 812.87,-618.57 812.87,-606.7"/>
<polygon fill="black" stroke="black" points="816.37,-606.68 812.87,-596.68 809.37,-606.68 816.37,-606.68"/>
</g>
<!-- node_0x55dd86e0a380 -->
<g id="node44" class="node">
<title>node_0x55dd86e0a380</title>
<polygon fill="#ffcccc" stroke="black" points="910.7,-557.5 944.87,-530.95 979.04,-557.5 979.01,-600.45 910.73,-600.45 910.7,-557.5"/>
<text text-anchor="middle" x="944.87" y="-574.57" font-family="Times,serif" font-size="16.00">[3]</text>
<text text-anchor="middle" x="944.87" y="-556.57" font-family="Times,serif" font-size="16.00">;</text>
</g>
<!-- node_0x55dd86e0a2c0&#45;&gt;node_0x55dd86e0a380 -->
<g id="edge43" class="edge">
<title>node_0x55dd86e0a2c0&#45;&gt;node_0x55dd86e0a380</title>
<path fill="none" stroke="black" d="M836.17,-661.71C854.56,-646.26 880.7,-624.29 902.74,-605.77"/>
<polygon fill="black" stroke="black" points="905.25,-608.23 910.65,-599.12 900.74,-602.87 905.25,-608.23"/>
</g>
<!-- node_0x55dd86e0a240 -->
<g id="node37" class="node">
<title>node_0x55dd86e0a240</title>
<polygon fill="#ffcccc" stroke="black" points="778.7,-444.58 812.87,-418.04 847.04,-444.58 847.01,-487.53 778.73,-487.53 778.7,-444.58"/>
<text text-anchor="middle" x="812.87" y="-461.65" font-family="Times,serif" font-size="16.00">[3]</text>
<text text-anchor="middle" x="812.87" y="-443.65" font-family="Times,serif" font-size="16.00">=</text>
</g>
<!-- node_0x55dd86e0a280&#45;&gt;node_0x55dd86e0a240 -->
<g id="edge36" class="edge">
<title>node_0x55dd86e0a280&#45;&gt;node_0x55dd86e0a240</title>
<path fill="none" stroke="black" d="M812.87,-535.99C812.87,-524.1 812.87,-510.49 812.87,-497.97"/>
<polygon fill="black" stroke="black" points="816.37,-497.78 812.87,-487.78 809.37,-497.78 816.37,-497.78"/>
</g>
<!-- node_0x55dd86e0a0c0 -->
<g id="node38" class="node">
<title>node_0x55dd86e0a0c0</title>
<ellipse fill="#ccffff" stroke="black" cx="739.87" cy="-348.78" rx="26.74" ry="26.74"/>
<text text-anchor="middle" x="739.87" y="-352.58" font-family="Times,serif" font-size="14.00">[1]</text>
<text text-anchor="middle" x="739.87" y="-337.58" font-family="Times,serif" font-size="14.00">A</text>
</g>
<!-- node_0x55dd86e0a240&#45;&gt;node_0x55dd86e0a0c0 -->
<g id="edge37" class="edge">
<title>node_0x55dd86e0a240&#45;&gt;node_0x55dd86e0a0c0</title>
<path fill="none" stroke="black" d="M795.94,-430.95C785.42,-415.72 771.82,-396.03 760.65,-379.87"/>
<polygon fill="black" stroke="black" points="763.29,-377.53 754.73,-371.29 757.53,-381.51 763.29,-377.53"/>
</g>
<!-- node_0x55dd86e0a140 -->
<g id="node39" class="node">
<title>node_0x55dd86e0a140</title>
<polygon fill="#ccccff" stroke="black" points="785.08,-338.45 877.87,-315.36 970.67,-338.45 970.58,-375.83 785.16,-375.83 785.08,-338.45"/>
<text text-anchor="middle" x="877.87" y="-352.58" font-family="Times,serif" font-size="14.00">[2]</text>
<text text-anchor="middle" x="877.87" y="-337.58" font-family="Times,serif" font-size="14.00">FUNC_CALL</text>
</g>
<!-- node_0x55dd86e0a240&#45;&gt;node_0x55dd86e0a140 -->
<g id="edge38" class="edge">
<title>node_0x55dd86e0a240&#45;&gt;node_0x55dd86e0a140</title>
<path fill="none" stroke="black" d="M828.6,-429.87C836.94,-416.32 847.31,-399.46 856.38,-384.72"/>
<polygon fill="black" stroke="black" points="859.57,-386.21 861.83,-375.86 853.61,-382.55 859.57,-386.21"/>
</g>
<!-- node_0x55dd86e0a180 -->
<g id="node40" class="node">
<title>node_0x55dd86e0a180</title>
<polygon fill="#ccccff" stroke="black" points="743.15,-230.78 868.87,-207.68 994.59,-230.78 994.47,-268.16 743.27,-268.16 743.15,-230.78"/>
<text text-anchor="middle" x="868.87" y="-244.91" font-family="Times,serif" font-size="14.00">[1]</text>
<text text-anchor="middle" x="868.87" y="-229.91" font-family="Times,serif" font-size="14.00">FUNC_ARG_CALL</text>
</g>
<!-- node_0x55dd86e0a140&#45;&gt;node_0x55dd86e0a180 -->
<g id="edge39" class="edge">
<title>node_0x55dd86e0a140&#45;&gt;node_0x55dd86e0a180</title>
<path fill="none" stroke="black" d="M875.15,-315.79C874.14,-304.05 873.01,-290.66 871.97,-278.56"/>
<polygon fill="black" stroke="black" points="875.44,-277.98 871.1,-268.32 868.46,-278.58 875.44,-277.98"/>
</g>
<!-- node_0x55dd86e0a100 -->
<g id="node43" class="node">
<title>node_0x55dd86e0a100</title>
<ellipse fill="#ccffff" stroke="black" cx="1049.87" cy="-241.11" rx="36.54" ry="36.54"/>
<text text-anchor="middle" x="1049.87" y="-244.91" font-family="Times,serif" font-size="14.00">[1]</text>
<text text-anchor="middle" x="1049.87" y="-229.91" font-family="Times,serif" font-size="14.00">main</text>
</g>
<!-- node_0x55dd86e0a140&#45;&gt;node_0x55dd86e0a100 -->
<g id="edge42" class="edge">
<title>node_0x55dd86e0a140&#45;&gt;node_0x55dd86e0a100</title>
<path fill="none" stroke="black" d="M922.2,-326.36C946.89,-313.8 977.82,-297 1003.87,-279.57 1007.34,-277.25 1010.86,-274.73 1014.33,-272.12"/>
<polygon fill="black" stroke="black" points="1016.53,-274.85 1022.29,-265.96 1012.24,-269.31 1016.53,-274.85"/>
</g>
<!-- node_0x55dd86e0a1c0 -->
<g id="node41" class="node">
<title>node_0x55dd86e0a1c0</title>
<polygon fill="#ccccff" stroke="black" points="748.87,-117.87 859.87,-94.77 970.87,-117.87 970.77,-155.24 748.97,-155.24 748.87,-117.87"/>
<text text-anchor="middle" x="859.87" y="-132" font-family="Times,serif" font-size="14.00">[1]</text>
<text text-anchor="middle" x="859.87" y="-117" font-family="Times,serif" font-size="14.00">CONTEXT_ARG</text>
</g>
<!-- node_0x55dd86e0a180&#45;&gt;node_0x55dd86e0a1c0 -->
<g id="edge40" class="edge">
<title>node_0x55dd86e0a180&#45;&gt;node_0x55dd86e0a1c0</title>
<path fill="none" stroke="black" d="M866.27,-208.03C865.19,-194.78 863.94,-179.34 862.83,-165.66"/>
<polygon fill="black" stroke="black" points="866.31,-165.29 862.01,-155.6 859.33,-165.85 866.31,-165.29"/>
</g>
<!-- node_0x55dd86e0a200 -->
<g id="node42" class="node">
<title>node_0x55dd86e0a200</title>
<polygon fill="#ccccff" stroke="black" points="989.15,-117.87 1114.87,-94.77 1240.59,-117.87 1240.47,-155.24 989.27,-155.24 989.15,-117.87"/>
<text text-anchor="middle" x="1114.87" y="-132" font-family="Times,serif" font-size="14.00">[1]</text>
<text text-anchor="middle" x="1114.87" y="-117" font-family="Times,serif" font-size="14.00">FUNC_ARG_CALL</text>
</g>
<!-- node_0x55dd86e0a180&#45;&gt;node_0x55dd86e0a200 -->
<g id="edge41" class="edge">
<title>node_0x55dd86e0a180&#45;&gt;node_0x55dd86e0a200</title>
<path fill="none" stroke="black" d="M920.14,-217C957.11,-200.33 1007.37,-177.67 1047.57,-159.54"/>
<polygon fill="black" stroke="black" points="1049.09,-162.7 1056.77,-155.39 1046.21,-156.31 1049.09,-162.7"/>
</g>
<!-- node_0x55dd86e0a340 -->
<g id="node45" class="node">
<title>node_0x55dd86e0a340</title>
<polygon fill="#ccccff" stroke="black" points="956.23,-446.12 1005.87,-423.03 1055.51,-446.12 1055.46,-483.5 956.28,-483.5 956.23,-446.12"/>
<text text-anchor="middle" x="1005.87" y="-460.25" font-family="Times,serif" font-size="14.00">[2]</text>
<text text-anchor="middle" x="1005.87" y="-445.25" font-family="Times,serif" font-size="14.00">EXPR</text>
</g>
<!-- node_0x55dd86e0a380&#45;&gt;node_0x55dd86e0a340 -->
<g id="edge44" class="edge">
<title>node_0x55dd86e0a380&#45;&gt;node_0x55dd86e0a340</title>
<path fill="none" stroke="black" d="M959.33,-542.08C967.45,-527.3 977.71,-508.66 986.52,-492.63"/>
<polygon fill="black" stroke="black" points="989.77,-494 991.52,-483.55 983.63,-490.63 989.77,-494"/>
</g>
<!-- node_0x55dd86e0a300 -->
<g id="node46" class="node">
<title>node_0x55dd86e0a300</title>
<ellipse fill="#ccffff" stroke="black" cx="1015.87" cy="-348.78" rx="26.74" ry="26.74"/>
<text text-anchor="middle" x="1015.87" y="-352.58" font-family="Times,serif" font-size="14.00">[1]</text>
<text text-anchor="middle" x="1015.87" y="-337.58" font-family="Times,serif" font-size="14.00">B</text>
</g>
<!-- node_0x55dd86e0a340&#45;&gt;node_0x55dd86e0a300 -->
<g id="edge45" class="edge">
<title>node_0x55dd86e0a340&#45;&gt;node_0x55dd86e0a300</title>
<path fill="none" stroke="black" d="M1008.82,-424.32C1009.96,-412.24 1011.28,-398.33 1012.46,-385.82"/>
<polygon fill="black" stroke="black" points="1015.96,-385.99 1013.42,-375.71 1008.99,-385.33 1015.96,-385.99"/>
</g>
</g>
</svg>
