<?xml version="1.0" encoding="UTF-8" standalone="no"?>
<!DOCTYPE svg PUBLIC "-//W3C//DTD SVG 1.1//EN"
 "http://www.w3.org/Graphics/SVG/1.1/DTD/svg11.dtd">
<!-- Generated by graphviz version 2.43.0 (0)
 -->
<!-- Title: list Pages: 1 -->
<svg width="1401pt" height="1394pt"
 viewBox="0.00 0.00 1401.16 1393.78" xmlns="http://www.w3.org/2000/svg" xmlns:xlink="http://www.w3.org/1999/xlink">
<g id="graph0" class="graph" transform="scale(1 1) rotate(0) translate(4 1389.78)">
<title>list</title>
<polygon fill="white" stroke="transparent" points="-4,4 -4,-1389.78 1397.16,-1389.78 1397.16,4 -4,4"/>
<!-- node_0x56479a9d15f0 -->
<g id="node1" class="node">
<title>node_0x56479a9d15f0</title>
<polygon fill="#ffcccc" stroke="black" points="725.24,-1335.45 759.42,-1308.91 793.59,-1335.45 793.56,-1378.4 725.28,-1378.4 725.24,-1335.45"/>
<text text-anchor="middle" x="759.42" y="-1352.52" font-family="Times,serif" font-size="16.00">[1]</text>
<text text-anchor="middle" x="759.42" y="-1334.52" font-family="Times,serif" font-size="16.00">{</text>
</g>
<!-- node_0x56479a9d1c70 -->
<g id="node2" class="node">
<title>node_0x56479a9d1c70</title>
<polygon fill="#ffcccc" stroke="black" points="725.24,-1222.54 759.42,-1195.99 793.59,-1222.54 793.56,-1265.49 725.28,-1265.49 725.24,-1222.54"/>
<text text-anchor="middle" x="759.42" y="-1239.61" font-family="Times,serif" font-size="16.00">[4]</text>
<text text-anchor="middle" x="759.42" y="-1221.61" font-family="Times,serif" font-size="16.00">;</text>
</g>
<!-- node_0x56479a9d15f0&#45;&gt;node_0x56479a9d1c70 -->
<g id="edge1" class="edge">
<title>node_0x56479a9d15f0&#45;&gt;node_0x56479a9d1c70</title>
<path fill="none" stroke="black" d="M759.42,-1308.77C759.42,-1298.1 759.42,-1286.44 759.42,-1275.63"/>
<polygon fill="black" stroke="black" points="762.92,-1275.57 759.42,-1265.57 755.92,-1275.57 762.92,-1275.57"/>
</g>
<!-- node_0x56479a9d1c30 -->
<g id="node3" class="node">
<title>node_0x56479a9d1c30</title>
<polygon fill="#ccccff" stroke="black" points="554.38,-1111.16 649.42,-1088.06 744.46,-1111.16 744.37,-1148.54 554.47,-1148.54 554.38,-1111.16"/>
<text text-anchor="middle" x="649.42" y="-1125.29" font-family="Times,serif" font-size="14.00">[3]</text>
<text text-anchor="middle" x="649.42" y="-1110.29" font-family="Times,serif" font-size="14.00">FUNC_DECL</text>
</g>
<!-- node_0x56479a9d1c70&#45;&gt;node_0x56479a9d1c30 -->
<g id="edge2" class="edge">
<title>node_0x56479a9d1c70&#45;&gt;node_0x56479a9d1c30</title>
<path fill="none" stroke="black" d="M738.21,-1212.02C722.59,-1196.27 701.02,-1174.53 683.06,-1156.41"/>
<polygon fill="black" stroke="black" points="685.14,-1153.54 675.61,-1148.9 680.17,-1158.47 685.14,-1153.54"/>
</g>
<!-- node_0x56479a9d1d70 -->
<g id="node21" class="node">
<title>node_0x56479a9d1d70</title>
<polygon fill="#ffcccc" stroke="black" points="841.24,-1109.62 875.42,-1083.08 909.59,-1109.62 909.56,-1152.57 841.28,-1152.57 841.24,-1109.62"/>
<text text-anchor="middle" x="875.42" y="-1126.69" font-family="Times,serif" font-size="16.00">[3]</text>
<text text-anchor="middle" x="875.42" y="-1108.69" font-family="Times,serif" font-size="16.00">;</text>
</g>
<!-- node_0x56479a9d1c70&#45;&gt;node_0x56479a9d1d70 -->
<g id="edge20" class="edge">
<title>node_0x56479a9d1c70&#45;&gt;node_0x56479a9d1d70</title>
<path fill="none" stroke="black" d="M781.24,-1212.55C796.63,-1197.83 817.68,-1177.7 835.97,-1160.21"/>
<polygon fill="black" stroke="black" points="838.81,-1162.34 843.62,-1152.9 833.97,-1157.28 838.81,-1162.34"/>
</g>
<!-- node_0x56479a9d1a70 -->
<g id="node4" class="node">
<title>node_0x56479a9d1a70</title>
<polygon fill="#ccccff" stroke="black" points="394.62,-998.25 487.42,-975.15 580.21,-998.25 580.13,-1035.62 394.71,-1035.62 394.62,-998.25"/>
<text text-anchor="middle" x="487.42" y="-1012.38" font-family="Times,serif" font-size="14.00">[2]</text>
<text text-anchor="middle" x="487.42" y="-997.38" font-family="Times,serif" font-size="14.00">FUNC_INFO</text>
</g>
<!-- node_0x56479a9d1c30&#45;&gt;node_0x56479a9d1a70 -->
<g id="edge3" class="edge">
<title>node_0x56479a9d1c30&#45;&gt;node_0x56479a9d1a70</title>
<path fill="none" stroke="black" d="M614.27,-1096.43C590.77,-1080.34 559.61,-1059 534.05,-1041.5"/>
<polygon fill="black" stroke="black" points="535.84,-1038.49 525.61,-1035.73 531.89,-1044.27 535.84,-1038.49"/>
</g>
<!-- node_0x56479a9d1ab0 -->
<g id="node16" class="node">
<title>node_0x56479a9d1ab0</title>
<polygon fill="#ffcccc" stroke="black" points="615.24,-996.71 649.42,-970.16 683.59,-996.71 683.56,-1039.66 615.28,-1039.66 615.24,-996.71"/>
<text text-anchor="middle" x="649.42" y="-1013.78" font-family="Times,serif" font-size="16.00">[1]</text>
<text text-anchor="middle" x="649.42" y="-995.78" font-family="Times,serif" font-size="16.00">{</text>
</g>
<!-- node_0x56479a9d1c30&#45;&gt;node_0x56479a9d1ab0 -->
<g id="edge15" class="edge">
<title>node_0x56479a9d1c30&#45;&gt;node_0x56479a9d1ab0</title>
<path fill="none" stroke="black" d="M649.42,-1088.11C649.42,-1076.22 649.42,-1062.61 649.42,-1050.1"/>
<polygon fill="black" stroke="black" points="652.92,-1049.91 649.42,-1039.91 645.92,-1049.91 652.92,-1049.91"/>
</g>
<!-- node_0x56479a9d1670 -->
<g id="node5" class="node">
<title>node_0x56479a9d1670</title>
<polygon fill="#ccccff" stroke="black" points="166.95,-885.33 295.42,-862.24 423.88,-885.33 423.76,-922.71 167.07,-922.71 166.95,-885.33"/>
<text text-anchor="middle" x="295.42" y="-899.46" font-family="Times,serif" font-size="14.00">[1]</text>
<text text-anchor="middle" x="295.42" y="-884.46" font-family="Times,serif" font-size="14.00">FUNC_ARG_DECL</text>
</g>
<!-- node_0x56479a9d1a70&#45;&gt;node_0x56479a9d1670 -->
<g id="edge4" class="edge">
<title>node_0x56479a9d1a70&#45;&gt;node_0x56479a9d1670</title>
<path fill="none" stroke="black" d="M448.1,-984.86C419.74,-968.48 381.1,-946.16 349.79,-928.07"/>
<polygon fill="black" stroke="black" points="351.16,-924.82 340.75,-922.85 347.66,-930.88 351.16,-924.82"/>
</g>
<!-- node_0x56479a9d1630 -->
<g id="node15" class="node">
<title>node_0x56479a9d1630</title>
<ellipse fill="#ccffff" stroke="black" cx="487.42" cy="-895.66" rx="36.54" ry="36.54"/>
<text text-anchor="middle" x="487.42" y="-899.46" font-family="Times,serif" font-size="14.00">[1]</text>
<text text-anchor="middle" x="487.42" y="-884.46" font-family="Times,serif" font-size="14.00">main</text>
</g>
<!-- node_0x56479a9d1a70&#45;&gt;node_0x56479a9d1630 -->
<g id="edge14" class="edge">
<title>node_0x56479a9d1a70&#45;&gt;node_0x56479a9d1630</title>
<path fill="none" stroke="black" d="M487.42,-975.2C487.42,-965.12 487.42,-953.8 487.42,-942.97"/>
<polygon fill="black" stroke="black" points="490.92,-942.78 487.42,-932.78 483.92,-942.78 490.92,-942.78"/>
</g>
<!-- node_0x56479a9d17b0 -->
<g id="node6" class="node">
<title>node_0x56479a9d17b0</title>
<polygon fill="#ccccff" stroke="black" points="0.08,-772.42 73.42,-749.32 146.76,-772.42 146.69,-809.79 0.15,-809.79 0.08,-772.42"/>
<text text-anchor="middle" x="73.42" y="-786.55" font-family="Times,serif" font-size="14.00">[2]</text>
<text text-anchor="middle" x="73.42" y="-771.55" font-family="Times,serif" font-size="14.00">VAR_DEF</text>
</g>
<!-- node_0x56479a9d1670&#45;&gt;node_0x56479a9d17b0 -->
<g id="edge5" class="edge">
<title>node_0x56479a9d1670&#45;&gt;node_0x56479a9d17b0</title>
<path fill="none" stroke="black" d="M247.52,-870.73C214.64,-854.31 170.7,-832.35 135.19,-814.61"/>
<polygon fill="black" stroke="black" points="136.4,-811.3 125.89,-809.96 133.27,-817.56 136.4,-811.3"/>
</g>
<!-- node_0x56479a9d17f0 -->
<g id="node8" class="node">
<title>node_0x56479a9d17f0</title>
<polygon fill="#ccccff" stroke="black" points="166.95,-772.42 295.42,-749.32 423.88,-772.42 423.76,-809.79 167.07,-809.79 166.95,-772.42"/>
<text text-anchor="middle" x="295.42" y="-786.55" font-family="Times,serif" font-size="14.00">[1]</text>
<text text-anchor="middle" x="295.42" y="-771.55" font-family="Times,serif" font-size="14.00">FUNC_ARG_DECL</text>
</g>
<!-- node_0x56479a9d1670&#45;&gt;node_0x56479a9d17f0 -->
<g id="edge7" class="edge">
<title>node_0x56479a9d1670&#45;&gt;node_0x56479a9d17f0</title>
<path fill="none" stroke="black" d="M295.42,-862.28C295.42,-849.04 295.42,-833.65 295.42,-820.02"/>
<polygon fill="black" stroke="black" points="298.92,-820.01 295.42,-810.01 291.92,-820.01 298.92,-820.01"/>
</g>
<!-- node_0x56479a9d1770 -->
<g id="node7" class="node">
<title>node_0x56479a9d1770</title>
<ellipse fill="#ccffff" stroke="black" cx="69.42" cy="-669.83" rx="26.74" ry="26.74"/>
<text text-anchor="middle" x="69.42" y="-673.63" font-family="Times,serif" font-size="14.00">[1]</text>
<text text-anchor="middle" x="69.42" y="-658.63" font-family="Times,serif" font-size="14.00">a</text>
</g>
<!-- node_0x56479a9d17b0&#45;&gt;node_0x56479a9d1770 -->
<g id="edge6" class="edge">
<title>node_0x56479a9d17b0&#45;&gt;node_0x56479a9d1770</title>
<path fill="none" stroke="black" d="M72.26,-749.67C71.78,-736.31 71.22,-720.74 70.72,-706.98"/>
<polygon fill="black" stroke="black" points="74.22,-706.74 70.36,-696.88 67.22,-706.99 74.22,-706.74"/>
</g>
<!-- node_0x56479a9d1930 -->
<g id="node9" class="node">
<title>node_0x56479a9d1930</title>
<polygon fill="#ccccff" stroke="black" points="114.08,-659.5 187.42,-636.41 260.76,-659.5 260.69,-696.88 114.15,-696.88 114.08,-659.5"/>
<text text-anchor="middle" x="187.42" y="-673.63" font-family="Times,serif" font-size="14.00">[2]</text>
<text text-anchor="middle" x="187.42" y="-658.63" font-family="Times,serif" font-size="14.00">VAR_DEF</text>
</g>
<!-- node_0x56479a9d17f0&#45;&gt;node_0x56479a9d1930 -->
<g id="edge8" class="edge">
<title>node_0x56479a9d17f0&#45;&gt;node_0x56479a9d1930</title>
<path fill="none" stroke="black" d="M268.44,-754.05C253.84,-739.05 235.68,-720.4 220.26,-704.56"/>
<polygon fill="black" stroke="black" points="222.42,-701.76 212.94,-697.04 217.4,-706.65 222.42,-701.76"/>
</g>
<!-- node_0x56479a9d19b0 -->
<g id="node12" class="node">
<title>node_0x56479a9d19b0</title>
<polygon fill="#ccccff" stroke="black" points="278.95,-659.5 407.42,-636.41 535.88,-659.5 535.76,-696.88 279.07,-696.88 278.95,-659.5"/>
<text text-anchor="middle" x="407.42" y="-673.63" font-family="Times,serif" font-size="14.00">[1]</text>
<text text-anchor="middle" x="407.42" y="-658.63" font-family="Times,serif" font-size="14.00">FUNC_ARG_DECL</text>
</g>
<!-- node_0x56479a9d17f0&#45;&gt;node_0x56479a9d19b0 -->
<g id="edge11" class="edge">
<title>node_0x56479a9d17f0&#45;&gt;node_0x56479a9d19b0</title>
<path fill="none" stroke="black" d="M323.39,-754.05C338.67,-738.91 357.71,-720.06 373.8,-704.13"/>
<polygon fill="black" stroke="black" points="376.31,-706.56 380.96,-697.04 371.39,-701.59 376.31,-706.56"/>
</g>
<!-- node_0x56479a9d18f0 -->
<g id="node10" class="node">
<title>node_0x56479a9d18f0</title>
<ellipse fill="#ccffff" stroke="black" cx="151.42" cy="-556.92" rx="26.74" ry="26.74"/>
<text text-anchor="middle" x="151.42" y="-560.72" font-family="Times,serif" font-size="14.00">[1]</text>
<text text-anchor="middle" x="151.42" y="-545.72" font-family="Times,serif" font-size="14.00">b</text>
</g>
<!-- node_0x56479a9d1930&#45;&gt;node_0x56479a9d18f0 -->
<g id="edge9" class="edge">
<title>node_0x56479a9d1930&#45;&gt;node_0x56479a9d18f0</title>
<path fill="none" stroke="black" d="M177.87,-639.4C173.15,-624.87 167.43,-607.26 162.52,-592.13"/>
<polygon fill="black" stroke="black" points="165.85,-591.04 159.43,-582.61 159.19,-593.2 165.85,-591.04"/>
</g>
<!-- node_0x56479a9d1970 -->
<g id="node11" class="node">
<title>node_0x56479a9d1970</title>
<ellipse fill="#ffffcc" stroke="black" cx="223.42" cy="-556.92" rx="26.74" ry="26.74"/>
<text text-anchor="middle" x="223.42" y="-560.72" font-family="Times,serif" font-size="14.00">[1]</text>
<text text-anchor="middle" x="223.42" y="-545.72" font-family="Times,serif" font-size="14.00">10</text>
</g>
<!-- node_0x56479a9d1930&#45;&gt;node_0x56479a9d1970 -->
<g id="edge10" class="edge">
<title>node_0x56479a9d1930&#45;&gt;node_0x56479a9d1970</title>
<path fill="none" stroke="black" d="M196.97,-639.4C201.69,-624.87 207.4,-607.26 212.31,-592.13"/>
<polygon fill="black" stroke="black" points="215.65,-593.2 215.41,-582.61 208.99,-591.04 215.65,-593.2"/>
</g>
<!-- node_0x56479a9d19f0 -->
<g id="node13" class="node">
<title>node_0x56479a9d19f0</title>
<ellipse fill="#ccffff" stroke="black" cx="334.42" cy="-556.92" rx="26.74" ry="26.74"/>
<text text-anchor="middle" x="334.42" y="-560.72" font-family="Times,serif" font-size="14.00">[1]</text>
<text text-anchor="middle" x="334.42" y="-545.72" font-family="Times,serif" font-size="14.00">c</text>
</g>
<!-- node_0x56479a9d19b0&#45;&gt;node_0x56479a9d19f0 -->
<g id="edge12" class="edge">
<title>node_0x56479a9d19b0&#45;&gt;node_0x56479a9d19f0</title>
<path fill="none" stroke="black" d="M388.24,-639.69C377.83,-623.88 364.98,-604.35 354.44,-588.34"/>
<polygon fill="black" stroke="black" points="357.28,-586.29 348.86,-579.86 351.43,-590.13 357.28,-586.29"/>
</g>
<!-- node_0x56479a9d1a30 -->
<g id="node14" class="node">
<title>node_0x56479a9d1a30</title>
<polygon fill="#ccccff" stroke="black" points="378.95,-546.59 507.42,-523.49 635.88,-546.59 635.76,-583.96 379.07,-583.96 378.95,-546.59"/>
<text text-anchor="middle" x="507.42" y="-560.72" font-family="Times,serif" font-size="14.00">[1]</text>
<text text-anchor="middle" x="507.42" y="-545.72" font-family="Times,serif" font-size="14.00">FUNC_ARG_DECL</text>
</g>
<!-- node_0x56479a9d19b0&#45;&gt;node_0x56479a9d1a30 -->
<g id="edge13" class="edge">
<title>node_0x56479a9d19b0&#45;&gt;node_0x56479a9d1a30</title>
<path fill="none" stroke="black" d="M432.65,-640.84C446.18,-625.84 462.94,-607.26 477.16,-591.48"/>
<polygon fill="black" stroke="black" points="479.81,-593.76 483.91,-583.99 474.61,-589.08 479.81,-593.76"/>
</g>
<!-- node_0x56479a9d1bf0 -->
<g id="node17" class="node">
<title>node_0x56479a9d1bf0</title>
<polygon fill="#ffcccc" stroke="black" points="615.24,-883.79 649.42,-857.25 683.59,-883.79 683.56,-926.74 615.28,-926.74 615.24,-883.79"/>
<text text-anchor="middle" x="649.42" y="-900.86" font-family="Times,serif" font-size="16.00">[3]</text>
<text text-anchor="middle" x="649.42" y="-882.86" font-family="Times,serif" font-size="16.00">;</text>
</g>
<!-- node_0x56479a9d1ab0&#45;&gt;node_0x56479a9d1bf0 -->
<g id="edge16" class="edge">
<title>node_0x56479a9d1ab0&#45;&gt;node_0x56479a9d1bf0</title>
<path fill="none" stroke="black" d="M649.42,-970.03C649.42,-959.36 649.42,-947.7 649.42,-936.88"/>
<polygon fill="black" stroke="black" points="652.92,-936.82 649.42,-926.82 645.92,-936.82 652.92,-936.82"/>
</g>
<!-- node_0x56479a9d1b30 -->
<g id="node18" class="node">
<title>node_0x56479a9d1b30</title>
<polygon fill="#ccccff" stroke="black" points="576.08,-772.42 649.42,-749.32 722.76,-772.42 722.69,-809.79 576.15,-809.79 576.08,-772.42"/>
<text text-anchor="middle" x="649.42" y="-786.55" font-family="Times,serif" font-size="14.00">[2]</text>
<text text-anchor="middle" x="649.42" y="-771.55" font-family="Times,serif" font-size="14.00">VAR_DEF</text>
</g>
<!-- node_0x56479a9d1bf0&#45;&gt;node_0x56479a9d1b30 -->
<g id="edge17" class="edge">
<title>node_0x56479a9d1bf0&#45;&gt;node_0x56479a9d1b30</title>
<path fill="none" stroke="black" d="M649.42,-857.11C649.42,-845.15 649.42,-831.95 649.42,-820.08"/>
<polygon fill="black" stroke="black" points="652.92,-820.06 649.42,-810.06 645.92,-820.06 652.92,-820.06"/>
</g>
<!-- node_0x56479a9d1b70 -->
<g id="node19" class="node">
<title>node_0x56479a9d1b70</title>
<ellipse fill="#ccffff" stroke="black" cx="580.42" cy="-669.83" rx="26.74" ry="26.74"/>
<text text-anchor="middle" x="580.42" y="-673.63" font-family="Times,serif" font-size="14.00">[1]</text>
<text text-anchor="middle" x="580.42" y="-658.63" font-family="Times,serif" font-size="14.00">x</text>
</g>
<!-- node_0x56479a9d1b30&#45;&gt;node_0x56479a9d1b70 -->
<g id="edge18" class="edge">
<title>node_0x56479a9d1b30&#45;&gt;node_0x56479a9d1b70</title>
<path fill="none" stroke="black" d="M632.54,-754.62C622.64,-738.71 610.1,-718.55 599.8,-701.99"/>
<polygon fill="black" stroke="black" points="602.59,-699.85 594.34,-693.21 596.65,-703.55 602.59,-699.85"/>
</g>
<!-- node_0x56479a9d1bb0 -->
<g id="node20" class="node">
<title>node_0x56479a9d1bb0</title>
<ellipse fill="#ffffcc" stroke="black" cx="652.42" cy="-669.83" rx="26.74" ry="26.74"/>
<text text-anchor="middle" x="652.42" y="-673.63" font-family="Times,serif" font-size="14.00">[1]</text>
<text text-anchor="middle" x="652.42" y="-658.63" font-family="Times,serif" font-size="14.00">1</text>
</g>
<!-- node_0x56479a9d1b30&#45;&gt;node_0x56479a9d1bb0 -->
<g id="edge19" class="edge">
<title>node_0x56479a9d1b30&#45;&gt;node_0x56479a9d1bb0</title>
<path fill="none" stroke="black" d="M650.29,-749.37C650.66,-736.02 651.08,-720.5 651.45,-706.8"/>
<polygon fill="black" stroke="black" points="654.95,-706.83 651.72,-696.74 647.95,-706.64 654.95,-706.83"/>
</g>
<!-- node_0x56479a9d1cf0 -->
<g id="node22" class="node">
<title>node_0x56479a9d1cf0</title>
<polygon fill="#ccccff" stroke="black" points="802.08,-998.25 875.42,-975.15 948.76,-998.25 948.69,-1035.62 802.15,-1035.62 802.08,-998.25"/>
<text text-anchor="middle" x="875.42" y="-1012.38" font-family="Times,serif" font-size="14.00">[2]</text>
<text text-anchor="middle" x="875.42" y="-997.38" font-family="Times,serif" font-size="14.00">VAR_DEF</text>
</g>
<!-- node_0x56479a9d1d70&#45;&gt;node_0x56479a9d1cf0 -->
<g id="edge21" class="edge">
<title>node_0x56479a9d1d70&#45;&gt;node_0x56479a9d1cf0</title>
<path fill="none" stroke="black" d="M875.42,-1082.94C875.42,-1070.98 875.42,-1057.78 875.42,-1045.91"/>
<polygon fill="black" stroke="black" points="878.92,-1045.89 875.42,-1035.89 871.92,-1045.89 878.92,-1045.89"/>
</g>
<!-- node_0x56479a9d2430 -->
<g id="node25" class="node">
<title>node_0x56479a9d2430</title>
<polygon fill="#ffcccc" stroke="black" points="983.24,-996.71 1017.42,-970.16 1051.59,-996.71 1051.56,-1039.66 983.28,-1039.66 983.24,-996.71"/>
<text text-anchor="middle" x="1017.42" y="-1013.78" font-family="Times,serif" font-size="16.00">[6]</text>
<text text-anchor="middle" x="1017.42" y="-995.78" font-family="Times,serif" font-size="16.00">;</text>
</g>
<!-- node_0x56479a9d1d70&#45;&gt;node_0x56479a9d2430 -->
<g id="edge24" class="edge">
<title>node_0x56479a9d1d70&#45;&gt;node_0x56479a9d2430</title>
<path fill="none" stroke="black" d="M899.51,-1101.68C920.12,-1085.57 950.29,-1062.01 974.95,-1042.75"/>
<polygon fill="black" stroke="black" points="977.35,-1045.31 983.08,-1036.4 973.05,-1039.8 977.35,-1045.31"/>
</g>
<!-- node_0x56479a9d1d30 -->
<g id="node23" class="node">
<title>node_0x56479a9d1d30</title>
<ellipse fill="#ccffff" stroke="black" cx="831.42" cy="-895.66" rx="26.74" ry="26.74"/>
<text text-anchor="middle" x="831.42" y="-899.46" font-family="Times,serif" font-size="14.00">[1]</text>
<text text-anchor="middle" x="831.42" y="-884.46" font-family="Times,serif" font-size="14.00">a</text>
</g>
<!-- node_0x56479a9d1cf0&#45;&gt;node_0x56479a9d1d30 -->
<g id="edge22" class="edge">
<title>node_0x56479a9d1cf0&#45;&gt;node_0x56479a9d1d30</title>
<path fill="none" stroke="black" d="M863.97,-978.73C858.12,-963.98 850.97,-945.95 844.86,-930.55"/>
<polygon fill="black" stroke="black" points="847.96,-928.88 841.02,-920.87 841.46,-931.46 847.96,-928.88"/>
</g>
<!-- node_0x56479a9d1cb0 -->
<g id="node24" class="node">
<title>node_0x56479a9d1cb0</title>
<ellipse fill="#ffffcc" stroke="black" cx="903.42" cy="-895.66" rx="26.74" ry="26.74"/>
<text text-anchor="middle" x="903.42" y="-899.46" font-family="Times,serif" font-size="14.00">[1]</text>
<text text-anchor="middle" x="903.42" y="-884.46" font-family="Times,serif" font-size="14.00">0</text>
</g>
<!-- node_0x56479a9d1cf0&#45;&gt;node_0x56479a9d1cb0 -->
<g id="edge23" class="edge">
<title>node_0x56479a9d1cf0&#45;&gt;node_0x56479a9d1cb0</title>
<path fill="none" stroke="black" d="M883.07,-977.27C886.62,-963.2 890.87,-946.39 894.56,-931.77"/>
<polygon fill="black" stroke="black" points="897.95,-932.61 897.01,-922.06 891.17,-930.9 897.95,-932.61"/>
</g>
<!-- node_0x56479a9d23f0 -->
<g id="node26" class="node">
<title>node_0x56479a9d23f0</title>
<polygon fill="#ccccff" stroke="black" points="975.51,-885.33 1017.42,-862.24 1059.33,-885.33 1059.29,-922.71 975.55,-922.71 975.51,-885.33"/>
<text text-anchor="middle" x="1017.42" y="-899.46" font-family="Times,serif" font-size="14.00">[5]</text>
<text text-anchor="middle" x="1017.42" y="-884.46" font-family="Times,serif" font-size="14.00">FOR</text>
</g>
<!-- node_0x56479a9d2430&#45;&gt;node_0x56479a9d23f0 -->
<g id="edge25" class="edge">
<title>node_0x56479a9d2430&#45;&gt;node_0x56479a9d23f0</title>
<path fill="none" stroke="black" d="M1017.42,-970.03C1017.42,-958.07 1017.42,-944.87 1017.42,-933"/>
<polygon fill="black" stroke="black" points="1020.92,-932.97 1017.42,-922.97 1013.92,-932.97 1020.92,-932.97"/>
</g>
<!-- node_0x56479a9d24f0 -->
<g id="node52" class="node">
<title>node_0x56479a9d24f0</title>
<polygon fill="#ffcccc" stroke="black" points="1147.24,-883.79 1181.42,-857.25 1215.59,-883.79 1215.56,-926.74 1147.28,-926.74 1147.24,-883.79"/>
<text text-anchor="middle" x="1181.42" y="-900.86" font-family="Times,serif" font-size="16.00">[3]</text>
<text text-anchor="middle" x="1181.42" y="-882.86" font-family="Times,serif" font-size="16.00">;</text>
</g>
<!-- node_0x56479a9d2430&#45;&gt;node_0x56479a9d24f0 -->
<g id="edge51" class="edge">
<title>node_0x56479a9d2430&#45;&gt;node_0x56479a9d24f0</title>
<path fill="none" stroke="black" d="M1043.4,-990C1068.97,-972.71 1108.45,-946.01 1138.65,-925.59"/>
<polygon fill="black" stroke="black" points="1140.97,-928.24 1147.3,-919.74 1137.05,-922.44 1140.97,-928.24"/>
</g>
<!-- node_0x56479a9d2030 -->
<g id="node27" class="node">
<title>node_0x56479a9d2030</title>
<polygon fill="#ccccff" stroke="black" points="882.35,-772.42 963.42,-749.32 1044.49,-772.42 1044.41,-809.79 882.42,-809.79 882.35,-772.42"/>
<text text-anchor="middle" x="963.42" y="-786.55" font-family="Times,serif" font-size="14.00">[4]</text>
<text text-anchor="middle" x="963.42" y="-771.55" font-family="Times,serif" font-size="14.00">FOR_INFO</text>
</g>
<!-- node_0x56479a9d23f0&#45;&gt;node_0x56479a9d2030 -->
<g id="edge26" class="edge">
<title>node_0x56479a9d23f0&#45;&gt;node_0x56479a9d2030</title>
<path fill="none" stroke="black" d="M1004.89,-868.94C997.71,-854.17 988.57,-835.42 980.71,-819.26"/>
<polygon fill="black" stroke="black" points="983.77,-817.56 976.25,-810.1 977.48,-820.63 983.77,-817.56"/>
</g>
<!-- node_0x56479a9d2070 -->
<g id="node38" class="node">
<title>node_0x56479a9d2070</title>
<polygon fill="#ffcccc" stroke="black" points="1064.24,-770.88 1098.42,-744.33 1132.59,-770.88 1132.56,-813.83 1064.28,-813.83 1064.24,-770.88"/>
<text text-anchor="middle" x="1098.42" y="-787.95" font-family="Times,serif" font-size="16.00">[1]</text>
<text text-anchor="middle" x="1098.42" y="-769.95" font-family="Times,serif" font-size="16.00">{</text>
</g>
<!-- node_0x56479a9d23f0&#45;&gt;node_0x56479a9d2070 -->
<g id="edge37" class="edge">
<title>node_0x56479a9d23f0&#45;&gt;node_0x56479a9d2070</title>
<path fill="none" stroke="black" d="M1034.4,-871.41C1044.75,-857.24 1058.24,-838.77 1070.16,-822.44"/>
<polygon fill="black" stroke="black" points="1073.16,-824.28 1076.23,-814.14 1067.5,-820.15 1073.16,-824.28"/>
</g>
<!-- node_0x56479a9d1f30 -->
<g id="node28" class="node">
<title>node_0x56479a9d1f30</title>
<polygon fill="#ccccff" stroke="black" points="697.35,-659.5 778.42,-636.41 859.49,-659.5 859.41,-696.88 697.42,-696.88 697.35,-659.5"/>
<text text-anchor="middle" x="778.42" y="-673.63" font-family="Times,serif" font-size="14.00">[3]</text>
<text text-anchor="middle" x="778.42" y="-658.63" font-family="Times,serif" font-size="14.00">FOR_INFO</text>
</g>
<!-- node_0x56479a9d2030&#45;&gt;node_0x56479a9d1f30 -->
<g id="edge27" class="edge">
<title>node_0x56479a9d2030&#45;&gt;node_0x56479a9d1f30</title>
<path fill="none" stroke="black" d="M926.43,-759.57C899.07,-743.17 861.45,-720.61 830.98,-702.34"/>
<polygon fill="black" stroke="black" points="832.56,-699.21 822.18,-697.07 828.96,-705.21 832.56,-699.21"/>
</g>
<!-- node_0x56479a9d1ff0 -->
<g id="node35" class="node">
<title>node_0x56479a9d1ff0</title>
<polygon fill="#ccccff" stroke="black" points="877.61,-659.5 963.42,-636.41 1049.23,-659.5 1049.15,-696.88 877.69,-696.88 877.61,-659.5"/>
<text text-anchor="middle" x="963.42" y="-673.63" font-family="Times,serif" font-size="14.00">[2]</text>
<text text-anchor="middle" x="963.42" y="-658.63" font-family="Times,serif" font-size="14.00">ASGN_ADD</text>
</g>
<!-- node_0x56479a9d2030&#45;&gt;node_0x56479a9d1ff0 -->
<g id="edge34" class="edge">
<title>node_0x56479a9d2030&#45;&gt;node_0x56479a9d1ff0</title>
<path fill="none" stroke="black" d="M963.42,-749.37C963.42,-736.12 963.42,-720.73 963.42,-707.11"/>
<polygon fill="black" stroke="black" points="966.92,-707.1 963.42,-697.1 959.92,-707.1 966.92,-707.1"/>
</g>
<!-- node_0x56479a9d1df0 -->
<g id="node29" class="node">
<title>node_0x56479a9d1df0</title>
<polygon fill="#ccccff" stroke="black" points="666.08,-546.59 739.42,-523.49 812.76,-546.59 812.69,-583.96 666.15,-583.96 666.08,-546.59"/>
<text text-anchor="middle" x="739.42" y="-560.72" font-family="Times,serif" font-size="14.00">[2]</text>
<text text-anchor="middle" x="739.42" y="-545.72" font-family="Times,serif" font-size="14.00">VAR_DEF</text>
</g>
<!-- node_0x56479a9d1f30&#45;&gt;node_0x56479a9d1df0 -->
<g id="edge28" class="edge">
<title>node_0x56479a9d1f30&#45;&gt;node_0x56479a9d1df0</title>
<path fill="none" stroke="black" d="M767.97,-639.11C763.09,-625.24 757.24,-608.61 752.12,-594.03"/>
<polygon fill="black" stroke="black" points="755.32,-592.59 748.7,-584.32 748.72,-594.91 755.32,-592.59"/>
</g>
<!-- node_0x56479a9d1ef0 -->
<g id="node32" class="node">
<title>node_0x56479a9d1ef0</title>
<polygon fill="#ffcccc" stroke="black" points="831.24,-545.05 865.42,-518.5 899.59,-545.05 899.56,-588 831.28,-588 831.24,-545.05"/>
<text text-anchor="middle" x="865.42" y="-562.12" font-family="Times,serif" font-size="16.00">[2]</text>
<text text-anchor="middle" x="865.42" y="-544.12" font-family="Times,serif" font-size="16.00">&lt;</text>
</g>
<!-- node_0x56479a9d1f30&#45;&gt;node_0x56479a9d1ef0 -->
<g id="edge31" class="edge">
<title>node_0x56479a9d1f30&#45;&gt;node_0x56479a9d1ef0</title>
<path fill="none" stroke="black" d="M799.26,-642.27C810.03,-628.53 823.38,-611.52 835.25,-596.37"/>
<polygon fill="black" stroke="black" points="838.26,-598.21 841.68,-588.19 832.75,-593.89 838.26,-598.21"/>
</g>
<!-- node_0x56479a9d1e30 -->
<g id="node30" class="node">
<title>node_0x56479a9d1e30</title>
<ellipse fill="#ccffff" stroke="black" cx="681.42" cy="-444.98" rx="26.74" ry="26.74"/>
<text text-anchor="middle" x="681.42" y="-448.78" font-family="Times,serif" font-size="14.00">[1]</text>
<text text-anchor="middle" x="681.42" y="-433.78" font-family="Times,serif" font-size="14.00">i</text>
</g>
<!-- node_0x56479a9d1df0&#45;&gt;node_0x56479a9d1e30 -->
<g id="edge29" class="edge">
<title>node_0x56479a9d1df0&#45;&gt;node_0x56479a9d1e30</title>
<path fill="none" stroke="black" d="M724.63,-527.89C716.61,-512.68 706.66,-493.82 698.33,-478.03"/>
<polygon fill="black" stroke="black" points="701.4,-476.35 693.63,-469.14 695.21,-479.62 701.4,-476.35"/>
</g>
<!-- node_0x56479a9d1db0 -->
<g id="node31" class="node">
<title>node_0x56479a9d1db0</title>
<ellipse fill="#ffffcc" stroke="black" cx="753.42" cy="-444.98" rx="26.74" ry="26.74"/>
<text text-anchor="middle" x="753.42" y="-448.78" font-family="Times,serif" font-size="14.00">[1]</text>
<text text-anchor="middle" x="753.42" y="-433.78" font-family="Times,serif" font-size="14.00">0</text>
</g>
<!-- node_0x56479a9d1df0&#45;&gt;node_0x56479a9d1db0 -->
<g id="edge30" class="edge">
<title>node_0x56479a9d1df0&#45;&gt;node_0x56479a9d1db0</title>
<path fill="none" stroke="black" d="M743.39,-524.71C745.09,-511.36 747.09,-495.68 748.85,-481.85"/>
<polygon fill="black" stroke="black" points="752.35,-482.07 750.14,-471.71 745.41,-481.18 752.35,-482.07"/>
</g>
<!-- node_0x56479a9d1e70 -->
<g id="node33" class="node">
<title>node_0x56479a9d1e70</title>
<ellipse fill="#ccffff" stroke="black" cx="852.42" cy="-444.98" rx="26.74" ry="26.74"/>
<text text-anchor="middle" x="852.42" y="-448.78" font-family="Times,serif" font-size="14.00">[1]</text>
<text text-anchor="middle" x="852.42" y="-433.78" font-family="Times,serif" font-size="14.00">i</text>
</g>
<!-- node_0x56479a9d1ef0&#45;&gt;node_0x56479a9d1e70 -->
<g id="edge32" class="edge">
<title>node_0x56479a9d1ef0&#45;&gt;node_0x56479a9d1e70</title>
<path fill="none" stroke="black" d="M861.34,-521.44C859.86,-508.94 858.19,-494.8 856.7,-482.16"/>
<polygon fill="black" stroke="black" points="860.14,-481.49 855.49,-471.97 853.19,-482.31 860.14,-481.49"/>
</g>
<!-- node_0x56479a9d1eb0 -->
<g id="node34" class="node">
<title>node_0x56479a9d1eb0</title>
<ellipse fill="#ffffcc" stroke="black" cx="934.42" cy="-444.98" rx="37.45" ry="37.45"/>
<text text-anchor="middle" x="934.42" y="-448.78" font-family="Times,serif" font-size="14.00">[1]</text>
<text text-anchor="middle" x="934.42" y="-433.78" font-family="Times,serif" font-size="14.00">1000</text>
</g>
<!-- node_0x56479a9d1ef0&#45;&gt;node_0x56479a9d1eb0 -->
<g id="edge33" class="edge">
<title>node_0x56479a9d1ef0&#45;&gt;node_0x56479a9d1eb0</title>
<path fill="none" stroke="black" d="M881.25,-530.7C889.56,-517.45 899.95,-500.9 909.33,-485.96"/>
<polygon fill="black" stroke="black" points="912.36,-487.71 914.71,-477.38 906.43,-483.99 912.36,-487.71"/>
</g>
<!-- node_0x56479a9d1f70 -->
<g id="node36" class="node">
<title>node_0x56479a9d1f70</title>
<ellipse fill="#ccffff" stroke="black" cx="950.42" cy="-556.92" rx="26.74" ry="26.74"/>
<text text-anchor="middle" x="950.42" y="-560.72" font-family="Times,serif" font-size="14.00">[1]</text>
<text text-anchor="middle" x="950.42" y="-545.72" font-family="Times,serif" font-size="14.00">i</text>
</g>
<!-- node_0x56479a9d1ff0&#45;&gt;node_0x56479a9d1f70 -->
<g id="edge35" class="edge">
<title>node_0x56479a9d1ff0&#45;&gt;node_0x56479a9d1f70</title>
<path fill="none" stroke="black" d="M959.73,-637.35C958.15,-623.87 956.3,-608.06 954.66,-594.11"/>
<polygon fill="black" stroke="black" points="958.1,-593.4 953.46,-583.87 951.15,-594.21 958.1,-593.4"/>
</g>
<!-- node_0x56479a9d1fb0 -->
<g id="node37" class="node">
<title>node_0x56479a9d1fb0</title>
<ellipse fill="#ffffcc" stroke="black" cx="1022.42" cy="-556.92" rx="26.74" ry="26.74"/>
<text text-anchor="middle" x="1022.42" y="-560.72" font-family="Times,serif" font-size="14.00">[1]</text>
<text text-anchor="middle" x="1022.42" y="-545.72" font-family="Times,serif" font-size="14.00">1</text>
</g>
<!-- node_0x56479a9d1ff0&#45;&gt;node_0x56479a9d1fb0 -->
<g id="edge36" class="edge">
<title>node_0x56479a9d1ff0&#45;&gt;node_0x56479a9d1fb0</title>
<path fill="none" stroke="black" d="M978.61,-640.27C986.78,-624.92 996.87,-605.95 1005.31,-590.09"/>
<polygon fill="black" stroke="black" points="1008.45,-591.63 1010.06,-581.16 1002.27,-588.34 1008.45,-591.63"/>
</g>
<!-- node_0x56479a9d23b0 -->
<g id="node39" class="node">
<title>node_0x56479a9d23b0</title>
<polygon fill="#ffcccc" stroke="black" points="1067.24,-657.96 1101.42,-631.42 1135.59,-657.96 1135.56,-700.91 1067.28,-700.91 1067.24,-657.96"/>
<text text-anchor="middle" x="1101.42" y="-675.03" font-family="Times,serif" font-size="16.00">[5]</text>
<text text-anchor="middle" x="1101.42" y="-657.03" font-family="Times,serif" font-size="16.00">;</text>
</g>
<!-- node_0x56479a9d2070&#45;&gt;node_0x56479a9d23b0 -->
<g id="edge38" class="edge">
<title>node_0x56479a9d2070&#45;&gt;node_0x56479a9d23b0</title>
<path fill="none" stroke="black" d="M1099.42,-744.82C1099.71,-734.02 1100.03,-722.17 1100.33,-711.18"/>
<polygon fill="black" stroke="black" points="1103.83,-711.06 1100.6,-700.97 1096.83,-710.87 1103.83,-711.06"/>
</g>
<!-- node_0x56479a9d2230 -->
<g id="node40" class="node">
<title>node_0x56479a9d2230</title>
<polygon fill="#ccccff" stroke="black" points="1069.99,-546.59 1101.42,-523.49 1132.85,-546.59 1132.82,-583.96 1070.02,-583.96 1069.99,-546.59"/>
<text text-anchor="middle" x="1101.42" y="-560.72" font-family="Times,serif" font-size="14.00">[4]</text>
<text text-anchor="middle" x="1101.42" y="-545.72" font-family="Times,serif" font-size="14.00">IF</text>
</g>
<!-- node_0x56479a9d23b0&#45;&gt;node_0x56479a9d2230 -->
<g id="edge39" class="edge">
<title>node_0x56479a9d23b0&#45;&gt;node_0x56479a9d2230</title>
<path fill="none" stroke="black" d="M1101.42,-631.28C1101.42,-619.33 1101.42,-606.12 1101.42,-594.25"/>
<polygon fill="black" stroke="black" points="1104.92,-594.23 1101.42,-584.23 1097.92,-594.23 1104.92,-594.23"/>
</g>
<!-- node_0x56479a9d2130 -->
<g id="node41" class="node">
<title>node_0x56479a9d2130</title>
<polygon fill="#ccccff" stroke="black" points="1017.99,-434.65 1051.42,-411.56 1084.85,-434.65 1084.82,-472.03 1018.02,-472.03 1017.99,-434.65"/>
<text text-anchor="middle" x="1051.42" y="-448.78" font-family="Times,serif" font-size="14.00">[2]</text>
<text text-anchor="middle" x="1051.42" y="-433.78" font-family="Times,serif" font-size="14.00">EQ</text>
</g>
<!-- node_0x56479a9d2230&#45;&gt;node_0x56479a9d2130 -->
<g id="edge40" class="edge">
<title>node_0x56479a9d2230&#45;&gt;node_0x56479a9d2130</title>
<path fill="none" stroke="black" d="M1090.32,-531.52C1083.64,-516.82 1075,-497.84 1067.57,-481.5"/>
<polygon fill="black" stroke="black" points="1070.68,-479.89 1063.36,-472.23 1064.31,-482.79 1070.68,-479.89"/>
</g>
<!-- node_0x56479a9d21f0 -->
<g id="node44" class="node">
<title>node_0x56479a9d21f0</title>
<polygon fill="#ccccff" stroke="black" points="1101.99,-434.65 1246.42,-411.56 1390.85,-434.65 1390.71,-472.03 1102.12,-472.03 1101.99,-434.65"/>
<text text-anchor="middle" x="1246.42" y="-448.78" font-family="Times,serif" font-size="14.00">[3]</text>
<text text-anchor="middle" x="1246.42" y="-433.78" font-family="Times,serif" font-size="14.00">COND_DEPENDENT</text>
</g>
<!-- node_0x56479a9d2230&#45;&gt;node_0x56479a9d21f0 -->
<g id="edge43" class="edge">
<title>node_0x56479a9d2230&#45;&gt;node_0x56479a9d21f0</title>
<path fill="none" stroke="black" d="M1123.44,-539.22C1144.67,-523.12 1177.37,-498.33 1203.72,-478.36"/>
<polygon fill="black" stroke="black" points="1206.17,-480.89 1212.02,-472.06 1201.94,-475.31 1206.17,-480.89"/>
</g>
<!-- node_0x56479a9d20b0 -->
<g id="node42" class="node">
<title>node_0x56479a9d20b0</title>
<ellipse fill="#ccffff" stroke="black" cx="986.42" cy="-333.05" rx="26.74" ry="26.74"/>
<text text-anchor="middle" x="986.42" y="-336.85" font-family="Times,serif" font-size="14.00">[1]</text>
<text text-anchor="middle" x="986.42" y="-321.85" font-family="Times,serif" font-size="14.00">a</text>
</g>
<!-- node_0x56479a9d2130&#45;&gt;node_0x56479a9d20b0 -->
<g id="edge41" class="edge">
<title>node_0x56479a9d2130&#45;&gt;node_0x56479a9d20b0</title>
<path fill="none" stroke="black" d="M1037.79,-420.94C1028.28,-404.85 1015.47,-383.19 1005.02,-365.52"/>
<polygon fill="black" stroke="black" points="1007.91,-363.52 999.8,-356.69 1001.88,-367.08 1007.91,-363.52"/>
</g>
<!-- node_0x56479a9d20f0 -->
<g id="node43" class="node">
<title>node_0x56479a9d20f0</title>
<ellipse fill="#ffffcc" stroke="black" cx="1058.42" cy="-333.05" rx="26.74" ry="26.74"/>
<text text-anchor="middle" x="1058.42" y="-336.85" font-family="Times,serif" font-size="14.00">[1]</text>
<text text-anchor="middle" x="1058.42" y="-321.85" font-family="Times,serif" font-size="14.00">30</text>
</g>
<!-- node_0x56479a9d2130&#45;&gt;node_0x56479a9d20f0 -->
<g id="edge42" class="edge">
<title>node_0x56479a9d2130&#45;&gt;node_0x56479a9d20f0</title>
<path fill="none" stroke="black" d="M1053.41,-412.78C1054.25,-399.52 1055.24,-383.99 1056.11,-370.24"/>
<polygon fill="black" stroke="black" points="1059.62,-370.34 1056.76,-360.13 1052.63,-369.89 1059.62,-370.34"/>
</g>
<!-- node_0x56479a9d2370 -->
<g id="node45" class="node">
<title>node_0x56479a9d2370</title>
<polygon fill="#ffcccc" stroke="black" points="1161.24,-321.18 1195.42,-294.64 1229.59,-321.18 1229.56,-364.13 1161.28,-364.13 1161.24,-321.18"/>
<text text-anchor="middle" x="1195.42" y="-338.25" font-family="Times,serif" font-size="16.00">[4]</text>
<text text-anchor="middle" x="1195.42" y="-320.25" font-family="Times,serif" font-size="16.00">;</text>
</g>
<!-- node_0x56479a9d21f0&#45;&gt;node_0x56479a9d2370 -->
<g id="edge44" class="edge">
<title>node_0x56479a9d21f0&#45;&gt;node_0x56479a9d2370</title>
<path fill="none" stroke="black" d="M1232.35,-413.65C1226.61,-401.28 1219.89,-386.8 1213.77,-373.61"/>
<polygon fill="black" stroke="black" points="1216.83,-371.88 1209.44,-364.28 1210.48,-374.83 1216.83,-371.88"/>
</g>
<!-- node_0x56479a9d21b0 -->
<g id="node50" class="node">
<title>node_0x56479a9d21b0</title>
<polygon fill="#ffcccc" stroke="black" points="1262.24,-321.18 1296.42,-294.64 1330.59,-321.18 1330.56,-364.13 1262.28,-364.13 1262.24,-321.18"/>
<text text-anchor="middle" x="1296.42" y="-338.25" font-family="Times,serif" font-size="16.00">[2]</text>
<text text-anchor="middle" x="1296.42" y="-320.25" font-family="Times,serif" font-size="16.00">;</text>
</g>
<!-- node_0x56479a9d21f0&#45;&gt;node_0x56479a9d21b0 -->
<g id="edge49" class="edge">
<title>node_0x56479a9d21f0&#45;&gt;node_0x56479a9d21b0</title>
<path fill="none" stroke="black" d="M1260.21,-413.65C1265.84,-401.28 1272.43,-386.8 1278.43,-373.61"/>
<polygon fill="black" stroke="black" points="1281.71,-374.83 1282.67,-364.28 1275.34,-371.94 1281.71,-374.83"/>
</g>
<!-- node_0x56479a9d2330 -->
<g id="node46" class="node">
<title>node_0x56479a9d2330</title>
<polygon fill="#ccccff" stroke="black" points="1132.78,-215.05 1182.42,-191.95 1232.06,-215.05 1232.01,-252.42 1132.82,-252.42 1132.78,-215.05"/>
<text text-anchor="middle" x="1182.42" y="-229.18" font-family="Times,serif" font-size="14.00">[3]</text>
<text text-anchor="middle" x="1182.42" y="-214.18" font-family="Times,serif" font-size="14.00">EXPR</text>
</g>
<!-- node_0x56479a9d2370&#45;&gt;node_0x56479a9d2330 -->
<g id="edge45" class="edge">
<title>node_0x56479a9d2370&#45;&gt;node_0x56479a9d2330</title>
<path fill="none" stroke="black" d="M1191.2,-297.74C1189.81,-286.48 1188.27,-273.94 1186.87,-262.55"/>
<polygon fill="black" stroke="black" points="1190.32,-261.98 1185.63,-252.48 1183.38,-262.83 1190.32,-261.98"/>
</g>
<!-- node_0x56479a9d22f0 -->
<g id="node47" class="node">
<title>node_0x56479a9d22f0</title>
<polygon fill="#ccccff" stroke="black" points="1096.61,-112.62 1182.42,-89.53 1268.23,-112.62 1268.15,-150 1096.69,-150 1096.61,-112.62"/>
<text text-anchor="middle" x="1182.42" y="-126.75" font-family="Times,serif" font-size="14.00">[2]</text>
<text text-anchor="middle" x="1182.42" y="-111.75" font-family="Times,serif" font-size="14.00">ASGN_ADD</text>
</g>
<!-- node_0x56479a9d2330&#45;&gt;node_0x56479a9d22f0 -->
<g id="edge46" class="edge">
<title>node_0x56479a9d2330&#45;&gt;node_0x56479a9d22f0</title>
<path fill="none" stroke="black" d="M1182.42,-192.05C1182.42,-181.9 1182.42,-170.63 1182.42,-160.23"/>
<polygon fill="black" stroke="black" points="1185.92,-160.19 1182.42,-150.19 1178.92,-160.19 1185.92,-160.19"/>
</g>
<!-- node_0x56479a9d2270 -->
<g id="node48" class="node">
<title>node_0x56479a9d2270</title>
<ellipse fill="#ccffff" stroke="black" cx="1146.42" cy="-26.87" rx="26.74" ry="26.74"/>
<text text-anchor="middle" x="1146.42" y="-30.67" font-family="Times,serif" font-size="14.00">[1]</text>
<text text-anchor="middle" x="1146.42" y="-15.67" font-family="Times,serif" font-size="14.00">a</text>
</g>
<!-- node_0x56479a9d22f0&#45;&gt;node_0x56479a9d2270 -->
<g id="edge47" class="edge">
<title>node_0x56479a9d22f0&#45;&gt;node_0x56479a9d2270</title>
<path fill="none" stroke="black" d="M1171.13,-92.44C1167.42,-82.74 1163.26,-71.88 1159.43,-61.88"/>
<polygon fill="black" stroke="black" points="1162.58,-60.32 1155.74,-52.23 1156.04,-62.82 1162.58,-60.32"/>
</g>
<!-- node_0x56479a9d22b0 -->
<g id="node49" class="node">
<title>node_0x56479a9d22b0</title>
<ellipse fill="#ffffcc" stroke="black" cx="1218.42" cy="-26.87" rx="26.74" ry="26.74"/>
<text text-anchor="middle" x="1218.42" y="-30.67" font-family="Times,serif" font-size="14.00">[1]</text>
<text text-anchor="middle" x="1218.42" y="-15.67" font-family="Times,serif" font-size="14.00">1</text>
</g>
<!-- node_0x56479a9d22f0&#45;&gt;node_0x56479a9d22b0 -->
<g id="edge48" class="edge">
<title>node_0x56479a9d22f0&#45;&gt;node_0x56479a9d22b0</title>
<path fill="none" stroke="black" d="M1193.71,-92.44C1197.42,-82.74 1201.58,-71.88 1205.41,-61.88"/>
<polygon fill="black" stroke="black" points="1208.79,-62.82 1209.1,-52.23 1202.26,-60.32 1208.79,-62.82"/>
</g>
<!-- node_0x56479a9d2170 -->
<g id="node51" class="node">
<title>node_0x56479a9d2170</title>
<polygon fill="#ccccff" stroke="black" points="1250.05,-215.05 1309.42,-191.95 1368.79,-215.05 1368.73,-252.42 1250.11,-252.42 1250.05,-215.05"/>
<text text-anchor="middle" x="1309.42" y="-229.18" font-family="Times,serif" font-size="14.00">[1]</text>
<text text-anchor="middle" x="1309.42" y="-214.18" font-family="Times,serif" font-size="14.00">BREAK</text>
</g>
<!-- node_0x56479a9d21b0&#45;&gt;node_0x56479a9d2170 -->
<g id="edge50" class="edge">
<title>node_0x56479a9d21b0&#45;&gt;node_0x56479a9d2170</title>
<path fill="none" stroke="black" d="M1300.64,-297.74C1302.02,-286.48 1303.57,-273.94 1304.97,-262.55"/>
<polygon fill="black" stroke="black" points="1308.46,-262.83 1306.21,-252.48 1301.51,-261.98 1308.46,-262.83"/>
</g>
<!-- node_0x56479a9d24b0 -->
<g id="node53" class="node">
<title>node_0x56479a9d24b0</title>
<polygon fill="#ccccff" stroke="black" points="1186.78,-772.42 1236.42,-749.32 1286.06,-772.42 1286.01,-809.79 1186.82,-809.79 1186.78,-772.42"/>
<text text-anchor="middle" x="1236.42" y="-786.55" font-family="Times,serif" font-size="14.00">[2]</text>
<text text-anchor="middle" x="1236.42" y="-771.55" font-family="Times,serif" font-size="14.00">EXPR</text>
</g>
<!-- node_0x56479a9d24f0&#45;&gt;node_0x56479a9d24b0 -->
<g id="edge52" class="edge">
<title>node_0x56479a9d24f0&#45;&gt;node_0x56479a9d24b0</title>
<path fill="none" stroke="black" d="M1194.87,-867.53C1202.09,-852.98 1211.07,-834.87 1218.83,-819.21"/>
<polygon fill="black" stroke="black" points="1222.17,-820.35 1223.48,-809.84 1215.9,-817.24 1222.17,-820.35"/>
</g>
<!-- node_0x56479a9d2470 -->
<g id="node54" class="node">
<title>node_0x56479a9d2470</title>
<polygon fill="#ccccff" stroke="black" points="1153.43,-659.5 1273.42,-636.41 1393.4,-659.5 1393.29,-696.88 1153.55,-696.88 1153.43,-659.5"/>
<text text-anchor="middle" x="1273.42" y="-673.63" font-family="Times,serif" font-size="14.00">[1]</text>
<text text-anchor="middle" x="1273.42" y="-658.63" font-family="Times,serif" font-size="14.00">ELEM_RANDOM</text>
</g>
<!-- node_0x56479a9d24b0&#45;&gt;node_0x56479a9d2470 -->
<g id="edge53" class="edge">
<title>node_0x56479a9d24b0&#45;&gt;node_0x56479a9d2470</title>
<path fill="none" stroke="black" d="M1245.85,-753.47C1250.59,-739.26 1256.39,-721.88 1261.44,-706.73"/>
<polygon fill="black" stroke="black" points="1264.79,-707.75 1264.64,-697.15 1258.15,-705.53 1264.79,-707.75"/>
</g>
</g>
</svg>
